<svg width="46" height="49" viewBox="0 0 46 49" fill="none" xmlns="http://www.w3.org/2000/svg">
<path d="M2.12587 0.62793C3.03086 1.11587 3.92507 1.60382 4.83005 2.09177C5.59498 2.49839 6.37068 2.90501 7.1356 3.31163C7.99749 3.77924 8.85938 4.25702 9.72127 4.72464C10.4862 5.13126 11.2511 5.53788 12.0053 5.9445C12.8779 6.41211 13.7398 6.88989 14.6125 7.35751C15.3451 7.75396 16.0777 8.14025 16.8103 8.53671C17.7045 9.02465 18.6095 9.5126 19.5037 9.99038C20.2363 10.3868 20.9689 10.7731 21.7015 11.1696C22.5957 11.6575 23.5007 12.1353 24.3949 12.6233C25.0198 12.9587 25.6447 13.284 26.2695 13.6195C27.1314 14.0871 27.9933 14.5547 28.8552 15.0223C29.5016 15.3679 30.1588 15.7136 30.8052 16.0694C31.6779 16.537 32.5398 17.0148 33.4124 17.4824C34.0589 17.828 34.716 18.1736 35.3732 18.5193C36.2351 18.9869 37.097 19.4545 37.9589 19.9221C38.5838 20.2576 39.2086 20.593 39.8227 20.9285C40.7169 21.4164 41.6219 21.8942 42.5161 22.3822C43.2487 22.7786 43.9814 23.1649 44.714 23.5614C44.9294 23.6833 45.1772 23.7748 45.3604 23.9476C45.7913 24.3746 45.6728 25.1268 45.1341 25.4216C43.8844 26.0926 42.6562 26.7737 41.4065 27.4446C40.4045 27.9834 39.3918 28.512 38.3899 29.0507C37.3017 29.6302 36.2244 30.2299 35.1362 30.8195C34.242 31.2973 33.3478 31.7649 32.4536 32.2529C31.3655 32.8425 30.2881 33.4321 29.2 34.0217C28.3165 34.4995 27.4223 34.9569 26.5389 35.4347C25.4507 36.0141 24.3734 36.6139 23.2852 37.2035C22.5203 37.6203 21.7446 38.0167 20.9797 38.4234C20.1178 38.891 19.2559 39.3687 18.394 39.8364C17.6291 40.2531 16.8534 40.6496 16.0885 41.0562C15.2266 41.5238 14.3647 42.0016 13.5028 42.4692C12.7379 42.8759 11.973 43.2825 11.2188 43.6891C10.3461 44.1567 9.48425 44.6345 8.61159 45.1021C7.87898 45.4986 7.14638 45.8848 6.41377 46.2813C5.51956 46.7692 4.61458 47.2572 3.72037 47.735C3.24633 47.9891 2.77229 48.2534 2.28748 48.4974C1.85653 48.7109 1.11315 48.6092 0.908454 48.0908C0.897681 48.0603 0.886908 47.9993 0.833039 47.9891V36.7054C0.897681 36.3496 1.14547 36.1666 1.47946 36.0548C2.38444 35.7498 3.24633 35.3635 4.05435 34.8756C5.04552 34.286 5.92896 33.5744 6.7262 32.7612C7.80357 31.6531 8.62236 30.3926 9.20414 28.9897C9.6674 27.8614 9.93674 26.6923 10.0337 25.4826C10.1953 23.48 9.82901 21.5689 8.97789 19.7391C8.42844 18.5396 7.67428 17.4722 6.74775 16.4963C5.57343 15.2663 4.18363 14.3107 2.59991 13.6093C2.23361 13.4467 1.84576 13.3145 1.46868 13.1722C1.1347 13.0604 0.886907 12.8672 0.822266 12.5114V1.2277C0.897681 0.902399 1.11315 0.699088 1.45791 0.62793C1.67338 0.62793 1.87808 0.62793 2.09355 0.62793H2.12587Z" fill="white"/>
</svg>
