<svg width="21" height="16" viewBox="0 0 21 16" fill="none" xmlns="http://www.w3.org/2000/svg">
<g clip-path="url(#clip0_227_4160)">
<path fill-rule="evenodd" clip-rule="evenodd" d="M0 0H21V16H0V0Z" fill="#229E45"/>
<path fill-rule="evenodd" clip-rule="evenodd" d="M10.5459 14.5335L20.4388 8.01013L10.4868 1.4668L0.561035 8.02346L10.5459 14.5335Z" fill="#F8E509"/>
<path fill-rule="evenodd" clip-rule="evenodd" d="M14.8577 8C14.8577 10.3433 12.9841 12.2433 10.6708 12.2433C9.84417 12.242 9.03647 11.9917 8.34981 11.5242C7.66316 11.0566 7.12838 10.3927 6.81309 9.61641C6.49779 8.84012 6.41613 7.9863 6.57844 7.16287C6.74074 6.33945 7.13972 5.5834 7.72494 4.99029C8.31015 4.39718 9.05533 3.99365 9.86627 3.83071C10.6772 3.66777 11.5175 3.75273 12.2809 4.07486C13.0443 4.39698 13.6966 4.94181 14.1552 5.64046C14.6139 6.33912 14.8583 7.16023 14.8577 8Z" fill="#2B49A3"/>
<path fill-rule="evenodd" clip-rule="evenodd" d="M9.29564 10.5432L9.16439 10.4666L9.03314 10.5332L9.06268 10.3832L8.95768 10.2699L9.10533 10.2532L9.17752 10.1199L9.23986 10.2599L9.38424 10.2866L9.27596 10.3866M12.0978 11.2632L11.9699 11.1866L11.8386 11.2532L11.8649 11.1032L11.7631 10.9932L11.9108 10.9766L11.9797 10.8399L12.0453 10.9799L12.1897 11.0066L12.0781 11.1099M10.8903 10.1099L10.7788 10.0432L10.6639 10.1032L10.6902 9.97325L10.5983 9.87658L10.7296 9.86325L10.7886 9.74325L10.8411 9.86658L10.9691 9.88992L10.8706 9.97992M13.7253 9.69658L13.6138 9.62992L13.4989 9.68992L13.5252 9.55992L13.4366 9.46658L13.5646 9.45325L13.6236 9.33658L13.6761 9.45658L13.8008 9.47992L13.7056 9.56658M10.8411 8.83325L10.7099 8.75992L10.5786 8.82658L10.6049 8.67325L10.5031 8.56325L10.6508 8.54658L10.7197 8.40992L10.7853 8.54992L10.9297 8.57658L10.8181 8.68325M7.38596 7.51658L7.25471 7.44325L7.12346 7.50992L7.15627 7.35658L7.04799 7.24658L7.19893 7.22992L7.26455 7.09325L7.33018 7.23325L7.47455 7.25992L7.36627 7.36325M7.80268 9.26992L7.67143 9.19325L7.54018 9.25992L7.56971 9.10992L7.46471 8.99992L7.61236 8.97992L7.68127 8.84658L7.74689 8.98658L7.89127 9.01325L7.78299 9.11658M12.1142 6.87325L11.9961 6.80658L11.878 6.86658L11.9042 6.73325L11.8124 6.63325L11.9436 6.61658L12.006 6.49658L12.0617 6.62325L12.193 6.64658L12.0946 6.73658M11.8747 8.01325L11.7861 7.95992L11.691 8.00658L11.7106 7.89992L11.6385 7.82325L11.7435 7.80992L11.7927 7.71658L11.8353 7.81658L11.9338 7.83325L11.8616 7.90658M7.19564 9.58658L7.10705 9.53658L7.01846 9.57992L7.03814 9.47992L6.96924 9.40658L7.06768 9.39325L7.11361 9.30325L7.15627 9.39658L7.25471 9.41658L7.17924 9.48325M13.7483 9.99325L13.6761 9.95658L13.6039 9.98992L13.6203 9.91325L13.5646 9.85992L13.6433 9.84992L13.6827 9.78325L13.7155 9.84992L13.7975 9.86658L13.7352 9.91658" fill="#FFFFEF"/>
<path fill-rule="evenodd" clip-rule="evenodd" d="M7.19564 9.58656L7.10705 9.53656L7.01846 9.57989L7.03814 9.47989L6.96924 9.40656L7.06768 9.39322L7.11361 9.30322L7.15627 9.39656L7.25471 9.41656L7.17924 9.48322" fill="#FFFFEF"/>
<path fill-rule="evenodd" clip-rule="evenodd" d="M7.19564 9.58658L7.10705 9.53658L7.01846 9.57992L7.03814 9.47992L6.96924 9.40658L7.06768 9.39325L7.11361 9.30325L7.15627 9.39658L7.25471 9.41658L7.17924 9.48325M8.56721 9.58325L8.48189 9.53658L8.3933 9.57992L8.41299 9.47992L8.34408 9.40658L8.44252 9.39325L8.48846 9.30325L8.53111 9.39658L8.62955 9.41325L8.55408 9.48325M8.39658 10.0499L8.31127 9.99992L8.22268 10.0466L8.24236 9.94658L8.17346 9.86992L8.27189 9.85658L8.31783 9.76658L8.36049 9.85992L8.45893 9.87992L8.38346 9.94658M11.2513 9.20658L11.166 9.15325L11.0741 9.19992L11.0938 9.09992L11.0281 9.02325L11.1266 9.01325L11.1725 8.92325L11.2119 9.01658L11.3103 9.03325L11.2381 9.10325M10.4146 9.20325L10.326 9.15325L10.2374 9.19992L10.2571 9.09992L10.1914 9.02325L10.2899 9.01325L10.3358 8.91992L10.3752 9.01658L10.4736 9.03325L10.4014 9.10325M8.14393 8.90992L8.08814 8.87658L8.03236 8.90325L8.04549 8.83992L8.00283 8.79325L8.06518 8.78658L8.09143 8.72992L8.11768 8.78992L8.18002 8.79992L8.13408 8.84325M13.64 10.3566L13.5547 10.3066L13.4661 10.3532L13.4858 10.2532L13.4169 10.1766L13.5153 10.1632L13.5613 10.0732L13.6039 10.1666L13.7024 10.1866L13.6269 10.2532M12.9444 10.4532L12.8722 10.4066L12.7967 10.4466L12.8131 10.3599L12.7574 10.2999L12.8394 10.2899L12.8788 10.2132L12.9116 10.2932L12.9936 10.3066L12.9313 10.3666M13.2725 10.4432L13.2069 10.4032L13.138 10.4366L13.1511 10.3599L13.0986 10.3032L13.1741 10.2932L13.2102 10.2266L13.243 10.2932L13.3185 10.3099L13.2627 10.3632M14.2175 9.60325L14.1519 9.56992L14.0863 9.60325L14.1027 9.52658L14.0502 9.46992L14.1256 9.45992L14.1585 9.39325L14.1913 9.46325L14.2602 9.47658L14.2077 9.52992M12.9346 10.9232L12.8525 10.8766L12.7639 10.9166L12.7836 10.8232L12.718 10.7566L12.8164 10.7466L12.8591 10.6632L12.8985 10.7499L12.9969 10.7666L12.9214 10.8299M12.9411 11.3032L12.8624 11.2566L12.7836 11.2999L12.8033 11.2066L12.741 11.1399L12.8296 11.1266L12.8689 11.0432L12.905 11.1299L12.9936 11.1466L12.928 11.2132M12.3046 10.4432L12.2422 10.4032L12.1766 10.4366L12.1897 10.3632L12.1405 10.3066L12.2127 10.2999L12.2455 10.2332L12.2783 10.2999L12.3505 10.3132L12.298 10.3666M11.7139 10.4432L11.6483 10.4032L11.5827 10.4366L11.5991 10.3632L11.5466 10.3066L11.6221 10.2999L11.6549 10.2332L11.6877 10.2999L11.7566 10.3132L11.7041 10.3666M10.7066 9.54658L10.641 9.50992L10.5753 9.54325L10.5917 9.46658L10.5392 9.41325L10.6114 9.40325L10.6442 9.33658L10.6771 9.40325L10.7492 9.41992L10.6967 9.46992M10.8181 11.3699L10.7656 11.3399L10.7066 11.3699L10.7197 11.3032L10.6771 11.2566L10.7394 11.2499L10.7689 11.1932L10.7952 11.2532L10.8575 11.2632L10.8116 11.3066M9.29564 8.41992L9.16439 8.34325L9.03314 8.40992L9.06268 8.25992L8.95768 8.14992L9.10533 8.12992L9.17752 7.99658L9.23986 8.13658L9.38424 8.16325L9.27596 8.26658" fill="#FFFFEF"/>
<path fill-rule="evenodd" clip-rule="evenodd" d="M14.5821 9.52644C14.6634 9.31217 14.727 9.09141 14.7724 8.86644C12.5477 6.88311 10.0704 5.86645 6.94004 6.07645C6.82651 6.29961 6.73315 6.53279 6.66113 6.77311C10.3689 6.41311 13.0924 8.07978 14.5821 9.52644Z" fill="white"/>
<path d="M13.5844 8.41353L13.6598 8.45686C13.6486 8.4795 13.6451 8.50532 13.65 8.53019C13.6577 8.55432 13.6741 8.57457 13.6959 8.58686C13.7189 8.60353 13.7419 8.61353 13.7615 8.61019C13.7812 8.61019 13.7944 8.6002 13.8042 8.58686C13.8099 8.57801 13.8123 8.56734 13.8108 8.55686C13.8081 8.54455 13.8024 8.5331 13.7944 8.52353C13.7878 8.51353 13.7714 8.4902 13.7451 8.46353C13.7182 8.43524 13.6979 8.40102 13.6861 8.36353C13.6779 8.33515 13.68 8.30473 13.6921 8.27781C13.7041 8.25088 13.7253 8.22926 13.7517 8.21686C13.7756 8.20674 13.8019 8.20441 13.8272 8.2102C13.858 8.21741 13.8871 8.23103 13.9125 8.2502C13.9584 8.28353 13.9879 8.31686 13.9978 8.35686C14.0023 8.37557 14.0029 8.39504 13.9995 8.414C13.9961 8.43296 13.9888 8.45097 13.9781 8.46686L13.8994 8.41686C13.9092 8.39686 13.9125 8.37686 13.9059 8.3602C13.9026 8.34353 13.8895 8.32686 13.8665 8.31353C13.8497 8.29976 13.8291 8.29161 13.8075 8.29019C13.8015 8.28999 13.7956 8.29144 13.7904 8.29437C13.7852 8.29731 13.7809 8.30162 13.7779 8.30686C13.7714 8.31686 13.7714 8.32686 13.7747 8.3402C13.7779 8.35353 13.7944 8.38019 13.8272 8.41353C13.86 8.44686 13.8797 8.47686 13.8928 8.49686C13.9045 8.51871 13.9098 8.54351 13.9081 8.56833C13.9063 8.59314 13.8976 8.61693 13.8829 8.63686C13.8676 8.65952 13.8459 8.67695 13.8206 8.68686C13.796 8.69837 13.7685 8.70186 13.7419 8.69686C13.7123 8.69019 13.6828 8.67686 13.65 8.65353C13.6008 8.6202 13.5712 8.58353 13.5614 8.54353C13.5507 8.49817 13.5578 8.45037 13.5811 8.4102L13.5844 8.41353ZM13.2037 8.1602L13.2858 8.20353C13.2756 8.22655 13.2733 8.25236 13.2792 8.27686C13.2876 8.29974 13.3039 8.31871 13.3251 8.33019C13.3514 8.34686 13.3711 8.35353 13.3908 8.3502C13.4104 8.3502 13.4236 8.3402 13.4334 8.32353C13.4384 8.3156 13.4407 8.30624 13.44 8.29686C13.44 8.28686 13.4334 8.27353 13.4236 8.26353C13.4068 8.24292 13.3893 8.2229 13.3711 8.20353C13.335 8.16686 13.312 8.13686 13.3054 8.1102C13.3001 8.09304 13.2985 8.0749 13.3007 8.05705C13.303 8.0392 13.3091 8.02207 13.3186 8.00686C13.331 7.98629 13.3493 7.97003 13.3711 7.9602C13.3936 7.94964 13.4188 7.94615 13.4433 7.9502C13.4736 7.95539 13.5026 7.96672 13.5286 7.98353C13.5778 8.01686 13.6073 8.0502 13.6172 8.08686C13.6231 8.1056 13.6251 8.12543 13.6228 8.14499C13.6205 8.16455 13.6141 8.18338 13.604 8.2002L13.522 8.15353C13.5319 8.1302 13.5351 8.11353 13.5286 8.09686C13.522 8.08019 13.5089 8.06353 13.4859 8.0502C13.4678 8.03696 13.4459 8.02995 13.4236 8.03019C13.4182 8.03056 13.413 8.03228 13.4084 8.03519C13.4038 8.03809 13.4 8.0421 13.3973 8.04686C13.3908 8.05686 13.3908 8.06686 13.394 8.08019C13.3973 8.09353 13.417 8.1202 13.4498 8.15353C13.4826 8.18686 13.5056 8.21353 13.5154 8.23353C13.5286 8.25443 13.5356 8.27872 13.5356 8.30353C13.5356 8.32834 13.5286 8.35262 13.5154 8.37353C13.5013 8.39678 13.4808 8.41532 13.4564 8.42686C13.4318 8.43837 13.4043 8.44186 13.3776 8.43686C13.3439 8.43106 13.3115 8.41861 13.2825 8.4002C13.2401 8.37723 13.2074 8.33929 13.1906 8.29353C13.1779 8.24902 13.1826 8.20127 13.2037 8.1602ZM12.7378 8.03353L12.9773 7.63353L13.2661 7.81686L13.2267 7.88353L13.0167 7.7502L12.9642 7.8402L13.1611 7.96353L13.1184 8.03019L12.9215 7.90686L12.8559 8.01686L13.0758 8.1502L13.0364 8.21686L12.7411 8.03353H12.7378ZM12.0586 7.46686L12.0947 7.4002L12.2719 7.4902L12.1898 7.65686C12.1636 7.66353 12.1308 7.66686 12.0914 7.66353C12.0536 7.65929 12.0169 7.64799 11.9831 7.6302C11.9434 7.61054 11.9095 7.58066 11.8847 7.54353C11.8621 7.50903 11.8506 7.46826 11.8519 7.42686C11.8535 7.38377 11.8647 7.34161 11.8847 7.30353C11.9044 7.26344 11.9337 7.22905 11.97 7.20353C12.0047 7.17917 12.0459 7.16635 12.0881 7.16686C12.1209 7.16686 12.1537 7.17686 12.1931 7.2002C12.2456 7.22353 12.2784 7.25686 12.2948 7.29353C12.3119 7.32993 12.3154 7.37138 12.3047 7.4102L12.2161 7.38353C12.2215 7.3612 12.2192 7.33766 12.2095 7.31686C12.1997 7.29686 12.1833 7.28353 12.157 7.2702C12.1417 7.26132 12.1247 7.25585 12.1072 7.25412C12.0897 7.2524 12.072 7.25447 12.0553 7.2602C12.0225 7.2702 11.9929 7.3002 11.97 7.34686C11.947 7.39353 11.9372 7.43686 11.947 7.47353C11.9515 7.49092 11.9598 7.50709 11.9711 7.52091C11.9824 7.53473 11.9966 7.54586 12.0126 7.55353C12.029 7.56353 12.0487 7.5702 12.0684 7.5702C12.088 7.57321 12.1079 7.57321 12.1275 7.5702L12.1537 7.51686L12.0586 7.46686ZM9.09889 6.72353L9.16451 6.25686L9.30232 6.2802L9.33842 6.60686L9.46639 6.30686L9.6042 6.32686L9.53857 6.78686L9.44998 6.77353L9.50576 6.4102L9.36139 6.7602L9.27279 6.74686L9.2367 6.3702L9.1842 6.73686L9.09889 6.72353ZM8.63623 6.66686L8.67889 6.2002L9.01685 6.23353L9.01029 6.31353L8.7642 6.2902L8.75435 6.3902L8.98404 6.41353L8.9742 6.49353L8.74451 6.4702L8.73467 6.59686L8.99061 6.6202L8.98404 6.7002L8.63623 6.66686Z" fill="#309E3A"/>
<path d="M7.10381 6.37672C7.10381 6.32672 7.11365 6.29005 7.12678 6.25672C7.13828 6.23301 7.15383 6.21157 7.17271 6.19339C7.18954 6.17614 7.20963 6.16254 7.23178 6.15339C7.26459 6.14339 7.2974 6.13672 7.33021 6.13672C7.39912 6.13672 7.45162 6.16339 7.49428 6.20339C7.51458 6.22887 7.52968 6.2582 7.5387 6.28968C7.54771 6.32116 7.55046 6.35415 7.54678 6.38672C7.54678 6.46005 7.52381 6.52005 7.48115 6.56339C7.45923 6.58397 7.4333 6.59965 7.40504 6.60941C7.37678 6.61917 7.34682 6.6228 7.31709 6.62005C7.28776 6.62035 7.25868 6.6146 7.2316 6.60314C7.20453 6.59168 7.18003 6.57475 7.15959 6.55339C7.11876 6.50429 7.09871 6.44078 7.10381 6.37672Z" fill="#309E3A"/>
<path d="M7.19873 6.37686C7.19873 6.42686 7.20857 6.46686 7.23154 6.49686C7.25451 6.52352 7.28404 6.54019 7.32342 6.54019C7.34045 6.5414 7.35754 6.53874 7.37343 6.5324C7.38932 6.52605 7.40363 6.51619 7.41529 6.50353C7.43826 6.47686 7.44811 6.43686 7.45139 6.38019C7.45139 6.32686 7.44482 6.28686 7.41857 6.26019C7.40789 6.24676 7.39439 6.2359 7.37907 6.22841C7.36375 6.22091 7.34698 6.21697 7.32998 6.21686C7.31272 6.2163 7.29555 6.21959 7.27967 6.2265C7.2638 6.23341 7.24961 6.24377 7.23811 6.25686C7.21186 6.28352 7.20201 6.32352 7.19873 6.37686Z" fill="#F7FFFF"/>
<path d="M7.64551 6.61657L7.65207 6.1499H7.84895C7.89816 6.1499 7.93098 6.15657 7.95395 6.16657C7.97691 6.17324 7.99332 6.1899 8.00645 6.2099C8.01957 6.2299 8.02613 6.25657 8.02613 6.28657C8.02639 6.31864 8.01466 6.34961 7.99332 6.37324C7.96906 6.39632 7.93785 6.41041 7.90473 6.41324L7.95395 6.45324C7.96707 6.46657 7.98348 6.49324 8.00316 6.5299L8.05895 6.62324H7.94738L7.88176 6.51657L7.83582 6.4499C7.82786 6.44073 7.81768 6.43383 7.80629 6.4299C7.79136 6.42548 7.7759 6.42324 7.76035 6.42324H7.74066V6.61657H7.64551Z" fill="#309E3A"/>
<path d="M7.74414 6.34998H7.80977C7.8557 6.34998 7.88523 6.34998 7.89508 6.34331C7.90492 6.34331 7.91477 6.33331 7.92133 6.32665C7.92789 6.31998 7.93117 6.30331 7.93117 6.29331C7.93117 6.27331 7.92789 6.25998 7.91805 6.25331C7.91148 6.24331 7.89836 6.23665 7.88523 6.23331H7.81961L7.74414 6.22998V6.34665V6.34998Z" fill="white"/>
<path d="M8.17043 6.17334L8.34105 6.18334C8.37715 6.18334 8.40668 6.18667 8.42637 6.19334C8.45191 6.20275 8.47454 6.21885 8.49199 6.24001C8.51089 6.26331 8.52436 6.29066 8.53137 6.32001C8.54121 6.35001 8.54449 6.38667 8.54121 6.43001C8.54118 6.46403 8.53564 6.49781 8.5248 6.53001C8.51168 6.56334 8.49199 6.59001 8.46902 6.61001C8.44991 6.62601 8.42747 6.6374 8.4034 6.64334C8.38371 6.65001 8.35418 6.65001 8.32137 6.65001L8.14746 6.64001L8.17043 6.17334Z" fill="#309E3A"/>
<path d="M8.25908 6.25684L8.24268 6.56684H8.36736C8.38377 6.56684 8.3969 6.56017 8.40674 6.55017C8.41658 6.54017 8.42643 6.52684 8.43299 6.50684C8.43955 6.48684 8.44611 6.45684 8.44611 6.42017L8.44283 6.33684C8.43815 6.31926 8.42911 6.30319 8.41658 6.29017C8.40569 6.27904 8.39211 6.27099 8.37721 6.26684C8.35239 6.26122 8.32714 6.25788 8.30174 6.25684H8.25908Z" fill="white"/>
<path d="M10.4214 7.00656L10.5297 6.55322L10.674 6.58656L10.779 6.61989C10.802 6.63322 10.8217 6.65322 10.8315 6.68322C10.8447 6.70989 10.8447 6.73989 10.8381 6.77656C10.8315 6.80322 10.8217 6.82656 10.8053 6.84322C10.7933 6.85786 10.7782 6.86963 10.7612 6.87769C10.7442 6.88576 10.7256 6.88992 10.7069 6.88989C10.6839 6.88989 10.6511 6.88322 10.6084 6.87322L10.5526 6.85656L10.5133 7.02989L10.4214 7.00656Z" fill="#309E3A"/>
<path d="M10.5985 6.65332L10.5723 6.77999L10.6215 6.79332C10.6543 6.79999 10.6805 6.80665 10.6937 6.80332C10.7064 6.80152 10.7183 6.79575 10.7277 6.78679C10.7371 6.77784 10.7436 6.76614 10.7462 6.75332C10.7462 6.73665 10.7462 6.72332 10.7396 6.70999C10.7324 6.69644 10.7208 6.68584 10.7068 6.67999L10.6445 6.66332L10.6018 6.65332H10.5985Z" fill="white"/>
<path d="M10.8477 7.13678L11.0019 6.69678L11.1823 6.76344C11.2316 6.78011 11.2611 6.79678 11.2808 6.81011C11.2972 6.82678 11.3103 6.84344 11.3136 6.87011C11.3169 6.89678 11.3202 6.92011 11.3136 6.94678C11.3005 6.98011 11.2808 7.00344 11.2545 7.02011C11.2283 7.03344 11.1955 7.03678 11.1561 7.03011C11.1692 7.04678 11.1823 7.06344 11.1889 7.08344L11.2152 7.17344L11.2348 7.27678L11.1331 7.24011L11.1003 7.12011C11.0943 7.09297 11.0867 7.06625 11.0773 7.04011C11.073 7.02974 11.0662 7.02059 11.0577 7.01344C11.0511 7.00344 11.038 6.99678 11.015 6.99011L10.9986 6.98344L10.933 7.17011L10.8477 7.13678Z" fill="#309E3A"/>
<path d="M11.0248 6.91322L11.0871 6.93656C11.1298 6.95322 11.156 6.95989 11.1691 6.95989C11.179 6.95989 11.1888 6.95989 11.1987 6.94989C11.2085 6.94322 11.2151 6.93322 11.2184 6.91989C11.2249 6.90656 11.2249 6.89322 11.2184 6.87989C11.2135 6.86697 11.2042 6.8563 11.1921 6.84989L11.1265 6.82656L11.0609 6.80322L11.0215 6.91322H11.0248Z" fill="white"/>
<path d="M11.3858 7.11994C11.3971 7.08091 11.4161 7.04462 11.4416 7.01327C11.4582 6.99316 11.4782 6.97623 11.5007 6.96327C11.521 6.9516 11.5432 6.9437 11.5663 6.93994C11.5991 6.93994 11.6319 6.93994 11.668 6.95328C11.6973 6.96065 11.7248 6.97427 11.7485 6.99323C11.7723 7.01219 11.7918 7.03607 11.8058 7.06327C11.8321 7.11661 11.8321 7.17994 11.8124 7.25328C11.7961 7.31628 11.756 7.3702 11.7008 7.40328C11.6516 7.43328 11.5925 7.43661 11.5302 7.41661C11.5009 7.40904 11.4736 7.39535 11.4498 7.3764C11.4261 7.35746 11.4065 7.33369 11.3924 7.30661C11.3792 7.27747 11.3719 7.24597 11.3708 7.21394C11.3696 7.18191 11.3747 7.14996 11.3858 7.11994Z" fill="#309E3A"/>
<path d="M11.4779 7.14667C11.4648 7.19667 11.4615 7.24001 11.4779 7.27334C11.4943 7.30667 11.5173 7.32667 11.5534 7.34001C11.5862 7.35001 11.619 7.34667 11.6518 7.32667C11.6846 7.31001 11.7043 7.27334 11.7207 7.22001C11.7371 7.17001 11.7371 7.13001 11.7207 7.09667C11.7142 7.08086 11.7044 7.06669 11.6919 7.05517C11.6795 7.04364 11.6646 7.03505 11.6485 7.03001C11.6324 7.02434 11.6152 7.02231 11.5982 7.02403C11.5812 7.02576 11.5648 7.03121 11.5501 7.04001C11.5173 7.06001 11.4943 7.09334 11.4779 7.14667Z" fill="white"/>
<path d="M12.2817 7.76978L12.4917 7.35645L12.6656 7.44645C12.6984 7.46242 12.7284 7.48383 12.7542 7.50978C12.7706 7.52645 12.7805 7.54645 12.7805 7.57311C12.7805 7.59978 12.7805 7.62311 12.7674 7.64645C12.7547 7.67642 12.7312 7.7003 12.7017 7.71311C12.6689 7.71978 12.6361 7.71978 12.6 7.70645C12.6131 7.72645 12.6197 7.74645 12.6263 7.76311C12.6328 7.78311 12.6361 7.81311 12.6394 7.85645L12.646 7.96311L12.5475 7.91311L12.5344 7.78978C12.5328 7.76182 12.5296 7.73399 12.5246 7.70645C12.5223 7.69398 12.5166 7.68241 12.5081 7.67311L12.4688 7.64978L12.4524 7.63978L12.3638 7.81311L12.2817 7.76978Z" fill="#309E3A"/>
<path d="M12.4854 7.57298L12.5477 7.60631C12.5871 7.62631 12.6133 7.63964 12.6232 7.63964C12.633 7.63964 12.6461 7.63964 12.656 7.63298C12.6658 7.62964 12.6724 7.61964 12.6789 7.60631C12.6855 7.59298 12.6888 7.57964 12.6855 7.56631C12.6815 7.55304 12.6734 7.54138 12.6625 7.53298C12.6433 7.521 12.6236 7.50988 12.6035 7.49964L12.5379 7.46631L12.4854 7.57298Z" fill="white"/>
<path d="M13.9813 8.6233C14.0026 8.58903 14.0305 8.55953 14.0634 8.53663C14.0855 8.52228 14.1099 8.51211 14.1356 8.50663C14.1594 8.50169 14.1839 8.50169 14.2078 8.50663C14.2406 8.5133 14.2701 8.52663 14.2996 8.54663C14.3252 8.56279 14.3471 8.58418 14.3641 8.60943C14.381 8.63469 14.3926 8.66325 14.3981 8.6933C14.4079 8.74997 14.3915 8.8133 14.3521 8.87663C14.3192 8.93172 14.2661 8.97128 14.2045 8.98663C14.1751 8.99308 14.1447 8.99315 14.1153 8.98683C14.0859 8.98051 14.0581 8.96795 14.0338 8.94997C14.0083 8.93381 13.9864 8.91242 13.9694 8.88717C13.9525 8.86191 13.9409 8.83335 13.9354 8.8033C13.9256 8.7433 13.942 8.6833 13.9813 8.6233Z" fill="#309E3A"/>
<path d="M14.0634 8.67662C14.0306 8.71996 14.0207 8.75996 14.0273 8.79662C14.0297 8.81351 14.0357 8.82967 14.0447 8.84404C14.0538 8.85841 14.0657 8.87066 14.0798 8.87996C14.1126 8.90329 14.1454 8.90996 14.1782 8.89996C14.2111 8.88996 14.2439 8.86662 14.2734 8.81996C14.3029 8.77329 14.3161 8.73329 14.3095 8.69996C14.3062 8.66662 14.2865 8.63662 14.257 8.61329C14.2275 8.58996 14.1914 8.58662 14.1586 8.59662C14.1257 8.60329 14.0929 8.62996 14.0601 8.67662H14.0634Z" fill="white"/>
<path d="M9.90283 6.8169L9.9783 6.49023L10.2146 6.5469L10.2047 6.60023L10.0308 6.56023L10.0144 6.63357L10.1752 6.67023L10.1621 6.7269L10.0013 6.6869L9.98158 6.7769L10.1621 6.82023L10.1489 6.87357L9.90283 6.8169Z" fill="#309E3A"/>
</g>
<defs>
<clipPath id="clip0_227_4160">
<rect width="21" height="16" fill="white"/>
</clipPath>
</defs>
</svg>
