<svg width="46" height="57" viewBox="0 0 46 57" fill="none" xmlns="http://www.w3.org/2000/svg">
<path d="M21.4154 56.0366C23.7674 56.3525 25.9328 55.4866 27.3016 53.9655C28.1105 53.0645 29.355 52.6082 30.6119 52.6082H31.1594C32.4163 52.6082 33.6483 53.0645 34.4696 53.9655C35.851 55.4866 38.0039 56.3525 40.3559 56.0366C43.2181 55.6504 45.4954 53.4272 45.8314 50.7243C46.2794 47.0268 43.2305 43.9026 39.3852 43.9026C37.4314 43.9026 35.6892 44.71 34.507 45.9971C33.6856 46.8864 32.491 47.3895 31.2341 47.3895H30.5248C29.2679 47.3895 28.0732 46.8864 27.2519 45.9971C26.0696 44.71 24.315 43.9026 22.3736 43.9026C18.5408 43.9026 15.4794 47.0385 15.9274 50.7243C16.2634 53.4155 18.5408 55.6387 21.403 56.0249L21.4154 56.0366Z" fill="white"/>
<path d="M21.4154 0.971642C23.7674 0.655714 25.9328 1.52159 27.3016 3.04273C28.1105 3.94371 29.355 4.40005 30.6119 4.40005H31.1594C32.4163 4.40005 33.6483 3.94371 34.4696 3.04273C35.851 1.52159 38.0039 0.655714 40.3559 0.971642C43.2181 1.35778 45.4954 3.58097 45.8314 6.28391C46.2794 9.98144 43.2305 13.1056 39.3852 13.1056C37.4314 13.1056 35.6892 12.2982 34.507 11.0111C33.6856 10.1219 32.491 9.61871 31.2341 9.61871H30.5248C29.2679 9.61871 28.0732 10.1219 27.2519 11.0111C26.0696 12.2982 24.315 13.1056 22.3736 13.1056C18.5408 13.1056 15.4794 9.96974 15.9274 6.28391C16.2634 3.59267 18.5408 1.36948 21.403 0.983343L21.4154 0.971642Z" fill="white"/>
<path d="M6.42031 34.5419C8.77231 34.8579 10.9376 33.992 12.3065 32.4709C13.1154 31.5699 14.3599 31.1135 15.6167 31.1135H16.1643C17.4212 31.1135 18.6532 31.5699 19.4745 32.4709C20.8559 33.992 23.0087 34.8579 25.3608 34.5419C28.223 34.1558 30.5003 31.9326 30.8363 29.2297C31.2843 25.5321 28.2354 22.408 24.3901 22.408C22.4363 22.408 20.6941 23.2153 19.5119 24.5024C18.6905 25.3917 17.4959 25.8949 16.239 25.8949H15.5296C14.2727 25.8949 13.0781 25.3917 12.2568 24.5024C11.0745 23.2153 9.31986 22.408 7.37853 22.408C3.54564 22.408 0.484305 25.5438 0.932305 29.2297C1.26831 31.9209 3.54564 34.1441 6.40786 34.5302L6.42031 34.5419Z" fill="white"/>
</svg>
