<svg width="33" height="32" viewBox="0 0 33 32" fill="none" xmlns="http://www.w3.org/2000/svg">
<path d="M4.03613 15.6719C4.03613 9.82327 4.03613 6.89899 5.85305 5.08205C7.66998 3.26514 10.5943 3.26514 16.4428 3.26514C22.2914 3.26514 25.2157 3.26514 27.0327 5.08205C28.8496 6.89899 28.8496 9.82327 28.8496 15.6719C28.8496 21.5204 28.8496 24.4447 27.0327 26.2617C25.2157 28.0786 22.2914 28.0786 16.4428 28.0786C10.5943 28.0786 7.66998 28.0786 5.85305 26.2617C4.03613 24.4447 4.03613 21.5204 4.03613 15.6719Z" stroke="#A30084" stroke-width="1.5" stroke-linejoin="round"/>
<path d="M22.8767 10.4824H19.0307C17.6676 10.4824 16.5596 11.5822 16.5495 12.9454L16.4381 27.983M13.938 18.286H20.2102" stroke="#A30084" stroke-width="1.5" stroke-linecap="round" stroke-linejoin="round"/>
</svg>
