<svg width="337" height="115" viewBox="0 0 337 115" fill="none" xmlns="http://www.w3.org/2000/svg">
<path d="M254.147 91.8599H251.216C250.867 91.8599 250.584 92.1432 250.584 92.4926V96.1539C250.584 96.5034 250.867 96.7867 251.216 96.7867H254.147C254.496 96.7867 254.779 96.5034 254.779 96.1539V92.4926C254.779 92.1432 254.496 91.8599 254.147 91.8599Z" fill="white"/>
<path d="M247.616 96.1889V92.4924C247.616 92.1515 247.34 91.8755 247 91.8755H244.039C243.698 91.8755 243.423 92.1515 243.423 92.4924V96.1942C243.423 96.5352 243.698 96.8111 244.039 96.8111H245.773C246.114 96.8111 246.389 97.0871 246.389 97.4281V100.49C246.389 100.831 246.665 101.107 247.005 101.107H249.966C250.307 101.107 250.582 100.831 250.582 100.49V97.4228C250.582 97.0818 250.307 96.8059 249.966 96.8059H248.232C247.892 96.8059 247.616 96.5299 247.616 96.1889Z" fill="white"/>
<path d="M240.453 96.1889V92.4924C240.453 92.1515 240.177 91.8755 239.837 91.8755H236.876C236.535 91.8755 236.26 92.1515 236.26 92.4924V96.1942C236.26 96.5352 236.535 96.8111 236.876 96.8111C238.175 96.8111 239.228 97.8658 239.228 99.1665V100.492C239.228 100.833 239.503 101.109 239.844 101.109H242.805C243.145 101.109 243.421 100.833 243.421 100.492V97.4246C243.421 97.0836 243.145 96.8076 242.805 96.8076H241.071C240.73 96.8076 240.455 96.5317 240.455 96.1907L240.453 96.1889Z" fill="white"/>
<path d="M272.575 92.1534L269.842 101.132C269.814 101.221 269.732 101.283 269.639 101.283H267.836C267.743 101.283 267.662 101.223 267.634 101.135L265.423 94.2381L263.213 101.135C263.185 101.223 263.102 101.283 263.011 101.283H261.2C261.107 101.283 261.024 101.221 260.996 101.132L258.239 92.1288C258.198 91.9952 258.298 91.8599 258.437 91.8599H260.238C260.331 91.8599 260.413 91.9231 260.438 92.0128L262.242 98.6974L264.334 92.0181C264.364 91.9249 264.45 91.8599 264.548 91.8599H266.305C266.404 91.8599 266.492 91.9231 266.52 92.0181L268.603 98.6974L270.413 92.0268C270.439 91.9284 270.528 91.8599 270.632 91.8599H272.357C272.51 91.8599 272.619 92.0075 272.575 92.1534Z" fill="white"/>
<path d="M273.444 96.5704C273.444 93.5278 275.397 91.6172 278.104 91.6172C280.81 91.6172 282.764 93.5278 282.764 96.5704C282.764 99.613 280.802 101.524 278.104 101.524C275.406 101.524 273.444 99.6042 273.444 96.5704ZM280.638 96.5704C280.638 94.6492 279.634 93.447 278.102 93.447C276.57 93.447 275.566 94.6492 275.566 96.5704C275.566 98.4916 276.561 99.6851 278.102 99.6851C279.643 99.6851 280.638 98.4828 280.638 96.5704Z" fill="white"/>
<path d="M290.533 91.9813L290.208 93.4578C290.185 93.565 290.081 93.6371 289.973 93.6195C289.771 93.5879 289.523 93.5633 289.304 93.5633C287.87 93.5633 286.822 94.8464 286.822 96.6674V101.065C286.822 101.185 286.726 101.28 286.608 101.28H284.977C284.858 101.28 284.763 101.183 284.763 101.065V92.0745C284.763 91.955 284.86 91.8583 284.979 91.8583H286.571C286.69 91.8583 286.787 91.955 286.787 92.0745V93.3207C287.101 92.6123 287.961 91.6333 289.485 91.6333C289.688 91.6333 290.008 91.6526 290.371 91.7282C290.485 91.7528 290.557 91.8653 290.533 91.9796V91.9813Z" fill="white"/>
<path d="M295.389 97.235L294.117 98.6623V101.062C294.117 101.183 294.018 101.281 293.897 101.281H292.276C292.154 101.281 292.056 101.183 292.056 101.062V88.5801C292.056 88.4588 292.154 88.3604 292.276 88.3604H293.897C294.018 88.3604 294.117 88.4588 294.117 88.5801V95.9695L297.645 91.9338C297.687 91.8863 297.747 91.8582 297.81 91.8582H299.691C299.881 91.8582 299.983 92.0832 299.855 92.2256L296.714 95.7445L300.26 100.937C300.36 101.083 300.255 101.281 300.079 101.281H298.229C298.156 101.281 298.087 101.244 298.047 101.185L295.388 97.235H295.389Z" fill="white"/>
<path d="M302.35 91.8599H303.984C304.102 91.8599 304.199 91.9565 304.199 92.0743V101.069C304.199 101.186 304.102 101.283 303.984 101.283H302.35C302.233 101.283 302.136 101.186 302.136 101.069V92.0743C302.136 91.9565 302.233 91.8599 302.35 91.8599Z" fill="white"/>
<path d="M306.108 99.5289L307.196 98.6114C307.284 98.5376 307.418 98.5446 307.493 98.6307C308.162 99.3883 309.12 99.782 310.363 99.782C311.491 99.782 312.19 99.3602 312.19 98.6431C312.19 97.8257 311.312 97.6289 309.931 97.4144C308.041 97.1191 306.472 96.4266 306.472 94.4615C306.472 92.6493 308.004 91.5981 310.261 91.5981C311.841 91.5981 313.027 92.0903 313.924 93.0518C314.005 93.1397 313.996 93.2785 313.907 93.3576L312.873 94.2769C312.789 94.3525 312.659 94.3507 312.58 94.2699C311.96 93.6371 311.202 93.3576 310.252 93.3576C309.303 93.3576 308.515 93.6898 308.515 94.3894C308.515 95.1786 309.392 95.4124 310.754 95.6286C312.483 95.8975 314.231 96.4178 314.231 98.5358C314.231 100.501 312.61 101.55 310.324 101.55C308.33 101.55 306.954 100.851 306.084 99.8383C306.005 99.7451 306.012 99.608 306.105 99.5289H306.108Z" fill="white"/>
<path d="M320.373 99.7835C321.235 99.7835 321.979 99.5445 322.639 98.7096C322.707 98.6234 322.832 98.6076 322.921 98.6709L324.068 99.4794C324.164 99.548 324.187 99.6833 324.115 99.7765C323.195 100.959 321.953 101.524 320.292 101.524C317.577 101.524 315.588 99.5849 315.588 96.6337C315.588 93.6825 317.487 91.6172 320.104 91.6172C322.721 91.6172 324.594 93.6544 324.594 96.6688V97.0063C324.594 97.1223 324.501 97.2155 324.385 97.2155H317.97C317.84 97.2155 317.742 97.3315 317.763 97.4598C317.984 98.859 318.805 99.7818 320.375 99.7818L320.373 99.7835ZM318.044 95.6019H322.163C322.3 95.6019 322.4 95.4718 322.367 95.34C322.044 94.0692 321.194 93.3591 320.095 93.3591C318.997 93.3591 318.172 94.0323 317.842 95.34C317.808 95.4718 317.909 95.6019 318.045 95.6019H318.044Z" fill="white"/>
<path d="M39.278 84.2349C39.3991 84.3052 39.5202 84.3737 39.6413 84.444C39.7449 84.502 39.8484 84.56 39.952 84.618C40.0678 84.6848 40.1837 84.7516 40.2995 84.8184C40.4013 84.8764 40.5049 84.9344 40.6067 84.9924C40.7243 85.0592 40.8401 85.1278 40.9577 85.1946C41.056 85.2508 41.1543 85.3071 41.2543 85.3633C41.3754 85.4319 41.4948 85.5022 41.6159 85.5707C41.7142 85.627 41.8125 85.6832 41.9125 85.7395C42.0336 85.808 42.1548 85.8783 42.2741 85.9469C42.3584 85.9943 42.4426 86.0418 42.5251 86.0892C42.6409 86.156 42.7568 86.2228 42.8726 86.2896C42.9604 86.3388 43.0482 86.3881 43.1359 86.439C43.2535 86.5058 43.3694 86.5744 43.487 86.6412C43.5747 86.6904 43.6625 86.7396 43.7502 86.7888C43.8661 86.8556 43.9819 86.9224 44.0978 86.9892C44.182 87.0367 44.2645 87.0841 44.3488 87.1316C44.4699 87.2001 44.5892 87.2704 44.7103 87.339C44.8086 87.3952 44.9069 87.4515 45.0052 87.5077C45.0351 87.5253 45.0666 87.5376 45.0912 87.564C45.1491 87.6237 45.1333 87.7327 45.0614 87.7731C44.8946 87.868 44.7279 87.9665 44.5611 88.0614C44.426 88.1387 44.2908 88.2143 44.1557 88.2899C44.01 88.3725 43.8643 88.4586 43.7186 88.5413C43.5993 88.6098 43.4782 88.6766 43.3588 88.7452C43.2131 88.8278 43.0675 88.9139 42.9218 88.9965C42.8024 89.0651 42.6831 89.1301 42.5637 89.1986C42.418 89.2812 42.2724 89.3674 42.1267 89.45C42.0231 89.5098 41.9196 89.566 41.816 89.624C41.7002 89.6908 41.5843 89.7593 41.4685 89.8244C41.3649 89.8841 41.2614 89.9404 41.1578 89.9984C41.042 90.0652 40.9261 90.132 40.8103 90.1988C40.7085 90.2568 40.6049 90.3148 40.5031 90.3728C40.3855 90.4396 40.2697 90.5081 40.1521 90.5749C40.0538 90.6312 39.9555 90.6874 39.8554 90.7437C39.7343 90.8122 39.615 90.8825 39.4939 90.9511C39.4289 90.988 39.3657 91.0249 39.3008 91.0601C39.2429 91.0917 39.1428 91.0759 39.1165 91.002C39.1147 90.9968 39.1147 90.988 39.106 90.988V89.3797C39.1147 89.3287 39.1481 89.3023 39.192 89.2865C39.3131 89.2426 39.4289 89.1881 39.5377 89.1195C39.6711 89.0352 39.7905 88.935 39.8976 88.8172C40.0432 88.659 40.1521 88.4797 40.231 88.2794C40.2942 88.1194 40.3293 87.9524 40.3434 87.7802C40.3644 87.4954 40.3153 87.223 40.203 86.9611C40.1292 86.7906 40.0274 86.6376 39.9028 86.4988C39.7449 86.323 39.5588 86.1877 39.3464 86.0875C39.2973 86.0646 39.2446 86.0453 39.1937 86.026C39.1498 86.0102 39.1147 85.982 39.1077 85.9328V84.3245C39.1182 84.277 39.1463 84.2489 39.1937 84.2384C39.2218 84.2384 39.2516 84.2384 39.2797 84.2384L39.278 84.2349Z" fill="white"/>
<path d="M16.5919 91.9141C17.8205 91.9141 18.735 92.3922 19.3265 92.9652C19.4546 93.09 19.667 93.0021 19.667 92.8246V92.2603C19.667 92.1496 19.7565 92.06 19.8671 92.06H21.3187C21.4292 92.06 21.5188 92.1496 21.5188 92.2603V100.743C21.5188 100.854 21.4292 100.943 21.3187 100.943H19.8671C19.7565 100.943 19.667 100.854 19.667 100.743V100.151C19.667 99.9714 19.4546 99.8853 19.3265 100.01C18.7192 100.604 17.7819 101.088 16.5603 101.088C14.2592 101.088 12.4075 99.2015 12.4075 96.4613C12.4075 93.721 14.2592 91.9158 16.5919 91.9158V91.9141ZM16.978 93.5101C15.609 93.5101 14.2891 94.5418 14.2891 96.4595C14.2891 98.3772 15.609 99.4898 16.978 99.4898C18.3471 99.4898 19.6653 98.4106 19.6653 96.4911C19.6653 94.5717 18.3611 93.5083 16.978 93.5083V93.5101Z" fill="white"/>
<path d="M24.1305 89.014H25.5663C25.6769 89.014 25.7664 89.1036 25.7664 89.2143V95.3927C25.7664 95.579 25.9998 95.6651 26.1192 95.521L28.9257 92.1339C28.9644 92.0882 29.0205 92.0618 29.0802 92.0618H31.0741C31.2479 92.0618 31.3392 92.2692 31.2216 92.3976L27.5655 96.3753C27.4952 96.4526 27.4952 96.5704 27.5655 96.6459L31.2198 100.608C31.3374 100.736 31.2479 100.944 31.0724 100.944H29.1416C29.0837 100.944 29.0275 100.919 28.9907 100.873L26.1174 97.5301C25.9963 97.3895 25.7664 97.4756 25.7664 97.6601V100.741C25.7664 100.852 25.6769 100.942 25.5663 100.942H24.1305C24.0199 100.942 23.9304 100.852 23.9304 100.741V89.2126C23.9304 89.1018 24.0199 89.0122 24.1305 89.0122V89.014Z" fill="white"/>
<path d="M32.9381 93.5594H32.2904C32.1798 93.5594 32.0903 93.4697 32.0903 93.359V92.2604C32.0903 92.1497 32.1798 92.06 32.2904 92.06H32.9381C33.0487 92.06 33.1382 91.9704 33.1382 91.8596V90.051C33.1382 89.9402 33.2277 89.8506 33.3383 89.8506H34.7898C34.9004 89.8506 34.9899 89.9402 34.9899 90.051V91.8596C34.9899 91.9704 35.0795 92.06 35.19 92.06H39.3429C39.4534 92.06 39.5429 92.1497 39.5429 92.2604V93.359C39.5429 93.4697 39.4534 93.5594 39.3429 93.5594H35.19C35.0795 93.5594 34.9899 93.649 34.9899 93.7597V98.4757C34.9899 99.1366 35.248 99.4108 36.0202 99.4108H36.947C37.0576 99.4108 37.1471 99.5004 37.1471 99.6112V100.743C37.1471 100.854 37.0576 100.943 36.947 100.943H35.6973C34.1194 100.943 33.1382 100.283 33.1382 98.4774V93.7615C33.1382 93.6508 33.0487 93.5611 32.9381 93.5611V93.5594Z" fill="white"/>
<path d="M39.0341 92.0601H40.4698C40.5804 92.0601 40.6699 92.1497 40.6699 92.2604V100.743C40.6699 100.854 40.5804 100.944 40.4698 100.944H39.0341C38.9235 100.944 38.834 100.854 38.834 100.743V92.2604C38.834 92.1497 38.9235 92.0601 39.0341 92.0601Z" fill="white"/>
<path d="M46.8991 101.051C44.3558 101.051 42.4724 99.2455 42.4724 96.456C42.4724 93.6665 44.275 91.8789 46.8991 91.8789C49.5231 91.8789 51.2134 93.6366 51.2134 96.2468C51.2134 96.4947 51.2028 96.7319 51.173 96.9763C51.1607 97.0765 51.0747 97.1503 50.9746 97.1503H44.5997C44.4751 97.1503 44.3821 97.2628 44.4014 97.3858C44.6155 98.7129 45.6213 99.5039 46.8991 99.5039C47.9662 99.5039 48.5858 99.0117 48.9368 98.3701C48.9719 98.3051 49.0386 98.2629 49.1141 98.2629H50.6868C50.829 98.2629 50.9255 98.4088 50.8711 98.5406C50.3006 99.9556 48.9404 101.051 46.8991 101.051ZM44.6261 95.6668H49.0825C49.2019 95.6668 49.2949 95.5613 49.2826 95.4418C49.144 94.2026 48.1101 93.4257 46.8183 93.4257C45.6528 93.4257 44.7015 94.1657 44.4312 95.4189C44.4031 95.5455 44.4979 95.665 44.6261 95.665V95.6668Z" fill="white"/>
<path d="M61.4639 95.941C61.4639 94.3133 60.5792 93.4749 59.2435 93.4749C57.9078 93.4749 57.0056 94.3133 57.0056 95.941V100.706C57.0056 100.817 56.9161 100.907 56.8055 100.907H55.3698C55.2592 100.907 55.1697 100.817 55.1697 100.706V92.2234C55.1697 92.1127 55.2592 92.023 55.3698 92.023H56.8055C56.9161 92.023 57.0056 92.1127 57.0056 92.2234V92.5504C57.0056 92.7226 57.2075 92.8123 57.3374 92.6998C57.9341 92.1812 58.7626 91.8789 59.6455 91.8789C61.7219 91.8789 63.284 93.1849 63.284 95.6668V100.706C63.284 100.817 63.1945 100.907 63.0839 100.907H61.6639C61.5534 100.907 61.4639 100.817 61.4639 100.706V95.941Z" fill="white"/>
<path d="M69.4642 101.051C66.9367 101.051 65.0217 99.2455 65.0217 96.456C65.0217 93.6665 67.0174 91.8789 69.5449 91.8789C72.0724 91.8789 74.0681 93.6683 74.0681 96.456C74.0681 99.2437 72.0075 101.051 69.4642 101.051ZM69.4642 99.4546C70.8315 99.4546 72.1847 98.4721 72.1847 96.456C72.1847 94.4399 70.8806 93.4732 69.5133 93.4732C68.146 93.4732 66.8893 94.4399 66.8893 96.456C66.8893 98.4721 68.0811 99.4546 69.4642 99.4546Z" fill="white"/>
<path d="M75.1105 92.025H76.5516C76.6428 92.025 76.7218 92.0865 76.7446 92.1744L78.3647 98.4266C78.4156 98.6252 78.6982 98.627 78.7509 98.4266L80.4007 92.1726C80.4236 92.0848 80.5026 92.0232 80.5938 92.0232H82.1998C82.2911 92.0232 82.3701 92.0848 82.3929 92.1744L83.9656 98.3756C84.0165 98.576 84.3008 98.576 84.3517 98.3756L85.9525 92.1726C85.9753 92.0848 86.0543 92.0232 86.1455 92.0232H87.5234C87.6585 92.0232 87.7533 92.1533 87.7147 92.2816L85.0854 100.764C85.0591 100.849 84.9818 100.905 84.8941 100.905H83.2617C83.1722 100.905 83.0932 100.845 83.0687 100.757L81.5153 95.0518C81.4627 94.8549 81.1836 94.8549 81.1309 95.0518L79.5776 100.757C79.5547 100.843 79.4758 100.905 79.3845 100.905H77.7521C77.6644 100.905 77.5872 100.849 77.5608 100.764L74.9175 92.2816C74.8771 92.1533 74.9736 92.0215 75.1088 92.0215L75.1105 92.025Z" fill="white"/>
<path d="M113.715 101.123C112.872 101.123 112.119 100.915 111.456 100.499C110.792 100.082 110.267 99.5162 109.881 98.7991C109.495 98.082 109.302 97.2787 109.302 96.3893C109.302 95.4999 109.495 94.6966 109.881 93.9795C110.267 93.2623 110.792 92.6963 111.456 92.2797C112.119 91.8632 112.872 91.6558 113.715 91.6558C114.557 91.6558 115.257 91.821 115.921 92.1497C116.555 92.4643 117.042 92.8862 117.386 93.417C117.416 93.4627 117.411 93.5224 117.378 93.5646L116.548 94.5859C116.497 94.6474 116.405 94.6439 116.356 94.5823C116.188 94.3644 115.981 94.164 115.738 93.9795C115.451 93.7597 115.143 93.5875 114.82 93.4592C114.497 93.3326 114.185 93.2693 113.885 93.2693C113.33 93.2693 112.837 93.4047 112.405 93.6771C111.972 93.9496 111.629 94.3222 111.375 94.795C111.12 95.2696 110.994 95.8004 110.994 96.3893C110.994 96.9781 111.127 97.5072 111.392 97.9747C111.657 98.4423 112.01 98.8149 112.449 99.0926C112.888 99.3704 113.372 99.5092 113.902 99.5092C114.215 99.5092 114.517 99.4565 114.812 99.3528C115.106 99.2491 115.391 99.0926 115.668 98.8852C115.909 98.7042 116.137 98.488 116.353 98.2366C116.402 98.1786 116.493 98.1769 116.54 98.2366L117.372 99.2596C117.408 99.3036 117.411 99.3686 117.376 99.4125C117.009 99.8977 116.5 100.298 115.849 100.617C115.163 100.952 114.45 101.119 113.711 101.119L113.715 101.123Z" fill="white"/>
<path d="M125.782 92.0318V92.6874C125.782 92.8562 125.573 92.9335 125.462 92.8052C125.352 92.6787 125.231 92.5591 125.099 92.4466C124.804 92.1988 124.462 92.0055 124.069 91.8666C123.676 91.7277 123.244 91.6592 122.77 91.6592C121.973 91.6592 121.255 91.8613 120.614 92.2656C119.974 92.6699 119.467 93.2271 119.091 93.9389C118.715 94.6491 118.529 95.4611 118.529 96.3751C118.529 97.2891 118.714 98.0854 119.084 98.8025C119.453 99.5197 119.946 100.086 120.564 100.502C121.181 100.919 121.864 101.126 122.615 101.126C123.054 101.126 123.472 101.058 123.87 100.919C124.269 100.78 124.632 100.595 124.96 100.363C125.289 100.133 125.561 99.8695 125.775 99.5742C125.778 99.5706 125.78 99.5654 125.784 99.5619V100.771C125.784 100.871 125.866 100.954 125.966 100.954H127.402C127.502 100.954 127.584 100.871 127.584 100.771V92.0353C127.584 91.9351 127.502 91.8525 127.402 91.8525H125.966C125.866 91.8525 125.784 91.9351 125.784 92.0353L125.782 92.0318ZM125.496 97.9764C125.259 98.4439 124.932 98.8113 124.518 99.0767C124.102 99.3421 123.623 99.4757 123.081 99.4757C122.538 99.4757 122.08 99.3439 121.669 99.0767C121.26 98.8113 120.936 98.4439 120.7 97.9764C120.464 97.5088 120.346 96.9745 120.346 96.3734C120.346 95.7722 120.464 95.259 120.7 94.7949C120.937 94.3327 121.26 93.9688 121.669 93.7034C122.078 93.438 122.549 93.3044 123.081 93.3044C123.612 93.3044 124.102 93.438 124.518 93.7034C124.934 93.9688 125.259 94.3327 125.496 94.7949C125.733 95.2572 125.85 95.7828 125.85 96.3734C125.85 96.964 125.733 97.5088 125.496 97.9764Z" fill="white"/>
<path d="M130.108 100.83V88.2443C130.108 88.1775 130.163 88.123 130.23 88.123H131.771C131.837 88.123 131.892 88.1775 131.892 88.2443V100.83C131.892 100.896 131.837 100.951 131.771 100.951H130.23C130.163 100.951 130.108 100.896 130.108 100.83Z" fill="white"/>
<path d="M134.454 100.761V88.3109C134.454 88.2072 134.538 88.1211 134.644 88.1211H136.05C136.153 88.1211 136.239 88.2055 136.239 88.3109V100.761C136.239 100.864 136.155 100.951 136.05 100.951H134.644C134.54 100.951 134.454 100.866 134.454 100.761Z" fill="white"/>
<path d="M148.889 91.9601L147.023 97.6533C146.978 97.7922 146.785 97.8027 146.725 97.6691L144.778 93.3821C144.752 93.3241 144.696 93.2872 144.633 93.2872H143.767C143.704 93.2872 143.646 93.3241 143.622 93.3821L141.654 97.7342C141.594 97.8678 141.401 97.8572 141.356 97.7184L139.478 91.9443C139.457 91.8775 139.393 91.8318 139.323 91.8335L137.863 91.8476C137.754 91.8476 137.677 91.9566 137.712 92.0603L140.701 100.842C140.724 100.907 140.784 100.951 140.854 100.951H141.844C141.909 100.951 141.968 100.912 141.993 100.851L143.98 96.0063C144.034 95.8745 144.218 95.8728 144.275 96.0028L146.391 100.854C146.418 100.912 146.474 100.951 146.539 100.951H147.548C147.617 100.951 147.678 100.907 147.701 100.842L150.657 92.062C150.692 91.9583 150.614 91.8494 150.504 91.8494H149.044C148.973 91.8494 148.912 91.8933 148.891 91.9601H148.889Z" fill="white"/>
<path d="M160.298 96.0608C160.308 95.4245 160.214 94.8392 160.012 94.3013C159.81 93.7635 159.52 93.2994 159.146 92.9057C158.771 92.5137 158.33 92.2044 157.823 91.9776C157.316 91.7526 156.766 91.6401 156.178 91.6401C155.51 91.6401 154.888 91.7579 154.318 91.9952C153.747 92.2325 153.256 92.5664 152.847 93.0006C152.438 93.4348 152.117 93.9463 151.887 94.5351C151.655 95.1239 151.541 95.7778 151.541 96.4932C151.541 97.3949 151.746 98.1929 152.155 98.8854C152.564 99.578 153.129 100.125 153.851 100.524C154.572 100.923 155.401 101.121 156.334 101.121C156.761 101.121 157.198 101.061 157.642 100.938C158.086 100.817 158.507 100.652 158.906 100.445C159.257 100.262 159.561 100.051 159.817 99.8135C159.877 99.759 159.884 99.6659 159.836 99.6008L159.12 98.5936C159.066 98.5163 158.957 98.5058 158.885 98.5655C158.486 98.8977 158.113 99.1315 157.765 99.2651C157.379 99.4163 156.959 99.4901 156.51 99.4901C155.875 99.4901 155.316 99.3635 154.83 99.1086C154.346 98.8538 153.97 98.4935 153.705 98.0259C153.533 97.7218 153.416 97.3808 153.356 97.0064C153.34 96.9098 153.419 96.8219 153.517 96.8219H160.126C160.213 96.8219 160.285 96.7516 160.287 96.6637L160.301 96.059L160.298 96.0608ZM154.604 93.6422C155.03 93.4049 155.555 93.2871 156.178 93.2871C156.57 93.2871 156.933 93.3732 157.268 93.5473C157.604 93.7213 157.879 93.9568 158.098 94.2574C158.318 94.5579 158.444 94.8989 158.479 95.2804V95.4016H153.602C153.495 95.4016 153.419 95.2979 153.447 95.1942C153.496 95.0114 153.558 94.8392 153.633 94.6827C153.853 94.2257 154.176 93.8795 154.602 93.6422H154.604Z" fill="white"/>
<path d="M104.015 100.942C104.384 100.995 104.721 100.85 104.937 100.597C105.065 100.448 105.258 100.372 105.455 100.372H105.541C105.737 100.372 105.93 100.448 106.058 100.597C106.274 100.85 106.611 100.996 106.98 100.942C107.427 100.877 107.784 100.508 107.836 100.058C107.907 99.4424 107.429 98.9204 106.829 98.9204C106.524 98.9204 106.251 99.0558 106.065 99.2684C105.937 99.4161 105.749 99.5005 105.553 99.5005H105.442C105.246 99.5005 105.06 99.4161 104.93 99.2684C104.744 99.054 104.472 98.9204 104.166 98.9204C103.566 98.9204 103.087 99.4424 103.159 100.058C103.211 100.508 103.568 100.877 104.015 100.942Z" fill="white"/>
<path d="M104.015 91.7614C104.384 91.7086 104.721 91.8528 104.937 92.1059C105.065 92.2553 105.258 92.3309 105.455 92.3309H105.541C105.737 92.3309 105.93 92.2553 106.058 92.1059C106.274 91.8528 106.611 91.7069 106.98 91.7614C107.427 91.8264 107.784 92.1955 107.836 92.6455C107.907 93.2607 107.429 93.7827 106.829 93.7827C106.524 93.7827 106.251 93.6474 106.065 93.4347C105.937 93.2871 105.749 93.2027 105.553 93.2027H105.442C105.246 93.2027 105.06 93.2871 104.93 93.4347C104.744 93.6491 104.472 93.7827 104.166 93.7827C103.566 93.7827 103.087 93.2607 103.159 92.6455C103.211 92.1955 103.568 91.8264 104.015 91.7614Z" fill="white"/>
<path d="M101.669 97.3578C102.037 97.4105 102.374 97.2664 102.59 97.0133C102.718 96.8639 102.911 96.7883 103.108 96.7883H103.194C103.391 96.7883 103.584 96.8639 103.712 97.0133C103.928 97.2664 104.265 97.4123 104.633 97.3578C105.081 97.2928 105.437 96.9236 105.49 96.4737C105.56 95.8585 105.083 95.3364 104.482 95.3364C104.177 95.3364 103.905 95.4718 103.719 95.6844C103.591 95.8321 103.403 95.9165 103.206 95.9165H103.096C102.899 95.9165 102.713 95.8321 102.583 95.6844C102.397 95.47 102.125 95.3364 101.82 95.3364C101.219 95.3364 100.74 95.8585 100.812 96.4737C100.865 96.9236 101.221 97.2928 101.669 97.3578Z" fill="white"/>
<path d="M178.494 101.179C177.697 101.179 176.993 101.042 176.383 100.768C175.772 100.493 175.3 100.038 174.963 99.4019C174.626 98.7656 174.459 97.9114 174.459 96.8392C174.459 95.767 174.64 94.8846 175.001 94.1551C175.363 93.4257 175.863 92.8738 176.506 92.4994C177.148 92.125 177.873 91.9387 178.682 91.9387C179.217 91.9387 179.695 92.0019 180.111 92.125C180.528 92.2498 180.929 92.4431 181.317 92.705V88.5551C181.317 88.4602 181.394 88.3828 181.489 88.3828H183.182C183.277 88.3828 183.354 88.4602 183.354 88.5551V100.84C183.354 100.926 183.286 100.994 183.2 100.994H181.75C181.673 100.994 181.608 100.938 181.597 100.863L181.487 100.116C181.088 100.478 180.651 100.745 180.179 100.921C179.705 101.095 179.145 101.182 178.498 101.182L178.494 101.179ZM179.035 99.6462C179.944 99.6462 180.704 99.3351 181.315 98.7111V94.2764C180.729 93.7526 179.995 93.4907 179.11 93.4907C178.226 93.4907 177.603 93.7772 177.167 94.352C176.732 94.925 176.514 95.7617 176.514 96.8585C176.514 97.9553 176.716 98.6478 177.122 99.0468C177.525 99.4458 178.164 99.6462 179.037 99.6462H179.035Z" fill="white"/>
<path d="M185.705 100.771V92.2322C185.705 92.1426 185.778 92.0687 185.868 92.0687H187.572L187.685 93.097C188.108 92.8228 188.613 92.5732 189.198 92.3482C189.712 92.1513 190.221 92.0072 190.726 91.9158C190.835 91.8965 190.935 91.9826 190.935 92.0933V93.2868C190.935 93.373 190.875 93.445 190.793 93.4608C190.484 93.5206 190.156 93.6032 189.805 93.7052C189.399 93.8247 189.017 93.9548 188.655 94.0989C188.294 94.243 187.988 94.3889 187.739 94.5383V100.771C187.739 100.863 187.665 100.936 187.574 100.936H185.868C185.777 100.936 185.703 100.863 185.703 100.771H185.705Z" fill="white"/>
<path d="M196.281 100.977C194.688 100.977 193.519 100.578 192.778 99.7799C192.037 98.9819 191.667 97.8411 191.667 96.3559C191.667 94.8706 192.041 93.7299 192.789 92.9319C193.536 92.1339 194.7 91.7349 196.283 91.7349C197.866 91.7349 199.049 92.1339 199.795 92.9319C200.543 93.7299 200.917 94.8706 200.917 96.3559C200.917 97.8411 200.547 98.9819 199.806 99.7799C199.065 100.578 197.891 100.977 196.283 100.977H196.281ZM196.281 99.2561C197.215 99.2561 197.879 99.0294 198.272 98.5724C198.665 98.1171 198.86 97.3789 198.86 96.3559C198.86 95.3329 198.663 94.5964 198.272 94.1482C197.879 93.7 197.215 93.475 196.281 93.475C195.348 93.475 194.702 93.7 194.31 94.1482C193.917 94.5964 193.722 95.3329 193.722 96.3559C193.722 97.3789 193.919 98.1171 194.31 98.5724C194.704 99.0276 195.36 99.2561 196.281 99.2561Z" fill="white"/>
<path d="M202.147 100.762V99.9204C202.147 99.887 202.158 99.8536 202.175 99.8238L206.225 93.7298H202.783C202.646 93.7298 202.563 93.5769 202.639 93.4608L203.506 92.1408C203.537 92.0916 203.592 92.0635 203.65 92.0635H209.33C209.468 92.0635 209.551 92.2182 209.472 92.3342L208.805 93.3167L204.741 99.2666L209.051 99.3545C209.187 99.358 209.268 99.5126 209.189 99.6251L208.341 100.857C208.31 100.905 208.255 100.933 208.199 100.933H202.316C202.221 100.933 202.144 100.856 202.144 100.761L202.147 100.762Z" fill="white"/>
<path opacity="0.6" fill-rule="evenodd" clip-rule="evenodd" d="M217.291 91.8421H211.471C211.32 91.8421 211.23 92.0108 211.314 92.1356L214.2 96.4086L217.291 91.8403V91.8421Z" fill="white"/>
<path opacity="0.6" fill-rule="evenodd" clip-rule="evenodd" d="M211.464 100.977H217.284L214.2 96.4087L211.308 100.682C211.224 100.806 211.313 100.975 211.464 100.975V100.977Z" fill="white"/>
<path fill-rule="evenodd" clip-rule="evenodd" d="M217.291 91.8423L214.2 96.4106L217.291 100.979L220.31 96.5178C220.354 96.4545 220.354 96.3701 220.31 96.3069L217.291 91.8458V91.8423Z" fill="white"/>
<path d="M15.0122 37.2302C16.7481 33.9784 19.1528 31.4719 22.2226 29.7072C25.2925 27.9442 28.817 27.0601 32.7943 27.0601C37.8282 27.0601 41.9933 28.2588 45.2913 30.6511C48.2067 32.7691 50.2849 35.6851 51.5276 39.3974C51.7733 40.1304 51.245 40.8968 50.4727 40.8968H43.4343C42.9815 40.8968 42.5883 40.6138 42.4058 40.1989C41.6458 38.4641 40.5295 37.0843 39.0603 36.0578C37.3999 34.8995 35.3095 34.3194 32.7925 34.3194C29.268 34.3194 26.4615 35.5674 24.3728 38.0616C22.2841 40.5575 21.2397 44.0483 21.2397 48.534C21.2397 53.0197 22.2841 56.5246 24.3728 59.0451C26.4615 61.5674 29.268 62.826 32.7925 62.826C37.5035 62.826 40.7067 60.8661 42.404 56.9464C42.5848 56.5298 42.9797 56.2469 43.4326 56.2469H50.4288C51.2117 56.2469 51.7452 57.0343 51.4767 57.7708C50.1901 61.2968 48.0891 64.153 45.1755 66.3414C41.8529 68.8373 37.7246 70.0836 32.7925 70.0836C28.8152 70.0836 25.2907 69.1889 22.2209 67.3995C19.1493 65.6119 16.7464 63.0896 15.0105 59.8379C13.2746 56.5861 12.4058 52.8193 12.4058 48.534C12.4058 44.2487 13.2746 40.4802 15.0105 37.2284L15.0122 37.2302Z" fill="#A30084"/>
<path d="M65.9711 67.4013C62.7994 65.6137 60.3088 63.0914 58.4957 59.8396C56.6843 56.5878 55.7769 52.8211 55.7769 48.5358C55.7769 44.2505 56.7071 40.547 58.5711 37.2688C60.4334 33.9925 62.975 31.4719 66.1975 29.7072C69.4183 27.9442 73.0183 27.0601 76.9956 27.0601C80.9729 27.0601 84.571 27.9424 87.7936 29.7072C91.0144 31.4719 93.556 33.9925 95.42 37.2688C97.2823 40.547 98.2143 44.3014 98.2143 48.5358C98.2143 52.7701 97.2577 56.5263 95.3445 59.8027C93.4313 63.0808 90.8266 65.6137 87.5303 67.4013C84.2323 69.1906 80.5955 70.0853 76.62 70.0853C72.6444 70.0853 69.1445 69.1906 65.9729 67.4013H65.9711ZM82.8474 61.012C84.7852 59.9539 86.3578 58.3649 87.5672 56.2486C88.7765 54.1306 89.3786 51.5608 89.3786 48.5358C89.3786 45.5108 88.7993 42.9533 87.6427 40.8598C86.4842 38.7682 84.9502 37.1915 83.037 36.1334C81.1238 35.0752 79.0597 34.5444 76.8446 34.5444C74.6295 34.5444 72.5795 35.0735 70.6909 36.1334C68.8023 37.1915 67.3051 38.7682 66.1975 40.8598C65.09 42.9515 64.5371 45.5108 64.5371 48.5358C64.5371 53.0232 65.6815 56.4877 67.972 58.9326C70.2626 61.3776 73.1446 62.5992 76.6182 62.5992C78.8333 62.5992 80.9097 62.0701 82.8474 61.012Z" fill="#A30084"/>
<path d="M105.009 37.269C106.745 34.0436 109.111 31.5354 112.107 29.746C115.101 27.9567 118.412 27.062 122.036 27.062C125.308 27.062 128.164 27.7053 130.605 28.9902C132.257 29.8603 133.682 30.8727 134.884 32.0311C135.476 32.6006 136.457 32.1682 136.457 31.3473V28.6826C136.457 28.1641 136.876 27.7422 137.396 27.7422H144.203C144.72 27.7422 145.142 28.1623 145.142 28.6826V68.4666C145.142 68.9852 144.722 69.407 144.203 69.407H137.396C136.878 69.407 136.457 68.9869 136.457 68.4666V65.6842C136.457 64.8598 135.47 64.4292 134.881 65.004C133.659 66.1939 132.197 67.2327 130.491 68.1204C127.972 69.4299 125.104 70.0855 121.883 70.0855C118.308 70.0855 115.036 69.1662 112.067 67.3259C109.097 65.4856 106.743 62.9158 105.007 59.6131C103.271 56.3121 102.402 52.5682 102.402 48.3848C102.402 44.2014 103.271 40.4962 105.007 37.269H105.009ZM134.684 41.0499C133.501 38.9318 131.951 37.32 130.04 36.2091C128.125 35.1018 126.063 34.5463 123.847 34.5463C121.632 34.5463 119.568 35.0895 117.655 36.1722C115.74 37.2567 114.194 38.8439 113.011 40.9356C111.828 43.0273 111.236 45.5109 111.236 48.383C111.236 51.2551 111.828 53.7775 113.011 55.9447C114.194 58.1137 115.754 59.7642 117.692 60.8979C119.63 62.0317 121.682 62.5994 123.846 62.5994C126.01 62.5994 128.123 62.0457 130.038 60.9366C131.95 59.8293 133.499 58.2034 134.682 56.059C135.865 53.9163 136.457 51.4081 136.457 48.536C136.457 45.6639 135.865 43.1679 134.682 41.0499H134.684Z" fill="white"/>
<path d="M171.003 49.1792L188.358 67.9972C188.853 68.5351 188.474 69.4052 187.742 69.4052H178.413C178.169 69.4052 177.938 69.2979 177.778 69.1134L164.098 53.1973C163.591 52.6067 162.625 52.9671 162.625 53.744V68.565C162.625 69.029 162.25 69.4034 161.788 69.4034H154.857C154.393 69.4034 154.02 69.0273 154.02 68.565V14.2886C154.02 13.8246 154.395 13.4502 154.857 13.4502H161.788C162.251 13.4502 162.625 13.8263 162.625 14.2886V43.6389C162.625 44.4246 163.606 44.7796 164.108 44.175L177.476 28.0445C177.636 27.8529 177.871 27.7404 178.12 27.7404H187.748C188.478 27.7404 188.859 28.6105 188.364 29.1483L171.001 48.042C170.706 48.3636 170.706 48.8593 171.001 49.1792H171.003Z" fill="white"/>
<path d="M231.707 27.7406H207.041C206.405 27.7406 205.891 27.2256 205.891 26.5893V18.5302C205.891 17.8957 205.377 17.3789 204.742 17.3789H198.356C197.721 17.3789 197.206 17.8939 197.206 18.5302V26.5893C197.206 27.2238 196.692 27.7406 196.057 27.7406H193.447C192.811 27.7406 192.297 28.2556 192.297 28.8919V33.6237C192.297 34.2582 192.811 34.775 193.447 34.775H196.057C196.692 34.775 197.206 35.29 197.206 35.9263V57.8379C197.206 61.9211 198.237 64.8705 200.303 66.6845C202.365 68.4984 205.335 69.4072 209.212 69.4072H214.859C215.494 69.4072 216.008 68.8921 216.008 68.2559V63.3729C216.008 62.7384 215.494 62.2216 214.859 62.2216H210.722C208.959 62.2216 207.713 61.8806 206.983 61.2004C206.253 60.5202 205.888 59.3987 205.888 57.8361V35.9245C205.888 35.29 206.402 34.7732 207.037 34.7732H223.937V68.5635C223.937 69.0275 224.312 69.4054 224.777 69.4054H231.705C232.168 69.4054 232.546 69.0292 232.546 68.5635V28.5826C232.546 28.1185 232.17 27.7406 231.705 27.7406H231.707Z" fill="white"/>
<path d="M248.824 67.4013C245.652 65.6137 243.161 63.0914 241.348 59.8396C239.537 56.5878 238.629 52.8211 238.629 48.5358C238.629 44.2505 239.56 40.547 241.424 37.2688C243.286 33.9925 245.828 31.4719 249.05 29.7072C252.271 27.9442 255.871 27.0601 259.848 27.0601C263.825 27.0601 267.424 27.9424 270.646 29.7072C273.867 31.4719 276.408 33.9925 278.273 37.2688C280.135 40.547 281.067 44.3014 281.067 48.5358C281.067 52.7701 280.11 56.5263 278.197 59.8027C276.284 63.0808 273.679 65.6137 270.383 67.4013C267.085 69.1906 263.448 70.0853 259.472 70.0853C255.497 70.0853 251.997 69.1906 248.825 67.4013H248.824ZM265.7 61.012C267.638 59.9539 269.21 58.3649 270.42 56.2486C271.629 54.1306 272.231 51.5608 272.231 48.5358C272.231 45.5108 271.652 42.9533 270.495 40.8598C269.337 38.7682 267.803 37.1915 265.89 36.1334C263.976 35.0752 261.912 34.5444 259.697 34.5444C257.482 34.5444 255.432 35.0735 253.543 36.1334C251.655 37.1915 250.158 38.7682 249.05 40.8598C247.943 42.9515 247.39 45.5108 247.39 48.5358C247.39 53.0232 248.534 56.4877 250.825 58.9326C253.115 61.3776 255.997 62.5992 259.471 62.5992C261.686 62.5992 263.762 62.0701 265.7 61.012Z" fill="white"/>
<path d="M316.324 29.101C318.916 30.4614 320.942 32.4793 322.402 35.151C323.861 37.8227 324.592 41.0499 324.592 44.829V68.5176C324.592 69.0063 324.196 69.4035 323.708 69.4035H316.945C316.457 69.4035 316.06 69.0063 316.06 68.5176V46.1138C316.06 42.384 315.128 39.5242 313.268 37.5327C311.404 35.5412 308.862 34.5463 305.641 34.5463C302.421 34.5463 299.865 35.543 297.978 37.5327C296.09 39.5242 295.147 42.384 295.147 46.1138V68.5176C295.147 69.0063 294.75 69.4035 294.262 69.4035H287.424C286.936 69.4035 286.54 69.0063 286.54 68.5176V28.6264C286.54 28.1377 286.936 27.7405 287.424 27.7405H294.262C294.75 27.7405 295.147 28.1377 295.147 28.6264V30.3173C295.147 31.096 296.056 31.4739 296.639 30.9589C297.762 29.9657 299.065 29.1449 300.546 28.4981C302.735 27.5401 305.062 27.062 307.53 27.062C310.802 27.062 313.733 27.7422 316.327 29.1027L316.324 29.101Z" fill="white"/>
</svg>
