<svg width="125" height="28" viewBox="0 0 125 28" fill="none" xmlns="http://www.w3.org/2000/svg">
<g clip-path="url(#clip0_425_609)">
<path d="M25.836 25.0979C23.4734 26.5506 20.4181 27.5377 17.6211 27.8536C6.81479 29.0738 -1.5111 22.5674 0.230686 11.5307C2.00947 0.260985 15.2626 -2.88871 24.2614 2.70341L25.305 3.56964L21.8666 7.02456C21.5788 7.15146 20.8895 6.50829 20.5469 6.32396C14.6234 3.13485 6.46054 5.14382 5.80206 12.4684C5.09904 20.2812 10.1072 24.3419 17.9075 23.0142C18.712 22.8772 19.674 22.5954 20.3681 22.1726V16.6867H14.6864L15.1153 11.9842H25.675C25.6866 11.9842 25.836 12.1298 25.836 12.1412V25.0986V25.0979Z" fill="white"/>
<path d="M111.278 19.926H97.5565C98.0834 22.9548 100.614 23.8617 103.505 23.5819C105.061 23.4316 106.141 22.333 107.243 21.3973C107.612 21.7533 110.551 23.7589 110.486 24.0067C110.438 24.195 109.414 25.1728 109.191 25.3625C103.624 30.097 93.8125 27.6987 92.5456 20.1604C91.2828 12.6441 97.368 7.16953 104.954 9.00619C110.19 10.2738 111.562 15.2108 111.278 19.926ZM106.132 16.0596C105.78 11.1113 98.2698 11.5849 97.5558 16.0596H106.132Z" fill="white"/>
<path d="M45.2405 27.3447H40.738L40.6297 25.673C37.1393 29.1506 28.5366 28.426 28.0899 22.693C27.7 17.6979 32.3443 16.1184 36.6117 15.8512C37.7862 15.7778 38.9784 15.9073 40.1522 15.7471C40.32 15.7244 40.3159 15.8072 40.3132 15.5881C40.2591 11.1942 33.6448 12.1986 31.4638 14.4728L28.5188 11.5134C29.7748 10.4875 31.3089 9.63533 32.889 9.19186C36.7015 8.1226 42.8676 8.37038 44.6889 12.4685C44.8615 12.8565 45.2405 13.9612 45.2405 14.3345V27.344V27.3447ZM40.3091 19.403C38.5673 19.403 34.9535 19.2748 33.6626 20.6059C32.7773 21.5188 33.2467 23.1578 34.4122 23.6353C37.0756 24.726 40.8264 22.3951 40.3091 19.403Z" fill="white"/>
<path d="M85.1201 27.3447V16.7389C85.1201 16.429 84.9323 15.4712 84.8309 15.14C84.0902 12.7296 80.6649 12.6735 79.1691 14.3866C78.6271 15.0077 78.1516 16.2466 78.1516 17.0521V27.3447H73.1133V9.05831H77.7768C77.7884 9.05831 77.9378 9.2039 77.9378 9.21526V11.2529L79.1732 10.0013C81.5659 8.15133 86.152 8.2041 88.3405 10.3607C91.6918 13.6613 89.7178 22.6195 90.2714 26.9847C90.2947 27.0916 90.194 27.3454 90.1049 27.3454H85.1201V27.3447Z" fill="white"/>
<path d="M66.0378 9.05847H70.9158C70.9534 9.05847 71.0967 9.21008 71.0562 9.29423L70.7554 13.3429H66.0385V21.7548C66.0385 22.0146 66.327 22.639 66.5174 22.8548C67.5864 24.0623 69.7489 23.2154 71.0768 22.957L70.7088 27.1425C67.8152 27.8398 63.0921 28.1724 61.5676 25.0681C61.2852 24.4937 60.8933 23.0985 60.8933 22.4861V4.04272H65.8782C65.8898 4.04272 66.0392 4.18832 66.0392 4.19968V9.05847H66.0378Z" fill="white"/>
<path d="M118.246 9.05835C118.188 9.19192 118.353 9.36758 118.353 9.42434V11.0439C118.818 10.905 119.096 10.4095 119.497 10.1216C120.29 9.55258 121.826 9.05902 122.802 9.05902H124.999L124.565 13.3374C122.182 13.1838 119.857 13.5198 118.914 15.9281C118.833 16.1352 118.567 16.8965 118.567 17.0521V27.3448H113.421V9.2153C113.421 9.20395 113.57 9.05835 113.582 9.05835H118.245H118.246Z" fill="white"/>
<path d="M53.0128 9.05835C53.319 9.15052 53.0731 10.7875 53.3341 11.1495C53.896 10.2959 54.9231 9.6581 55.9132 9.37826C56.3223 9.26272 57.235 9.05835 57.6221 9.05835H59.3913L59.0227 13.2446C58.1744 13.4236 57.3905 13.2833 56.495 13.4977C54.8827 13.8837 53.3876 15.6189 53.3876 17.2612V27.3448H48.4027C48.3911 27.3448 48.2417 27.1992 48.2417 27.1878V9.2153C48.2417 9.20395 48.3911 9.05835 48.4027 9.05835H53.0128Z" fill="white"/>
</g>
<defs>
<clipPath id="clip0_425_609">
<rect width="125" height="28" fill="white"/>
</clipPath>
</defs>
</svg>
