<svg width="32" height="32" viewBox="0 0 32 32" fill="none" xmlns="http://www.w3.org/2000/svg">
<path d="M3.26514 15.6719C3.26514 9.82327 3.26514 6.89899 5.08205 5.08205C6.89899 3.26514 9.82327 3.26514 15.6719 3.26514C21.5204 3.26514 24.4447 3.26514 26.2617 5.08205C28.0786 6.89899 28.0786 9.82327 28.0786 15.6719C28.0786 21.5204 28.0786 24.4447 26.2617 26.2617C24.4447 28.0786 21.5204 28.0786 15.6719 28.0786C9.82327 28.0786 6.89899 28.0786 5.08205 26.2617C3.26514 24.4447 3.26514 21.5204 3.26514 15.6719Z" stroke="#A30084" stroke-width="1.5" stroke-linejoin="round"/>
<path d="M21.5487 15.6718C21.5487 18.9175 18.9175 21.5487 15.6718 21.5487C12.4261 21.5487 9.79492 18.9175 9.79492 15.6718C9.79492 12.4261 12.4261 9.79492 15.6718 9.79492C18.9175 9.79492 21.5487 12.4261 21.5487 15.6718Z" stroke="#A30084" stroke-width="1.5"/>
<path d="M22.8648 8.48877H22.853" stroke="#A30084" stroke-width="2" stroke-linecap="round" stroke-linejoin="round"/>
</svg>
