<svg width="33" height="32" viewBox="0 0 33 32" fill="none" xmlns="http://www.w3.org/2000/svg">
<path d="M10.0273 13.0596V22.2014" stroke="#A30084" stroke-width="1.5" stroke-linecap="round" stroke-linejoin="round"/>
<path d="M15.2515 16.9775V22.2014M15.2515 16.9775C15.2515 14.8136 17.0055 13.0596 19.1694 13.0596C21.3332 13.0596 23.0873 14.8136 23.0873 16.9775V22.2014M15.2515 16.9775V13.0596" stroke="#A30084" stroke-width="1.5" stroke-linecap="round" stroke-linejoin="round"/>
<path d="M10.0381 9.1416H10.0264" stroke="#A30084" stroke-width="2" stroke-linecap="round" stroke-linejoin="round"/>
<path d="M4.15088 15.6719C4.15088 9.82327 4.15088 6.89899 5.9678 5.08205C7.78473 3.26514 10.709 3.26514 16.5576 3.26514C22.4061 3.26514 25.3305 3.26514 27.1474 5.08205C28.9643 6.89899 28.9643 9.82327 28.9643 15.6719C28.9643 21.5204 28.9643 24.4447 27.1474 26.2617C25.3305 28.0786 22.4061 28.0786 16.5576 28.0786C10.709 28.0786 7.78473 28.0786 5.9678 26.2617C4.15088 24.4447 4.15088 21.5204 4.15088 15.6719Z" stroke="#A30084" stroke-width="1.5" stroke-linejoin="round"/>
</svg>
