<svg width="221" height="52" viewBox="0 0 221 52" fill="none" xmlns="http://www.w3.org/2000/svg">
<path d="M7.55434 22.9117C8.71919 20.6985 10.3307 18.9917 12.391 17.7903C14.4502 16.5901 16.8133 15.9888 19.4814 15.9888C22.8574 15.9888 25.651 16.8042 27.8633 18.4337C29.8189 19.8749 31.2129 21.8601 32.0462 24.3868C32.2108 24.8864 31.8563 25.4069 31.3383 25.4069H26.6179C26.314 25.4069 26.0504 25.2151 25.9284 24.932C25.4185 23.7505 24.6703 22.8123 23.685 22.1128C22.5708 21.3231 21.17 20.9289 19.4814 20.9289C17.1183 20.9289 15.2352 21.7782 13.8344 23.4767C12.4325 25.1753 11.7326 27.5523 11.7326 30.6055C11.7326 33.6587 12.4325 36.0439 13.8344 37.76C15.2352 39.4761 17.1183 40.3336 19.4814 40.3336C22.641 40.3336 24.79 39 25.9284 36.3317C26.0493 36.0486 26.314 35.8556 26.6179 35.8556H31.3107C31.8356 35.8556 32.1935 36.3913 32.0128 36.8932C31.1495 39.2925 29.7407 41.2378 27.7862 42.727C25.5578 44.4255 22.7895 45.2748 19.4803 45.2748C16.8122 45.2748 14.4491 44.6665 12.3899 43.4476C10.3295 42.2298 8.71804 40.5137 7.55319 38.3005C6.38834 36.0872 5.80591 33.523 5.80591 30.6067C5.80591 27.6904 6.38834 25.125 7.55319 22.9117H7.55434Z" fill="#A30084" stroke="#A30084" stroke-width="0.5" stroke-miterlimit="10"/>
<path d="M41.7333 43.4476C39.6061 42.2298 37.936 40.5137 36.7205 38.3005C35.505 36.0872 34.8972 33.523 34.8972 30.6067C34.8972 27.6904 35.5211 25.1683 36.7711 22.9375C38.02 20.7078 39.7247 18.9917 41.8863 17.7903C44.0468 16.5901 46.4606 15.9888 49.1287 15.9888C51.7968 15.9888 54.2094 16.5901 56.371 17.7903C58.5304 18.9917 60.2362 20.7067 61.4863 22.9375C62.7352 25.1683 63.3602 27.7243 63.3602 30.6067C63.3602 33.4891 62.719 36.0451 61.4356 38.2759C60.1522 40.5067 58.4049 42.231 56.1938 43.4476C53.9815 44.6665 51.5424 45.2748 48.8755 45.2748C46.2085 45.2748 43.8627 44.6665 41.7344 43.4476H41.7333ZM53.0526 39.0994C54.3521 38.3788 55.4076 37.2979 56.218 35.8567C57.0283 34.4156 57.4335 32.6655 57.4335 30.6067C57.4335 28.5478 57.0444 26.8072 56.2686 25.3823C55.4917 23.9587 54.4626 22.886 53.1792 22.1654C51.8958 21.4448 50.5111 21.0845 49.0263 21.0845C47.5414 21.0845 46.1648 21.4448 44.8986 22.1654C43.6325 22.886 42.6276 23.9587 41.8852 25.3823C41.1428 26.8072 40.771 28.5478 40.771 30.6067C40.771 33.661 41.5387 36.0194 43.0754 37.684C44.6109 39.3486 46.5446 40.1803 48.8743 40.1803C50.3603 40.1803 51.7519 39.82 53.0526 39.0994Z" fill="#A30084"/>
<path d="M67.916 22.9375C69.0808 20.7417 70.667 19.035 72.6767 17.8161C74.6853 16.5983 76.9056 15.9888 79.3366 15.9888C81.5305 15.9888 83.4458 16.4263 85.0849 17.3014C86.1922 17.8933 87.1487 18.5835 87.9556 19.3707C88.3527 19.7579 89.01 19.4643 89.01 18.9052V17.092C89.01 16.7387 89.292 16.4521 89.6396 16.4521H94.2046C94.5522 16.4521 94.8342 16.7387 94.8342 17.092V44.1717C94.8342 44.525 94.5522 44.8116 94.2046 44.8116H89.6396C89.292 44.8116 89.01 44.525 89.01 44.1717V42.2778C89.01 41.7175 88.3481 41.4238 87.9533 41.8145C87.1349 42.624 86.1531 43.3318 85.0089 43.9366C83.3204 44.828 81.3958 45.2748 79.2353 45.2748C76.8377 45.2748 74.6427 44.649 72.6514 43.3961C70.6589 42.1433 69.0808 40.3932 67.916 38.146C66.7511 35.8989 66.1687 33.351 66.1687 30.5026C66.1687 27.6541 66.7511 25.1332 67.916 22.9363V22.9375ZM87.8186 25.511C87.0244 24.0698 85.9862 22.9726 84.7039 22.2169C83.4205 21.4623 82.0358 21.0845 80.551 21.0845C79.0661 21.0845 77.6803 21.4542 76.398 22.1911C75.1146 22.9293 74.0764 24.0102 73.2833 25.4338C72.4891 26.8586 72.0931 28.5478 72.0931 30.5037C72.0931 32.4596 72.4891 34.1757 73.2833 35.6509C74.0764 37.1272 75.1238 38.2502 76.4233 39.0222C77.7229 39.7943 79.0984 40.1803 80.551 40.1803C82.0036 40.1803 83.4194 39.8037 84.7039 39.048C85.9862 38.2934 87.0256 37.1868 87.8186 35.7281C88.6117 34.2693 89.0088 32.5626 89.0088 30.6067C89.0088 28.6508 88.6117 26.9522 87.8186 25.511Z" fill="white"/>
<path d="M112.179 31.0454L123.82 43.8535C124.152 44.2197 123.897 44.8127 123.407 44.8127H117.149C116.986 44.8127 116.831 44.7402 116.724 44.6139L107.549 33.7803C107.209 33.3791 106.561 33.6236 106.561 34.1535V44.2419C106.561 44.5577 106.309 44.8127 105.999 44.8127H101.35C101.04 44.8127 100.789 44.5566 100.789 44.2419V7.29605C100.789 6.9802 101.041 6.72519 101.35 6.72519H105.999C106.31 6.72519 106.561 6.98137 106.561 7.29605V27.2739C106.561 27.8085 107.219 28.0507 107.556 27.6389L116.521 16.6591C116.628 16.5281 116.786 16.4532 116.954 16.4532H123.411C123.9 16.4532 124.156 17.0452 123.824 17.4113L112.179 30.2709C111.981 30.4897 111.981 30.8266 112.179 31.0454Z" fill="white"/>
<path d="M152.893 16.4533H136.349C135.923 16.4533 135.579 16.1023 135.579 15.6707V10.1855C135.579 9.75263 135.233 9.40286 134.809 9.40286H130.526C130.1 9.40286 129.756 9.7538 129.756 10.1855V15.6707C129.756 16.1035 129.41 16.4533 128.986 16.4533H127.235C126.809 16.4533 126.465 16.8042 126.465 17.2359V20.4563C126.465 20.8891 126.81 21.2389 127.235 21.2389H128.986C129.412 21.2389 129.756 21.5899 129.756 22.0215V36.9365C129.756 39.7159 130.447 41.7233 131.832 42.9586C133.216 44.1939 135.207 44.8116 137.808 44.8116H141.595C142.021 44.8116 142.365 44.4606 142.365 44.029V40.7056C142.365 40.2727 142.02 39.923 141.595 39.923H138.821C137.639 39.923 136.804 39.6914 136.314 39.2281C135.825 38.7649 135.58 38.0022 135.58 36.9376V22.0227C135.58 21.5899 135.925 21.2401 136.35 21.2401H147.684V44.2407C147.684 44.5566 147.936 44.8127 148.247 44.8127H152.894C153.205 44.8127 153.457 44.5566 153.457 44.2407V17.0265C153.457 16.7106 153.205 16.4544 152.894 16.4544L152.893 16.4533Z" fill="white"/>
<path d="M164.373 43.4476C162.246 42.2298 160.576 40.5137 159.361 38.3005C158.145 36.0872 157.537 33.523 157.537 30.6067C157.537 27.6904 158.161 25.1683 159.411 22.9375C160.66 20.7078 162.365 18.9917 164.526 17.7903C166.687 16.5901 169.101 15.9888 171.769 15.9888C174.437 15.9888 176.85 16.5901 179.011 17.7903C181.171 18.9917 182.876 20.7067 184.126 22.9375C185.375 25.1683 186 27.7243 186 30.6067C186 33.4891 185.359 36.0451 184.076 38.2759C182.792 40.5067 181.045 42.231 178.834 43.4476C176.622 44.6665 174.183 45.2748 171.516 45.2748C168.849 45.2748 166.503 44.6665 164.375 43.4476H164.373ZM175.692 39.0994C176.991 38.3788 178.047 37.2979 178.857 35.8567C179.667 34.4156 180.072 32.6655 180.072 30.6067C180.072 28.5478 179.683 26.8072 178.908 25.3823C178.131 23.9587 177.102 22.886 175.818 22.1654C174.535 21.4448 173.15 21.0845 171.665 21.0845C170.18 21.0845 168.804 21.4448 167.538 22.1654C166.271 22.886 165.267 23.9587 164.524 25.3823C163.782 26.8072 163.41 28.5478 163.41 30.6067C163.41 33.661 164.178 36.0194 165.714 37.684C167.25 39.3486 169.184 40.1803 171.513 40.1803C172.999 40.1803 174.391 39.82 175.692 39.0994Z" fill="white"/>
<path d="M209.647 17.3786C211.386 18.305 212.745 19.6784 213.724 21.4963C214.703 23.3153 215.193 25.511 215.193 28.0846V44.2091C215.193 44.5425 214.927 44.8127 214.599 44.8127H210.063C209.735 44.8127 209.469 44.5425 209.469 44.2091V28.9596C209.469 26.4211 208.844 24.4734 207.596 23.1176C206.346 21.763 204.641 21.0845 202.481 21.0845C200.32 21.0845 198.606 21.763 197.34 23.1176C196.074 24.4734 195.441 26.42 195.441 28.9596V44.2091C195.441 44.5425 195.175 44.8127 194.847 44.8127H190.261C189.933 44.8127 189.667 44.5425 189.667 44.2091V17.0557C189.667 16.7223 189.933 16.4521 190.261 16.4521H194.847C195.175 16.4521 195.441 16.7223 195.441 17.0557V18.2056C195.441 18.7355 196.051 18.9929 196.443 18.642C197.196 17.9658 198.07 17.4078 199.062 16.9668C200.531 16.3152 202.092 15.9888 203.747 15.9888C205.941 15.9888 207.907 16.4521 209.647 17.3786Z" fill="white"/>
</svg>
