<svg width="162" height="32" viewBox="0 0 162 32" fill="none" xmlns="http://www.w3.org/2000/svg">
<path d="M3.82919 24.8609C2.62189 24.8637 1.50686 24.1813 0.909995 23.0747C0.321872 21.9751 0.35729 20.6227 1.00182 19.5585L7.0138 9.60391C7.6404 8.51484 8.77379 7.86519 9.98152 7.90346C11.1879 7.93389 12.2855 8.64717 12.8535 9.77036C13.4141 10.8875 13.3437 12.232 12.6725 13.281L6.66442 23.2356C6.04525 24.2532 4.9757 24.866 3.82919 24.8609Z" fill="white"/>
<path d="M14.1413 24.8608C12.9287 24.8608 11.8128 24.177 11.2269 23.0788C10.6401 21.9819 10.6755 20.6332 11.3187 19.5723L17.3189 9.64068C17.9363 8.53594 19.0732 7.87107 20.2892 7.90426C21.5118 7.93239 22.6199 8.65351 23.1804 9.78177C23.7371 10.91 23.6553 12.2624 22.964 13.3085L16.9651 23.2401C16.3477 24.2531 15.2834 24.8645 14.1413 24.8613V24.8608Z" fill="white"/>
<path d="M24.2219 24.9445C25.9312 24.9445 27.3169 23.5139 27.3169 21.7492C27.3169 19.9845 25.9312 18.554 24.2219 18.554C22.5126 18.554 21.127 19.9845 21.127 21.7492C21.127 23.5139 22.5126 24.9445 24.2219 24.9445Z" fill="white"/>
<path d="M158.679 18.7398C159.614 18.7398 160.173 19.4407 160.173 20.5892V24.5245H161.443V20.4993C161.443 18.5466 160.571 17.4142 158.93 17.4142C158.288 17.4142 157.27 17.5996 156.662 18.8445C156.374 18.0962 155.72 17.5752 154.959 17.488C154.724 17.4428 154.484 17.4276 154.246 17.4437C153.724 17.488 152.794 17.8306 152.446 18.607V17.5636H151.175V24.5245H152.446V20.7681C152.446 19.307 153.353 18.7403 154.261 18.7403C155.112 18.7403 155.671 19.4264 155.671 20.5749V24.525H156.935V20.7686C156.935 19.6053 157.597 18.7274 158.68 18.7408L158.679 18.7398ZM146.509 23.3612C147.09 23.3746 147.651 23.1302 148.057 22.6871C148.464 22.244 148.681 21.6409 148.659 21.0217C148.659 19.6196 147.681 18.7398 146.509 18.7398C145.337 18.7398 144.359 19.6196 144.359 21.0217C144.336 21.6395 144.553 22.2412 144.958 22.683C145.363 23.1261 145.921 23.3718 146.499 23.3612H146.509ZM146.509 24.6665C144.652 24.6665 143.102 23.2201 143.102 21.0134C143.102 18.8067 144.652 17.4059 146.509 17.4059C148.366 17.4059 149.929 18.8067 149.929 21.0134C149.929 23.2201 148.358 24.673 146.501 24.673L146.509 24.666V24.6665ZM136.562 21.0134L136.549 21.0212C136.549 18.8145 138.14 17.4138 140.01 17.4059C140.959 17.3866 141.873 17.7928 142.523 18.5231L141.56 19.3881C141.147 18.9602 140.589 18.7246 140.01 18.7329C138.838 18.7329 137.819 19.6126 137.819 21.0134C137.819 21.9605 138.352 22.813 139.171 23.1758C139.99 23.5383 140.933 23.3372 141.56 22.6682L142.537 23.5332C141.885 24.2714 140.966 24.6836 140.01 24.6665C138.154 24.6665 136.562 23.2201 136.562 21.0134ZM132.495 23.1878C132.49 22.676 132.878 22.2565 133.364 22.2505C133.849 22.2565 134.238 22.676 134.233 23.1878C134.209 23.677 133.829 24.0625 133.364 24.0676C132.899 24.0625 132.518 23.677 132.495 23.1878H132.495Z" fill="white"/>
<path fill-rule="evenodd" clip-rule="evenodd" d="M135.97 8.71361H131.447L128.277 17.3321L125.123 8.71361H120.601L126.099 22.332L122.68 31.3359H127.169L135.971 8.71361H135.97ZM108.463 16.2886C108.463 18.4645 110.267 19.8961 112.038 19.8961C113.81 19.8961 115.49 18.5636 115.49 16.2873C115.49 14.0109 113.779 12.677 112.038 12.677C110.297 12.677 108.463 14.1101 108.463 16.2873V16.2886ZM115.49 23.8927V22.1697C114.573 23.6336 112.433 24.1869 111.335 24.1869C107.701 24.1869 104.064 21.165 104.064 16.2873C104.064 11.4095 107.699 8.38901 111.335 8.38901C112.251 8.38901 114.391 8.71131 115.49 10.4035V8.71914H119.706V23.8955L115.49 23.8941V23.8927ZM102.864 23.8927H98.6487V22.0069C97.9442 23.4035 96.2363 24.2178 94.4631 24.2178C90.7962 24.2178 87.5574 21.1299 87.5574 16.349C87.5574 11.5681 90.7962 8.38625 94.4631 8.38625C96.2336 8.38625 97.9468 9.165 98.6487 10.5634V0.446045H102.864V23.8927ZM98.5568 16.2536C98.5568 13.9786 96.9993 12.6447 95.2581 12.6447C93.5169 12.6447 91.9567 14.075 91.9567 16.2536C91.9567 18.4322 93.4544 19.9256 95.2568 19.9256C97.0312 19.9284 98.5568 18.4322 98.5568 16.2536ZM77.1334 15.8612C77.1334 13.554 78.2646 12.7734 79.7609 12.7734C81.2573 12.7734 82.2359 13.7808 82.2359 15.7953V23.8899H86.4822V14.822C86.4822 10.5003 84.4646 8.38625 81.2564 8.38625C79.5764 8.38625 77.8964 9.3937 77.1321 10.9217V8.71361H72.888V23.8899H77.133V15.8612H77.1334ZM64.2655 24.1505C60.2331 24.1505 56.8692 21.0308 56.8692 16.2522C56.8692 11.4736 60.2291 8.3821 64.2655 8.3821C68.3019 8.3821 71.6912 11.4708 71.6912 16.2522C71.6912 21.0336 68.298 24.1518 64.2655 24.1518V24.1505ZM64.2655 19.732C66.036 19.732 67.5044 18.3649 67.5044 16.2536C67.5044 14.1423 66.0369 12.8075 64.2655 12.8075C63.4032 12.7932 62.5737 13.1533 61.9703 13.8025C61.3638 14.4554 61.0341 15.3397 61.0573 16.2536C61.0586 18.3676 62.5248 19.732 64.2655 19.732ZM49.2564 12.7752C50.5083 12.7752 51.6089 13.8159 51.6089 15.7971V23.8927H55.8245V15.2733C55.8245 10.6907 53.7117 8.38348 50.3246 8.38348C49.3185 8.38348 47.4233 8.70577 46.0477 11.0803C45.2528 9.325 43.7258 8.41437 41.4687 8.41437C39.8683 8.40561 38.4109 9.38494 37.7418 10.9176V8.71499H33.4929V23.8913H37.7379V15.8612C37.7379 13.554 38.9299 12.7734 40.2128 12.7734C41.4958 12.7734 42.5334 13.7808 42.5653 15.6985V23.8909H46.8116V15.8608C46.8116 13.654 47.9122 12.7757 49.2559 12.7757V12.7743L49.2564 12.7752Z" fill="white"/>
</svg>
