<svg width="77" height="37" viewBox="0 0 77 37" fill="none" xmlns="http://www.w3.org/2000/svg">
<path d="M73.9915 0.209229H61.4219C60.0916 0.209229 59.0132 1.21784 59.0132 2.46202V17.0294C59.0132 18.2736 60.0916 19.2822 61.4219 19.2822H73.9915C75.3217 19.2822 76.4001 18.2736 76.4001 17.0294V2.46202C76.4001 1.21784 75.3217 0.209229 73.9915 0.209229Z" fill="white"/>
<path d="M46.8108 16.9726V2.60536C46.8108 1.28368 45.675 0.209229 44.2778 0.209229H32.0852C30.6881 0.209229 29.5522 1.28368 29.5522 2.60536V16.9916C29.5522 18.3133 30.6881 19.3878 32.0852 19.3878H39.2219C40.619 19.3878 41.7549 20.4622 41.7549 21.7839V33.6885C41.7549 35.0102 42.8907 36.0846 44.2879 36.0846H56.4805C57.8776 36.0846 59.0135 35.0102 59.0135 33.6885V21.7649C59.0135 20.4432 57.8776 19.3688 56.4805 19.3688H49.3438C47.9467 19.3688 46.8108 18.2943 46.8108 16.9726Z" fill="white"/>
<path d="M17.3435 16.9682V2.60472C17.3435 1.2834 16.2081 0.209229 14.8114 0.209229H2.62296C1.22626 0.209229 0.0908203 1.2834 0.0908203 2.60472V16.9872C0.0908203 18.3085 1.22626 19.3827 2.62296 19.3827C7.96858 19.3827 12.2993 23.4798 12.2993 28.5369V33.6891C12.2993 35.0105 13.4348 36.0846 14.8315 36.0846H27.0199C28.4166 36.0846 29.552 35.0105 29.552 33.6891V21.7687C29.552 20.4474 28.4166 19.3732 27.0199 19.3732H19.8857C18.489 19.3732 17.3536 18.299 17.3536 16.9777L17.3435 16.9682Z" fill="white"/>
</svg>
