<svg width="32" height="32" viewBox="0 0 32 32" fill="none" xmlns="http://www.w3.org/2000/svg">
<path d="M16.3283 26.7723C18.6917 26.7723 20.958 26.5388 23.0584 26.1107C25.682 25.5759 26.9939 25.3084 28.1909 23.7693C29.388 22.2303 29.388 20.4635 29.388 16.9298V14.4132C29.388 10.8796 29.388 9.1128 28.1909 7.57371C26.9939 6.03464 25.682 5.76724 23.0584 5.23243C20.958 4.80427 18.6917 4.5708 16.3283 4.5708C13.9648 4.5708 11.6984 4.80427 9.59802 5.23243C6.97445 5.76724 5.66267 6.03464 4.46561 7.57371C3.26855 9.1128 3.26855 10.8796 3.26855 14.4132V16.9298C3.26855 20.4635 3.26855 22.2303 4.46561 23.7693C5.66267 25.3084 6.97445 25.5759 9.59802 26.1107C11.6984 26.5388 13.9648 26.7723 16.3283 26.7723Z" stroke="#A30084" stroke-width="1.5"/>
<path d="M21.5029 16.0801C21.3091 16.8713 20.2779 17.4395 18.2156 18.5761C15.9723 19.8121 14.8507 20.4302 13.9423 20.1921C13.6346 20.1114 13.3512 19.9696 13.1132 19.7772C12.4106 19.2092 12.4106 18.0299 12.4106 15.6715C12.4106 13.313 12.4106 12.1338 13.1132 11.5657C13.3512 11.3733 13.6346 11.2316 13.9423 11.1509C14.8507 10.9128 15.9723 11.5308 18.2156 12.7669C20.2779 13.9035 21.3091 14.4717 21.5029 15.2628C21.5689 15.5321 21.5689 15.8108 21.5029 16.0801Z" stroke="#A30084" stroke-width="1.5" stroke-linejoin="round"/>
</svg>
