<svg width="141" height="28" viewBox="0 0 141 28" fill="none" xmlns="http://www.w3.org/2000/svg">
<path d="M93.7717 23.9212C95.6374 23.9665 97.4351 23.2638 98.7842 21.9494L101.256 24.6461C99.6156 26.3458 97.3457 27.6148 93.8167 27.6148C87.748 27.6148 83.8373 23.5585 83.8373 18.0744C83.8373 12.5904 87.9504 8.53401 93.2546 8.53401C99.2783 8.53401 102.672 13.1571 102.38 19.5474H88.1752C88.6699 22.2215 90.5351 23.9212 93.7717 23.9212ZM98.0872 16.5107C97.7049 14.0407 96.244 12.205 93.2996 12.205C90.5575 12.205 88.6694 13.7687 88.1752 16.5107H98.0872ZM0.428223 23.7172L11.3739 12.4997H0.675545V8.98691H16.4313V12.5904L5.5081 23.7852H16.5887V27.2979H0.428223V23.7172ZM28.8605 23.9212C30.7261 23.9665 32.5239 23.2638 33.8729 21.9494L36.3451 24.6461C34.7043 26.3458 32.4344 27.6148 28.9054 27.6148C22.8593 27.6148 18.9261 23.5585 18.9261 18.0744C18.9261 12.5904 23.0391 8.53401 28.3433 8.53401C34.3671 8.53401 37.7606 13.1571 37.4688 19.5474H23.264C23.7811 22.2215 25.6238 23.9212 28.8605 23.9212ZM33.1984 16.5107C32.8162 14.0407 31.3552 12.205 28.4108 12.205C25.6688 12.205 23.7806 13.7687 23.2864 16.5107H33.1984ZM61.114 18.0971C61.114 12.2277 65.4519 8.57935 70.2395 8.57935C72.6443 8.57935 74.9371 9.64432 76.2857 11.3214V0.511475H80.1514V27.2526H76.2857V24.7146C74.8922 26.505 72.5998 27.6153 70.1945 27.6153C65.5643 27.6153 61.114 23.9217 61.114 18.0976M76.51 18.0518C76.51 14.7883 74.0603 12.1143 70.7561 12.1143C67.452 12.1143 65.0022 14.7203 65.0022 18.0518C65.0022 21.3832 67.5194 24.0119 70.7561 24.0119C74.0603 24.0345 76.51 21.3605 76.51 18.0518ZM104.898 23.3544L108.404 21.5187C109.348 23.2184 111.146 24.2381 113.079 24.1927C115.259 24.1927 116.406 23.0597 116.406 21.7681C116.406 20.295 114.293 19.9777 112.001 19.5021C108.899 18.8447 105.685 17.8251 105.685 14.0407C105.685 11.14 108.427 8.466 112.72 8.51134C116.114 8.51134 118.631 9.87102 120.047 12.0695L116.788 13.8825C115.956 12.5909 114.518 11.7974 112.697 11.7974C110.607 11.7974 109.55 12.8171 109.55 13.9954C109.55 15.3097 111.236 15.6724 113.866 16.2614C116.855 16.9188 120.249 17.9157 120.249 21.7227C120.249 24.2607 118.069 27.6602 112.877 27.6148C109.101 27.6148 106.426 26.0738 104.898 23.3544M130.745 19.1167L127.689 22.4935V27.2526H123.823V0.511475H127.689V18.0064L135.892 8.94157H140.59L133.487 16.7828L140.792 27.2526H136.409L130.745 19.1172V19.1167ZM49.4263 8.55619C44.8186 8.55619 40.9753 11.5702 40.9753 16.5334V27.2526H44.931V17.0548C44.931 14.0407 46.6393 12.2503 49.5612 12.2503C52.4831 12.2503 53.9441 14.0407 53.9441 17.0548V27.2526H57.8773V16.5561C57.8773 11.5702 54.034 8.55619 49.4263 8.55619Z" fill="white"/>
</svg>
