<svg width="177" height="176" viewBox="0 0 177 176" fill="none" xmlns="http://www.w3.org/2000/svg">
<path d="M121.786 88.6655C121.786 90.8533 121.786 93.0412 121.786 95.2378C121.786 95.6596 121.821 95.6948 122.234 95.6948C122.893 95.6948 123.552 95.6948 124.202 95.6948C124.618 95.6948 124.829 95.4809 124.835 95.0533C124.835 90.7918 124.835 86.5303 124.835 82.2688C124.835 82.1634 124.835 82.058 124.835 81.9525C124.835 81.7504 124.729 81.6274 124.518 81.6274C123.719 81.6274 122.919 81.6274 122.111 81.6274C121.856 81.6274 121.803 81.7065 121.786 81.9701C121.786 82.0755 121.786 82.181 121.786 82.2864V88.6567M30.0888 89.8868C30.0888 88.1119 30.0888 86.3458 30.0888 84.5709C30.0888 84.0965 30.1416 84.0525 30.6073 84.0437C31.3981 84.0437 32.1888 84.0437 32.9796 84.0437C33.3399 84.0437 33.3926 83.9822 33.4014 83.6308C33.4014 83.1036 33.4014 82.5764 33.4014 82.058C33.4014 81.6977 33.3399 81.645 32.9884 81.6274C32.8654 81.6274 32.7512 81.6274 32.6282 81.6274H27.1453C26.1612 81.6274 25.1684 81.6274 24.1843 81.6274C23.7713 81.6274 23.7098 81.6801 23.7361 82.0755C23.7625 82.5764 23.7537 83.0684 23.7361 83.5693C23.7186 84.0086 23.7537 84.0437 24.2018 84.0437C24.9399 84.0437 25.678 84.0437 26.4161 84.0437C26.5479 84.0437 26.6797 84.0437 26.8115 84.0613C26.996 84.0789 27.0926 84.1931 27.1102 84.3688C27.119 84.4743 27.1102 84.5797 27.1102 84.6852V88.4634C27.1102 90.7128 27.1102 92.9533 27.1102 95.1939C27.1102 95.6508 27.1453 95.686 27.6022 95.686C28.2876 95.686 28.973 95.686 29.6583 95.686C30.0186 95.686 30.0713 95.6332 30.0801 95.2818C30.0801 95.1676 30.0801 95.0445 30.0801 94.9303V89.8868M113.421 89.8868C113.421 91.6705 113.421 93.4542 113.421 95.2378C113.421 95.6508 113.456 95.686 113.869 95.6948C114.537 95.6948 115.213 95.6948 115.881 95.6948C116.347 95.6948 116.373 95.6596 116.373 95.2027V84.817C116.373 84.7027 116.373 84.5797 116.373 84.4655C116.391 84.1755 116.487 84.0789 116.795 84.0525C116.883 84.0525 116.979 84.0525 117.067 84.0525C117.805 84.0525 118.543 84.0525 119.273 84.0525C119.73 84.0525 119.747 84.0262 119.756 83.5868C119.756 83.1124 119.756 82.6467 119.756 82.1722C119.756 81.6714 119.73 81.645 119.22 81.6362H110.741C110.653 81.6362 110.556 81.6362 110.469 81.6362C110.17 81.6538 110.108 81.7065 110.099 82.0228C110.099 82.55 110.099 83.0684 110.099 83.5956C110.099 84.0086 110.135 84.0437 110.556 84.0525C111.33 84.0525 112.112 84.0525 112.885 84.0525C113.394 84.0525 113.412 84.0701 113.421 84.5797C113.421 84.6412 113.421 84.7115 113.421 84.773V89.8868ZM148.33 92.8567C149.068 92.8567 149.806 92.8567 150.544 92.8567C151.326 92.8567 151.186 92.7337 151.528 93.5332C151.783 94.1395 152.02 94.7546 152.249 95.3609C152.337 95.5893 152.477 95.6947 152.723 95.686C153.066 95.686 153.409 95.686 153.751 95.686C154.173 95.686 154.595 95.686 155.017 95.686C155.236 95.686 155.271 95.6245 155.201 95.4224C155.131 95.2115 155.034 95.0094 154.955 94.7985C153.936 92.2065 152.917 89.6232 151.897 87.0312C151.238 85.3617 150.579 83.6835 149.92 82.014C149.815 81.7416 149.657 81.6186 149.367 81.6274C148.708 81.6362 148.049 81.645 147.39 81.6274C147.073 81.6274 146.915 81.7417 146.801 82.0316C146.476 82.8751 146.133 83.7099 145.799 84.5534C145.158 86.1789 144.534 87.8044 143.893 89.4299C143.119 91.3981 142.346 93.3575 141.564 95.3257C141.441 95.6332 141.485 95.6947 141.819 95.7035C142.487 95.7035 143.163 95.686 143.831 95.7123C144.209 95.7299 144.411 95.6069 144.543 95.2554C144.771 94.614 145.035 93.9814 145.29 93.3487C145.474 92.8743 145.474 92.8743 145.966 92.8743C146.757 92.8743 147.548 92.8743 148.339 92.8743M59.4185 95.686C59.7963 95.686 60.1829 95.686 60.5607 95.686C60.8419 95.686 60.877 95.6069 60.7892 95.3345C60.7189 95.1236 60.631 94.9127 60.5519 94.7107C59.3482 91.6441 58.1356 88.5776 56.9319 85.5199C56.475 84.3513 56.0005 83.1739 55.5524 82.0053C55.4469 81.7241 55.28 81.6186 54.99 81.6274C54.3222 81.6362 53.6457 81.6274 52.9779 81.6274C52.7319 81.6274 52.5561 81.6889 52.4595 81.9525C52.0992 82.8839 51.7302 83.8065 51.3612 84.7379C50.7022 86.4073 50.052 88.0856 49.393 89.755C48.6637 91.609 47.9344 93.463 47.2051 95.3257C47.0821 95.642 47.1172 95.6948 47.4599 95.6948C48.1453 95.6948 48.8306 95.6948 49.516 95.6948C49.9729 95.6948 50.0168 95.6596 50.1838 95.2378C50.421 94.6404 50.6495 94.0429 50.8867 93.4366C51.1064 92.8743 51.1327 92.8567 51.7566 92.8567C53.2151 92.8567 54.6737 92.8567 56.1411 92.8567C56.844 92.8567 56.8704 92.7161 57.1867 93.5772C57.4063 94.1571 57.6436 94.7194 57.8632 95.2994C57.9687 95.5805 58.1356 95.7211 58.4519 95.6948C58.7771 95.6684 59.1109 95.6948 59.436 95.6948M45.5972 95.6245C45.5972 95.4839 45.5005 95.396 45.4302 95.2994C44.2616 93.6299 43.1018 91.9692 41.9244 90.2998C41.5466 89.7638 41.5466 89.7638 42.1616 89.5354C44.0683 88.8149 45.1842 87.0224 44.7712 84.8345C44.4198 82.9718 42.724 81.645 40.8524 81.6186C39.2972 81.6011 37.7508 81.6186 36.1955 81.6186C35.7738 81.6186 35.56 81.8295 35.5541 82.2513V92.8743C35.5541 93.6738 35.5541 94.4734 35.5541 95.273C35.5541 95.6332 35.598 95.6772 35.9671 95.6772C36.6261 95.6772 37.2851 95.6772 37.9353 95.6772C38.3922 95.6772 38.4273 95.642 38.4361 95.1851C38.4361 95.0973 38.4361 95.0006 38.4361 94.9127C38.4361 93.6035 38.4361 92.2856 38.4361 90.9764C38.4361 90.8446 38.4361 90.7128 38.4537 90.581C38.4537 90.5194 38.48 90.4492 38.5591 90.4316C38.6294 90.414 38.6909 90.4667 38.7261 90.5107C38.77 90.5546 38.8051 90.6161 38.8403 90.6688C39.9474 92.2504 41.0457 93.832 42.1528 95.4136C42.2758 95.5893 42.4252 95.6772 42.6449 95.6772C43.5499 95.6772 44.4637 95.6772 45.3687 95.6772C45.4302 95.6772 45.5005 95.6772 45.5796 95.6157M94.2397 89.0433C94.2661 88.3579 94.2661 87.8571 94.1694 87.3739C93.774 85.309 92.7108 83.6835 90.9535 82.5237C89.7673 81.7417 88.4493 81.3726 87.0435 81.3375C86.2703 81.3199 85.497 81.4781 84.759 81.7153C83.1598 82.2337 81.8946 83.2002 80.972 84.5973C80.5063 85.3002 80.1636 86.0734 79.9615 86.8906C79.7858 87.5935 79.7682 88.314 79.7682 89.0345C79.7682 89.5266 79.8561 90.0098 79.9791 90.4667C80.3569 91.8726 81.051 93.1115 82.1581 94.0956C83.5025 95.2993 85.0929 95.9144 86.8853 96.0023C87.5883 96.0374 88.2736 95.8968 88.9414 95.7123C90.6021 95.2554 91.9288 94.3065 92.9305 92.9182C93.8004 91.7144 94.2397 90.3525 94.2397 89.0433ZM95.5753 88.6303C95.5753 90.8182 95.5753 93.0148 95.5753 95.2027C95.5753 95.6684 95.6016 95.6948 96.0673 95.6948C96.7351 95.6948 97.4117 95.6948 98.0794 95.6948C98.4924 95.6948 98.5363 95.642 98.5451 95.2466C98.5451 95.1939 98.5451 95.1412 98.5451 95.0885C98.5451 92.3207 98.5451 89.5529 98.5451 86.7851C98.5451 86.7236 98.5451 86.6534 98.5539 86.5919C98.5891 86.4425 98.7033 86.4161 98.8087 86.5303C98.8439 86.5655 98.8702 86.6182 98.8966 86.6621C100.171 88.56 101.436 90.4667 102.701 92.3646C103.343 93.3224 103.993 94.2801 104.625 95.2466C104.836 95.563 105.056 95.7563 105.487 95.7211C106.075 95.6772 106.673 95.7123 107.261 95.7123C107.712 95.7123 107.938 95.4868 107.938 95.0358C107.938 90.8094 107.938 86.5831 107.938 82.3567C107.938 82.2601 107.938 82.1722 107.938 82.0843C107.92 81.7065 107.876 81.6538 107.499 81.645C106.892 81.645 106.286 81.645 105.68 81.645C105.258 81.645 105.044 81.8559 105.038 82.2776C105.038 84.9136 105.03 87.5496 105.021 90.1943C105.021 90.3613 105.021 90.537 105.021 90.704C105.021 90.7743 105.003 90.8358 104.933 90.8709C104.845 90.9061 104.775 90.8709 104.731 90.8006C104.625 90.6337 104.52 90.4667 104.415 90.2998C103.264 88.5864 102.112 86.8818 100.961 85.1684C100.232 84.0877 99.5029 83.0157 98.7824 81.935C98.6769 81.7768 98.5539 81.6538 98.343 81.6538C97.5259 81.6538 96.7087 81.6538 95.9004 81.6538C95.6456 81.6538 95.5928 81.7241 95.5753 81.9965C95.5753 82.1107 95.5753 82.2337 95.5753 82.3479V88.6479M127.312 88.6479V90.2998C127.312 91.9253 127.312 93.5596 127.312 95.1851C127.312 95.6772 127.33 95.686 127.831 95.686C128.499 95.686 129.175 95.686 129.843 95.686C130.212 95.686 130.256 95.642 130.265 95.2818C130.265 95.1851 130.265 95.0973 130.265 95.0094V88.0416C130.265 87.6111 130.265 87.1718 130.265 86.7412C130.265 86.6358 130.256 86.5128 130.37 86.4688C130.502 86.4161 130.555 86.5391 130.607 86.627C131.495 88.0241 132.444 89.3772 133.366 90.7567C134.403 92.3031 135.449 93.8496 136.486 95.4048C136.635 95.6332 136.811 95.7123 137.074 95.7123C137.716 95.6947 138.366 95.7123 139.007 95.7123C139.453 95.7123 139.675 95.4868 139.675 95.0358C139.675 90.8094 139.675 86.5831 139.675 82.3567C139.675 82.2689 139.675 82.1722 139.675 82.0843C139.658 81.7153 139.614 81.6626 139.227 81.6538C138.638 81.6538 138.041 81.6538 137.452 81.6538C136.995 81.6538 136.767 81.8793 136.767 82.3304C136.767 85.0454 136.767 87.7605 136.767 90.4843C136.767 90.5634 136.767 90.6425 136.767 90.7215C136.767 90.8006 136.732 90.8797 136.635 90.8885C136.556 90.8973 136.503 90.8533 136.468 90.8006C136.371 90.6512 136.275 90.4843 136.178 90.3349C135.317 89.0521 134.447 87.7605 133.586 86.4776C132.576 84.9751 131.556 83.4726 130.546 81.9701C130.396 81.7504 130.221 81.6538 129.957 81.6538C129.237 81.6626 128.507 81.6538 127.787 81.6538C127.374 81.6538 127.33 81.6977 127.321 82.1019C127.321 82.2073 127.321 82.3128 127.321 82.4182V88.6831M74.8829 86.627C74.8389 87.1454 75.0147 87.5496 75.0498 87.9889C75.0849 88.4019 75.164 88.8236 75.2519 89.2278C75.3485 89.7023 75.4013 90.1856 75.4979 90.66C75.6121 91.2487 75.7088 91.8462 75.7879 92.4349C75.8494 92.8479 75.9285 93.2609 75.99 93.6738C76.069 94.245 76.1306 94.8161 76.2799 95.3696C76.359 95.6684 76.3766 95.686 76.6841 95.686C77.2113 95.686 77.7385 95.686 78.2657 95.686C78.459 95.686 78.6611 95.686 78.8544 95.686C79.1356 95.6684 79.1971 95.5981 79.1883 95.3169C79.1883 95.2554 79.1795 95.1851 79.1619 95.1236C78.9159 93.5948 78.6611 92.0659 78.4063 90.5458C78.169 89.096 77.923 87.6462 77.677 86.1964C77.4485 84.8082 77.2201 83.4287 76.9916 82.0404C76.9301 81.6626 76.895 81.6274 76.5084 81.6186C75.7615 81.6186 75.0059 81.6186 74.259 81.6186C73.9427 81.6186 73.8812 81.6714 73.7757 81.9789C72.9234 84.4919 72.0712 87.0136 71.2189 89.5354C71.1134 89.8605 71.008 90.1856 70.9025 90.5107C70.8762 90.5897 70.841 90.66 70.7444 90.66C70.6741 90.66 70.6214 90.6073 70.595 90.5546C70.5686 90.5107 70.5511 90.4579 70.5423 90.4052C70.2699 89.4036 69.8921 88.437 69.567 87.4529C68.9607 85.6517 68.3456 83.8504 67.7394 82.0404C67.6603 81.7944 67.5636 81.6186 67.2561 81.6186C66.4829 81.6186 65.7009 81.6186 64.9277 81.6186C64.6289 81.6186 64.5323 81.7065 64.4795 82.0053C64.4444 82.181 64.462 82.3743 64.418 82.55C64.2423 83.3408 64.1632 84.1492 64.0051 84.9488C63.9348 85.309 63.8557 85.6693 63.8293 86.0295C63.7942 86.504 63.6888 86.9609 63.6009 87.4266C63.5218 87.8747 63.4691 88.3316 63.3812 88.7797C63.3109 89.1487 63.2406 89.5266 63.1879 89.9044C63.1264 90.3964 63.0561 90.8885 62.9595 91.3805C62.8716 91.8287 62.8189 92.2856 62.731 92.7337C62.5641 93.5772 62.4586 94.4383 62.318 95.2906C62.2565 95.642 62.2741 95.6772 62.6431 95.6772C63.3373 95.6772 64.0402 95.6772 64.7344 95.6772C65.1561 95.6772 65.2264 95.6069 65.2879 95.1851C65.3582 94.6755 65.4285 94.1747 65.5164 93.665C65.7009 92.5667 65.9118 91.4684 66.0699 90.3701C66.2281 89.2542 66.4829 88.1559 66.5707 87.0312C66.5707 86.9785 66.5883 86.9257 66.6059 86.8818C66.6674 86.7588 66.808 86.7412 66.8871 86.8554C66.931 86.9169 66.9574 86.996 66.9661 87.0751C66.9925 87.3299 67.0979 87.5584 67.177 87.7868C67.7306 89.4299 68.3017 91.0642 68.864 92.7073C69.1628 93.586 69.4703 94.4646 69.7603 95.3521C69.8481 95.6157 69.9887 95.7035 70.2523 95.686C70.5423 95.6684 70.8322 95.686 71.1222 95.686C71.6055 95.686 71.6318 95.6596 71.79 95.1939C72.695 92.5052 73.6 89.8165 74.505 87.1366C74.5578 86.9697 74.6017 86.7851 74.8653 86.627M9.24707 98.6295V77.1287C9.44916 77.0935 9.4228 76.9178 9.45795 76.7948C9.88849 75.2747 10.7496 74.0446 12.0588 73.1484C13.1395 72.4103 14.3345 72.0588 15.6613 72.0588C63.8996 72.0588 112.138 72.0588 160.376 72.0588C160.701 72.0588 161.035 72.0588 161.36 72.0588C161.554 72.0588 161.756 72.0764 161.949 72.1116C163.856 72.4542 165.323 73.4647 166.36 75.0902C166.887 75.9161 167.265 76.83 167.265 77.8228C167.283 84.5182 167.265 91.2136 167.265 97.909C167.265 98.0935 167.256 98.278 167.221 98.4537C166.887 100.07 166.088 101.415 164.752 102.408C163.698 103.19 162.52 103.682 161.176 103.673C112.586 103.673 63.9875 103.673 15.3977 103.673C14.0182 103.673 12.7969 103.19 11.7161 102.346C10.5738 101.45 9.8182 100.29 9.44038 98.8843C9.41402 98.7788 9.41402 98.6383 9.24707 98.6207" fill="#0B0B0B"/>
<path d="M91.472 88.6654C91.4632 90.6248 90.233 92.347 88.3879 92.9972C86.9732 93.498 85.664 93.2432 84.469 92.3997C83.1511 91.4683 82.4921 90.1416 82.5272 88.5512C82.5799 86.4776 83.9331 84.7202 85.8837 84.2282C87.6498 83.7801 89.1435 84.2985 90.3473 85.6604C90.9448 86.3282 91.2435 87.1278 91.428 87.9888C91.472 88.1997 91.4544 88.4282 91.4632 88.6566" fill="#0B0B0B"/>
<path d="M38.4624 85.9856C38.4624 85.4847 38.4624 84.9839 38.4624 84.4918C38.4624 84.1316 38.5503 84.0613 38.9193 84.0525C39.4992 84.0349 40.0703 84.0613 40.6415 84.1843C41.2302 84.3073 41.6256 84.6588 41.8189 85.186C42.3549 86.6885 41.3971 87.7692 40.0528 87.9186C39.6662 87.9625 39.262 87.9362 38.8666 87.9186C38.5327 87.9098 38.4712 87.8483 38.4712 87.5232C38.4624 87.0136 38.4712 86.504 38.4712 85.9856H38.4624Z" fill="#0B0B0B"/>
<path d="M54.0234 90.4403H52.7582C52.6615 90.4403 52.5737 90.4403 52.4858 90.4403C52.1343 90.414 52.0816 90.3613 52.2046 90.0362C52.3364 89.6759 52.477 89.3245 52.6176 88.973C53.0042 87.9801 53.3908 86.996 53.7774 86.0031C53.795 85.968 53.8038 85.9328 53.8214 85.8889C53.8565 85.8186 53.9004 85.7483 53.9971 85.7571C54.0849 85.7571 54.1377 85.8274 54.164 85.9065C54.2431 86.1701 54.3573 86.4249 54.454 86.6797C54.8845 87.7604 55.3063 88.85 55.728 89.9395C55.9038 90.4052 55.8774 90.4316 55.359 90.4403C54.9109 90.4403 54.4628 90.4403 54.0147 90.4403" fill="#0B0B0B"/>
<path d="M148.321 90.4402C147.9 90.4402 147.478 90.4402 147.056 90.4402C146.951 90.4402 146.845 90.4403 146.74 90.4227C146.52 90.3875 146.467 90.3085 146.546 90.0976C146.705 89.6934 146.863 89.2892 147.021 88.8938C147.408 87.9185 147.794 86.9432 148.181 85.9591C148.198 85.9152 148.216 85.8624 148.242 85.8097C148.304 85.6955 148.383 85.6867 148.444 85.7921C148.515 85.9064 148.567 86.0206 148.62 86.1436C149.112 87.3913 149.595 88.6302 150.087 89.8779C150.087 89.8867 150.096 89.9043 150.105 89.9131C150.263 90.3348 150.202 90.4139 149.745 90.4227C149.367 90.4227 148.98 90.4227 148.602 90.4227H148.33" fill="#0B0B0B"/>
</svg>
