<svg width="177" height="176" viewBox="0 0 177 176" fill="none" xmlns="http://www.w3.org/2000/svg">
<path d="M40.254 108.532H37.372L35.1666 108.233C26.1076 106.617 19.2014 99.1216 18.2348 89.9747C18.1997 89.6321 18.27 89.2367 18.0942 88.9116C18.1294 88.235 18.0503 87.5233 18.0942 86.8555C19.3859 68.1752 42.4594 60.1706 54.6552 74.6158C65.4803 87.4266 56.9046 107.539 40.254 108.532ZM32.0913 81.1003C30.1582 80.6522 27.9792 80.0986 26.011 79.879C24.6139 79.7208 24.6666 79.7735 24.4294 81.1618C23.9373 83.9823 24.0428 87.4618 24.1394 90.335C24.1921 92.0044 24.1746 93.8848 24.5085 95.5191C24.6315 96.1166 24.6666 96.4944 25.2377 96.7843C27.1884 97.7772 30.5888 98.5504 32.7678 99.1304C36.5988 100.15 40.5264 101.125 44.4716 101.617C45.0076 101.555 45.1306 100.114 45.1921 99.6576C45.4205 97.9442 45.4557 96.0199 45.4732 94.2802C47.3799 94.7195 49.4887 95.2731 51.413 95.5015C51.8523 95.5542 52.3092 95.6333 52.7397 95.5454C52.9682 95.4049 53.1703 94.1308 53.2142 93.8233C53.6272 90.8622 53.5305 87.4969 53.4251 84.5095C53.3724 82.9279 53.3812 81.0036 52.9682 79.4748C52.7749 78.7718 52.6782 78.7806 52.028 78.4907C49.7435 77.4539 46.3958 76.6806 43.918 76.0392C40.9569 75.266 37.3896 74.2731 34.3758 73.9129C34.077 73.8777 32.9699 73.7371 32.803 73.9041C32.6009 74.1062 32.4076 75.512 32.3637 75.8723C32.1704 77.4011 32.1879 78.93 32.1528 80.4589C32.1528 80.6697 32.0825 80.863 32.0825 81.1091L32.0913 81.1003Z" fill="#0B0B0B"/>
<path d="M45.4642 94.2712C42.7667 93.6473 40.0341 92.9532 37.3893 92.1624C36.1592 91.7934 34.6303 91.3892 33.4881 90.8532C32.6621 90.4666 32.6885 90.2206 32.5215 89.3507C32.0734 86.908 32.0646 83.6131 32.091 81.1089C35.6935 81.9436 39.955 82.9277 43.373 84.2633C44.2868 84.6235 44.6997 84.5884 44.9633 85.6252C45.5432 87.9361 45.4905 91.8373 45.4642 94.28V94.2712Z" fill="#0B0B0B"/>
<path d="M93.7466 76.1798C99.8094 75.8811 103.096 79.4396 103.368 85.3178C103.64 91.1961 103.473 98.2166 96.1893 99.271C90.1266 100.15 85.6805 97.0567 85.3203 90.8095C85.2061 88.8764 85.1885 85.9241 85.3994 84.0262C85.9441 79.22 88.9052 76.4258 93.7466 76.1798ZM93.7466 80.7752C92.3408 80.9158 91.3479 81.7681 90.9261 83.1036C90.4165 84.7116 90.478 89.017 90.601 90.8007C90.7856 93.3312 92.0332 95.027 94.7483 94.8162C97.1295 94.6316 97.9466 92.7425 98.0784 90.5986C98.1926 88.7534 98.2805 84.4216 97.6303 82.8137C96.9801 81.2057 95.4688 80.5995 93.7378 80.7752H93.7466Z" fill="#0B0B0B"/>
<path d="M141.625 76.5838C141.695 76.6541 141.695 76.7771 141.712 76.8738L137.152 96.1164C136.441 100.272 129.113 100.483 127.452 97.1005C125.607 90.4842 124.21 83.7273 122.523 77.0583C122.452 76.6365 122.716 76.4696 123.094 76.4257C124.394 76.2763 125.949 76.5399 127.276 76.4257C127.522 76.4257 127.715 76.619 127.838 76.8211L131.731 94.6754C131.801 95.1587 132.487 95.1587 132.557 94.6754L136.458 76.7683C136.555 76.5575 136.792 76.452 137.012 76.4257C137.89 76.3202 140.315 76.329 141.203 76.4257C141.308 76.4345 141.563 76.5135 141.633 76.5838H141.625Z" fill="#0B0B0B"/>
<path d="M157.889 80.8717C157.757 80.9332 157.617 80.9947 157.476 81.0035C156.053 81.0562 154.278 80.7223 152.802 80.6784C151.879 80.652 149.586 80.5026 148.944 81.188C148.303 81.8733 148.531 82.9804 149.234 83.5604C150.877 84.9223 153.768 85.8888 155.64 87.1716C160.419 90.449 159.4 97.3202 153.777 98.9457C151.51 99.6047 146.739 99.5168 144.516 98.6996C144.085 98.5415 143.962 98.3921 143.918 97.9264C143.848 97.2674 143.866 96.0549 143.918 95.3871C143.971 94.6754 144.041 94.5084 144.779 94.526C146.528 94.5787 151.062 95.3607 152.406 94.4733C153.1 94.0164 153.267 92.7687 152.968 92.0306C152.731 91.4507 151.976 90.9938 151.457 90.6599C147.573 88.1118 142.846 87.0311 143.303 81.3286C143.795 75.1428 152.362 75.8457 156.694 76.6453C157.01 76.7068 157.871 76.8123 157.968 77.1549L157.898 80.8629L157.889 80.8717Z" fill="#0B0B0B"/>
<path d="M110.09 80.7576H104.976C104.827 80.7576 104.563 80.4061 104.537 80.2392C104.44 79.6241 104.466 77.7438 104.537 77.0848C104.563 76.7597 104.686 76.5576 105.011 76.4697H120.449C120.73 76.584 120.888 76.6982 120.932 77.0233C121.003 77.6208 121.02 79.6768 120.932 80.248C120.906 80.4149 120.634 80.7664 120.493 80.7664H115.414L115.309 80.8718V98.7789C115.309 98.937 114.826 99.1391 114.659 99.1567C113.833 99.2533 111.645 99.2533 110.819 99.1567C110.485 99.1215 110.099 98.8667 110.099 98.5065V80.7752L110.09 80.7576Z" fill="#0B0B0B"/>
<path d="M78.5283 80.7576V98.691C78.5283 98.937 78.0274 99.1215 77.8078 99.1391C76.9731 99.2182 74.6973 99.2446 73.8978 99.1303C73.7044 99.104 73.3091 98.8843 73.3091 98.691V80.7576H68.1338C68.0283 80.7576 67.7471 80.4501 67.7647 80.3095C67.8526 79.2463 67.6417 77.9898 67.7647 76.953C67.7999 76.663 67.9141 76.5752 68.1777 76.4697H83.6157C83.9145 76.5664 84.0638 76.707 84.099 77.0145C84.1605 77.6735 84.1868 79.6944 84.099 80.3095C84.0726 80.494 83.8178 80.7576 83.6596 80.7576H78.5459H78.5283Z" fill="#0B0B0B"/>
</svg>
