<svg width="177" height="176" viewBox="0 0 177 176" fill="none" xmlns="http://www.w3.org/2000/svg">
<path d="M46.288 102.126H53.0098V82.5235H46.288V102.126ZM55.3294 69.1943H50.8044V73.7194H55.3294V69.1943ZM29.9274 71.3909H23.4341V77.0759H29.4617C33.2927 77.0759 35.4893 78.9298 35.4893 82.4093C35.4893 85.8888 33.2839 87.857 29.4617 87.857H23.4341V77.1901H16.7124V102.118H23.4341V93.5331H29.8132C37.5805 93.5331 42.1056 89.3595 42.1056 82.1633C42.1056 75.4328 37.6948 71.3734 29.9274 71.3734V71.3909ZM59.8545 64.6692H46.288V78.2357H59.8545V64.6692ZM57.6491 75.9248H48.6077V66.8746H57.6491V75.9248ZM97.0833 71.3909H90.9327V77.0759H96.7318C100.563 77.0759 102.759 78.9298 102.759 82.4093C102.759 85.8888 100.554 87.857 96.7318 87.857H90.9327V77.1901H84.211V102.118H90.9327V93.5331H97.0833C104.851 93.5331 109.376 89.3595 109.376 82.1633C109.376 75.4328 104.851 71.3734 97.0833 71.3734V71.3909ZM153.572 78.5871L147.773 93.1992L141.974 78.5871H135.015L144.294 102.126L140.7 111.054H147.773L160.531 78.5784H153.572V78.5871ZM123.417 78.4641C119.357 78.4641 116.22 79.3955 112.741 81.1352L114.832 85.7746C117.266 84.3863 119.7 83.6834 121.905 83.6834C125.156 83.6834 126.773 85.0716 126.773 87.6285V88.0942H120.271C114.472 88.0942 111.344 90.7653 111.344 95.1674C111.344 99.5695 114.358 102.469 119.463 102.469C122.714 102.469 125.033 101.309 126.887 99.3411V101.889H133.495V86.5829C133.275 81.5922 129.673 78.4641 123.408 78.4641H123.417ZM127.362 94.2448C126.668 96.213 124.691 97.8386 121.914 97.8386C119.595 97.8386 118.206 96.6787 118.206 94.8248C118.206 92.9708 119.48 92.1536 122.037 92.1536H127.371V94.2448H127.362ZM70.1788 97.0214C66.9277 97.0214 64.6169 94.4733 64.6169 90.6423C64.6169 86.8114 66.9365 84.3775 70.1788 84.3775C72.4984 84.3775 74.2382 85.3089 75.5122 86.9256L80.0373 83.6746C77.9461 80.5466 74.3524 78.6838 69.8273 78.6838C62.7541 78.5696 57.8776 83.4373 57.8776 90.6336C57.8776 97.8298 62.7453 102.583 69.8273 102.583C74.6951 102.583 78.2976 100.615 80.2658 97.3641L75.6265 94.236C74.4578 96.09 72.6039 97.0214 70.17 97.0214H70.1788Z" fill="#0B0B0B"/>
</svg>
