<svg width="177" height="176" viewBox="0 0 177 176" fill="none" xmlns="http://www.w3.org/2000/svg">
<path d="M161.359 92.3208C160.928 91.6705 157.106 92.3647 156.122 92.0747C155.34 91.8375 155.841 90.6601 154.944 90.6689C154.839 91.53 156.157 92.3559 156.174 92.8304C156.21 93.586 155.023 95.9232 154.795 96.8283C154.567 97.7333 154.189 100.29 154.364 101.081C154.531 101.81 155.603 102.689 155.357 103.708H153.407C153.512 102.786 152.669 101.863 152.66 101.125C152.651 100.387 153.205 99.7893 153.292 99.0601C153.512 97.2237 153.073 95.3697 152.871 93.5684C152.405 93.7002 151.377 94.2802 150.946 94.1572C150.709 94.0956 150.542 93.7266 150.226 93.6212C149.286 93.3049 147.924 93.2961 146.861 93.05C145.675 92.7777 144.541 92.3471 143.346 92.1187C143.469 93.7881 142.274 94.5174 143.047 96.2484C143.478 97.2061 145.508 99.1479 145.745 99.9827C145.833 100.308 145.56 103.515 145.297 103.515C144.884 103.524 143.618 102.417 143.601 102.171C143.583 101.924 144.11 101.432 144.084 101.134C144.067 100.976 143.777 100.756 143.75 100.492C143.698 100.088 143.944 99.7718 143.935 99.4555C143.935 99.0337 142.88 97.6542 142.503 97.3994C142.019 97.0743 140.728 96.9337 140.666 96.8546C140.578 96.7492 140.693 95.9496 140.596 95.5718C140.49 95.15 139.814 94.7019 139.823 94.2802C139.823 94.0693 140.807 92.5316 140.974 91.9166C141.026 91.7145 141.264 91.0379 140.859 91.0731C140.728 92.1714 140.121 93.4366 139.375 94.245C137.67 96.099 135.948 95.7651 135.535 99.0952C135.227 101.503 136.484 101.661 137.134 103.699L135.183 103.717C135.271 102.812 134.12 101.863 134.024 101.318C133.883 100.501 134.621 98.9722 134.445 97.5927C134.375 97.0128 133.804 96.222 133.857 95.9672C133.936 95.5366 134.762 95.3785 134.647 94.7986L133.611 95.0007C133.619 94.5174 134.032 94.2626 134.147 93.7705C134.709 91.3015 130.966 87.2685 133.918 84.8522C135.025 83.9471 136.036 84.2547 137.187 83.9823C138.909 83.5693 139.48 82.9806 141.562 83.2266C142.327 83.3145 143.522 84.035 144.084 83.6308C144.523 83.1563 143.97 82.6643 144.277 81.9702C144.462 81.5572 145.613 80.9509 145.613 80.8279C144.418 79.343 143.478 76.9969 145.824 76.1622C144.102 74.4313 144.919 71.8568 147.537 72.4455C147.88 72.5246 149.066 74.7037 149.339 74.5103C149.365 74.4928 149.382 74.071 149.637 73.8777C149.98 73.6141 150.428 73.7459 150.911 73.289C151.307 72.92 151.562 71.8832 151.632 71.8304C152.01 71.5756 153.055 72.5158 153.064 72.9551C153.09 73.9392 151.465 74.4401 151.403 74.6158C151.131 75.4769 152.098 75.0024 152.238 75.1342C152.335 75.2308 152.273 77.6296 152.194 77.8932C152.001 78.5346 150.955 78.7455 150.375 78.6576C150.533 79.7911 152.739 80.1865 151.21 81.2409C152.721 81.9526 152.352 82.1195 151.412 83.2091C152.098 83.3848 152.563 81.7768 152.783 81.7417C153.372 81.6538 154.277 82.6028 154.927 82.5852C154.593 81.7593 152.959 82.0404 153.09 81.0827C153.328 79.3518 156.403 76.83 158.151 76.6016C159.759 76.3907 161.077 77.1727 162.58 76.584C162.422 77.3484 162.272 77.366 163.01 77.735L161.025 84.448C160.243 85.3706 159.285 85.186 158.441 84.448C158.512 86.4865 159.751 88.2526 158.441 90.2383C159.329 90.335 160.172 90.6864 161.06 90.7831C161.613 90.8446 162.65 90.3086 162.958 91.4245C163.125 92.0308 162.272 94.9919 162.185 95.9496C162.141 96.4592 162.501 96.7843 162.281 97.4873C162.176 97.8387 160.919 100.264 160.506 99.9651C160.427 99.9036 159.751 98.1814 159.768 98.0847C159.865 97.6366 161.332 96.4329 161.332 95.7212C161.332 95.2028 161.429 92.4438 161.332 92.3032L161.359 92.3208ZM146.659 72.6564C145.938 72.6827 145.437 73.2802 145.209 73.8953C146.263 73.8689 146.351 74.7388 147.177 75.143L147.388 74.5191L148.214 75.1342C148.302 75.1342 148.723 74.4752 148.723 74.4137C148.723 73.7635 148.038 74.5103 148.003 74.5016C147.651 74.4664 146.966 73.0781 147.282 72.6564L146.869 73.8953L146.659 72.6564ZM152.458 73.0693C151.851 72.2786 150.63 74.1501 150.806 74.3083C151.254 74.4752 152.73 73.4208 152.458 73.0693ZM149.769 74.7212C150.041 74.9936 150.999 74.361 150.287 74.1062C149.681 73.8865 149.62 74.5719 149.769 74.7212ZM151.219 75.5472L150.911 74.7212C150.217 75.2396 150.331 75.5823 151.219 75.5472ZM150.358 75.5823C150.279 75.4681 149.382 75.3363 149.145 75.143C148.952 76.2677 149.312 76.3907 150.384 76.3819C150.349 76.1534 150.463 75.7492 150.358 75.5823ZM149.541 78.2622C149.268 78.0689 147.889 79.1145 147.985 79.5011C148.223 80.4325 150.507 82.0844 151.122 80.7225C151.518 79.835 149.672 79.1584 149.541 78.2622ZM148.53 82.7961C147.757 83.0597 146.044 81.1706 145.736 81.1794C145.595 81.1794 145.376 81.5484 145.226 81.6538C146.413 82.6994 147.142 85.0982 148.539 82.7961H148.53ZM146.044 83.2091C145.912 83.0948 144.866 81.2145 144.594 82.0756C144.515 82.3128 145.71 83.2003 146.044 83.2091ZM151.57 82.5325C152.282 81.7593 150.613 81.0739 151.008 82.7961C151.026 82.8225 151.518 82.594 151.57 82.5325ZM158.037 83.4287C157.985 83.3672 156.658 83.2354 156.394 83.2091C156.781 83.8681 158.125 83.1563 157.844 84.2371C158.204 84.3162 158.064 83.4551 158.037 83.4199V83.4287ZM152.229 92.9182C152.089 89.6233 152.054 86.3195 149.98 83.6308L148.53 87.3563C150.718 87.5672 150.033 89.0609 150.191 90.5634C150.235 90.9764 150.49 93.2785 150.604 93.3576L152.229 92.9182ZM134.858 88.7973L135.069 86.5216C134.735 86.5568 134.682 87.409 134.656 87.6639C134.639 87.9011 134.489 88.7973 134.858 88.7973Z" fill="#0B0B0B"/>
<path d="M76.6909 103.497V78.0337H85.4863C89.2997 78.0337 91.6984 82.2161 92.0059 85.5902C92.2695 88.5776 92.2959 95.932 91.3997 98.6382C90.5562 101.16 87.806 103.497 85.0821 103.497H76.6997H76.6909ZM81.4533 99.1479C83.8959 99.3587 86.4704 98.8667 86.9976 96.0989C87.4896 93.4893 87.4545 87.8835 86.9536 85.2651C86.3913 82.304 84.0101 82.2864 81.4533 82.3743V99.1391V99.1479Z" fill="#0B0B0B"/>
<path d="M116.6 77.6823C122.214 77.0409 125.536 79.7999 125.957 85.3881C126.203 88.6216 126.3 96.5383 125.29 99.4203C123.225 105.307 113.287 105.474 110.897 99.8333C109.623 96.8283 109.605 85.4057 110.625 82.2777C111.503 79.5802 113.841 77.9986 116.591 77.6911L116.6 77.6823ZM120.299 98.6647C120.773 98.1814 120.94 97.2324 120.993 96.5647C121.23 93.7881 121.327 87.0224 120.967 84.3601C120.545 81.276 115.519 81.0915 115.036 84.3952C114.693 86.7237 114.684 94.614 115 96.9513C115.044 97.3027 115.449 98.4626 115.659 98.6734C116.582 99.5872 119.35 99.6224 120.299 98.6559V98.6647Z" fill="#0B0B0B"/>
<path d="M57.4395 103.497L63.5373 78.2356C63.8976 77.7524 68.7829 78.1917 69.7319 78.0248L75.654 103.497H71.1026L69.8725 98.2076L63.5637 98.1021L62.193 103.497H57.4307H57.4395ZM68.8269 93.7703L66.6566 83.8327L64.4863 93.7703H68.8357H68.8269Z" fill="#0B0B0B"/>
<path d="M91.8037 103.497L97.9016 78.2356C98.2618 77.7524 103.147 78.1917 104.096 78.0248L110.018 103.497H105.467L104.237 98.2076L97.9367 98.1021L96.566 103.497H91.8037ZM103.191 93.7703L101.021 83.8327L98.8505 93.7703H103.2H103.191Z" fill="#0B0B0B"/>
<path d="M39.4446 85.063C39.1107 80.617 32.3362 80.8015 33.7333 85.2914C34.1726 86.7061 39.7785 89.219 41.2985 90.5546C46.8429 95.4136 44.242 103.62 36.6504 103.919C32.2044 104.095 28.7689 100.958 28.1362 96.6525L32.7931 95.642C32.9513 98.5943 37.037 101.643 38.8998 98.2956C41.0349 94.4646 34.7086 92.3295 32.4153 90.7391C30.122 89.1488 28.4877 87.0312 28.6722 84.1404C29.2346 75.266 42.4232 75.5735 43.9345 83.7362C43.8818 84.0174 39.6467 85.2387 39.4446 85.063Z" fill="#0B0B0B"/>
<path d="M27.0115 78.0337V82.383H18.9366C19.0508 82.6466 18.7257 82.9981 18.7257 83.1035V87.8659C18.7257 87.8659 19.0157 88.1734 19.0332 88.1734H25.1399V92.5228H18.9278C19.042 92.7864 18.7169 93.1378 18.7169 93.2433V98.8315C18.7169 98.8315 19.0069 99.1391 19.0244 99.1391H27.4069V103.488H13.9546V78.0249H26.9939L27.0115 78.0337Z" fill="#0B0B0B"/>
<path d="M60.7519 78.0337V82.3831H55.1636V103.497H50.1992V82.3831H44.813V78.0337H60.7519Z" fill="#0B0B0B"/>
<path d="M107.33 71.8303C106.785 74.5541 105.845 76.4784 102.691 76.1533C101.197 75.9951 98.7015 74.229 97.489 75.3449C97.1639 75.6437 97.0321 76.3466 96.8387 76.3905C96.2852 76.5223 95.3187 76.2851 94.6948 76.3817C94.9057 73.6931 96.6367 71.6282 99.5099 72.0851C100.863 72.3048 103.051 73.8512 104.299 73.0516C104.755 72.7617 104.755 72.006 105.177 71.8654C105.74 71.6809 106.697 71.9269 107.321 71.8303H107.33Z" fill="#0B0B0B"/>
</svg>
