<svg width="177" height="176" viewBox="0 0 177 176" fill="none" xmlns="http://www.w3.org/2000/svg">
<path d="M12.8285 86.9345C14.0323 86.9697 15.4206 86.9345 16.7913 86.6446C18.9879 86.1877 21.0352 85.3529 22.898 84.114C25.6657 82.2776 27.8009 79.8877 29.0837 76.7948C29.6988 75.3099 30.0502 73.7546 30.0678 72.1379C30.0678 71.9622 30.0678 71.8216 29.8306 71.7777C27.6339 71.3559 25.4461 71.3471 23.2582 71.8304C19.7963 72.5948 16.8791 74.3082 14.5243 76.9354C12.0377 79.7119 10.6231 82.963 10.2892 86.6709C10.2716 86.8906 10.3331 86.9433 10.5352 86.9433C11.2382 86.9433 11.9411 86.9433 12.8285 86.9433M12.89 88.7797C11.8972 88.7797 11.2118 88.7797 10.5177 88.7797C10.3507 88.7797 10.2453 88.8061 10.2629 89.0257C10.3419 89.922 10.4474 90.8094 10.667 91.6881C11.6248 95.5542 13.7248 98.6822 16.9319 101.019C20.7628 103.822 25.0419 104.798 29.7339 103.963C30.0151 103.91 30.0854 103.805 30.0854 103.532C30.0502 102.047 29.7779 100.598 29.2067 99.227C27.1243 94.1659 23.3021 91.0291 18.1532 89.4123C16.352 88.85 14.4804 88.7006 12.8988 88.7797M31.9042 87.8571V102.979C31.9042 103.383 31.9042 103.392 32.2732 103.251C34.4523 102.434 36.4029 101.248 38.046 99.6136C41.5782 96.1165 43.2565 91.8902 43.0017 86.9169C42.8962 84.8785 42.4305 82.9278 41.5782 81.0827C39.6452 76.9266 36.5347 74.0358 32.2293 72.4367C31.913 72.3224 31.9042 72.34 31.8954 72.6827C31.8954 72.7705 31.8954 72.8496 31.8954 72.9375V87.8659M45.1017 69.4404C45.1017 69.5898 45.1192 69.7304 45.1192 69.8798C45.1192 81.8471 45.1192 93.8056 45.1192 105.773C45.1192 105.861 45.1192 105.94 45.1192 106.028C45.1368 106.23 45.0489 106.318 44.8469 106.3C44.7414 106.3 44.636 106.3 44.5305 106.3C32.5896 106.3 20.6574 106.3 8.71641 106.3C8.54947 106.3 8.38252 106.283 8.21558 106.283C8.21558 94.0956 8.21558 81.9174 8.21558 69.7304C8.21558 69.4932 8.2683 69.4404 8.50553 69.4404C20.7013 69.4404 32.9059 69.4404 45.1017 69.4404Z" fill="#0B0B0B"/>
<path d="M54.2573 85.1331C54.2573 83.0595 54.2573 80.9947 54.2573 78.921C54.2573 78.6135 54.3364 78.5081 54.6615 78.5081C58.2025 78.5168 61.7435 78.5168 65.2757 78.5081C65.5832 78.5081 65.6711 78.6135 65.6711 78.9035C65.6535 79.6591 65.6535 80.406 65.6711 81.1616C65.6711 81.4691 65.5569 81.557 65.2669 81.557C62.833 81.557 60.4079 81.557 57.9828 81.557C57.6607 81.557 57.4996 81.7181 57.4996 82.0403C57.4996 83.1474 57.5084 84.2545 57.4996 85.3616C57.4996 85.6603 57.5962 85.757 57.895 85.757C60.1443 85.7482 62.3937 85.757 64.6519 85.757C65.1791 85.757 65.1791 85.757 65.1791 86.293V88.3666C65.1791 88.8147 65.1791 88.8235 64.7222 88.8235C62.4904 88.8235 60.2586 88.8235 58.0268 88.8235C57.5084 88.8235 57.4996 88.8235 57.5084 89.3331C57.5084 89.9921 57.5084 90.6511 57.5084 91.3101C57.5259 92.7775 58.5188 93.7616 59.995 93.7704C61.805 93.7704 63.615 93.7704 65.4339 93.7704C65.8732 93.7704 65.8732 93.7704 65.8732 94.2009C65.8732 94.9478 65.8732 95.6858 65.8732 96.4239C65.8732 96.6963 65.8029 96.8193 65.5042 96.8105C63.5975 96.8017 61.6908 96.8281 59.7841 96.7929C58.6418 96.7754 57.5347 96.5645 56.5418 95.9406C55.2502 95.1411 54.6351 93.9109 54.3891 92.4524C54.231 91.5561 54.2661 90.6599 54.2661 89.7637C54.2661 88.2172 54.2661 86.6708 54.2661 85.1156" fill="#0B0B0B"/>
<path d="M80.2131 88.6917C81.2587 88.6917 82.3043 88.6917 83.3499 88.6917C83.7277 88.6917 83.7277 88.6917 83.6662 88.3315C83.5695 87.734 83.2708 87.2331 82.8315 86.829C81.575 85.6691 79.475 85.59 78.0076 86.6444C77.4013 87.0838 76.9708 87.6373 76.7775 88.3754C76.716 88.6126 76.7599 88.7093 77.0323 88.7093C78.0867 88.6917 79.1499 88.7093 80.2043 88.7093M81.8122 90.985H77.0411C76.6457 90.985 76.6457 91.0114 76.6984 91.398C76.962 93.1114 78.3327 94.1921 80.0813 94.3415C81.5838 94.4733 82.9017 94.1042 83.9825 93.0235C84.1231 92.8917 84.2373 92.8829 84.3779 93.0235C84.8963 93.5419 85.4235 94.0515 85.9595 94.5524C86.144 94.7281 86.0298 94.8335 85.9068 94.9565C84.6942 96.1867 83.2356 96.9072 81.5047 97.0741C79.8967 97.2323 78.3503 97.0565 76.9005 96.3097C74.9938 95.3256 73.9219 93.7352 73.5616 91.644C73.2892 90.08 73.4122 88.5335 74.0537 87.0662C74.9762 84.975 76.6018 83.7361 78.816 83.288C80.6963 82.9101 82.5064 83.1122 84.1407 84.2018C85.7135 85.2474 86.5833 86.7499 86.8996 88.5863C87.0139 89.2628 87.049 89.957 86.9787 90.6423C86.9524 90.8971 86.8645 90.9762 86.6185 90.9762C85.0193 90.9762 83.4114 90.9762 81.8122 90.9762" fill="#0B0B0B"/>
<path d="M131.412 90.168C131.412 87.8659 129.655 86.091 127.379 86.091C125.077 86.091 123.337 87.8571 123.337 90.1943C123.337 92.5052 125.077 94.2713 127.37 94.2713C129.664 94.2713 131.412 92.5052 131.412 90.168ZM120.148 90.1855C120.139 86.7763 122.573 83.868 125.938 83.2969C128.627 82.84 130.964 83.5341 132.845 85.5462C133.925 86.706 134.488 88.1119 134.602 89.7111C134.865 93.4893 132.142 96.5382 128.627 97.1006C124.901 97.7069 121.229 95.5717 120.324 91.7935C120.192 91.2663 120.139 90.7215 120.148 90.1767" fill="#0B0B0B"/>
<path d="M154.196 87.9275C154.196 89.1576 154.214 90.3965 154.196 91.6266C154.143 94.7459 152.149 96.6613 149.284 97.0655C147.887 97.2588 146.499 97.171 145.19 96.5998C143.38 95.809 142.352 94.4208 142.088 92.4701C142.044 92.1362 142.035 91.8024 142.035 91.4685C142.035 88.9731 142.035 86.4689 142.035 83.9735C142.035 83.5518 142.035 83.5517 142.448 83.5517C143.248 83.5517 144.039 83.5517 144.838 83.5517C145.278 83.5517 145.278 83.5518 145.278 83.9823C145.278 86.425 145.278 88.8764 145.278 91.3191C145.278 91.6706 145.322 92.0044 145.409 92.3383C145.682 93.3488 146.473 94.0078 147.509 94.1484C147.975 94.2099 148.423 94.2099 148.88 94.122C150.005 93.8936 150.725 93.1291 150.892 91.9957C150.936 91.6881 150.963 91.3718 150.963 91.0555C150.963 88.6919 150.963 86.3283 150.963 83.9647C150.963 83.543 150.963 83.543 151.376 83.5342C152.184 83.5342 152.992 83.543 153.792 83.5342C154.099 83.5342 154.214 83.6133 154.205 83.9384C154.187 85.2651 154.205 86.5919 154.205 87.9187" fill="#0B0B0B"/>
<path d="M167.358 96.8195C166.91 96.8195 166.453 96.8019 166.005 96.8195C165.75 96.8282 165.601 96.7316 165.461 96.5295C164.494 95.1764 163.519 93.832 162.552 92.4789C162.341 92.1801 162.332 92.1801 162.122 92.4789C161.146 93.832 160.171 95.1764 159.213 96.5295C159.073 96.7316 158.923 96.8195 158.668 96.8195C157.755 96.8019 156.85 96.8195 155.936 96.8195C155.839 96.8195 155.707 96.8634 155.655 96.7492C155.602 96.6437 155.716 96.5559 155.769 96.4768C157.298 94.3504 158.818 92.2241 160.356 90.1065C160.514 89.8956 160.522 89.755 160.356 89.5442C158.976 87.6726 157.605 85.8011 156.235 83.9207C156.164 83.8241 156.024 83.7274 156.103 83.6044C156.164 83.499 156.314 83.5517 156.428 83.5517C157.333 83.5517 158.229 83.5517 159.125 83.5517C159.371 83.5517 159.53 83.6396 159.67 83.8329C160.479 84.9576 161.296 86.0647 162.113 87.1806C162.332 87.4793 162.332 87.4793 162.561 87.1718C163.361 86.0647 164.169 84.9576 164.968 83.8329C165.118 83.622 165.285 83.5429 165.54 83.5429C166.453 83.5605 167.358 83.5429 168.272 83.5429C168.369 83.5429 168.509 83.499 168.571 83.5956C168.65 83.7187 168.518 83.8065 168.457 83.8944C167.095 85.7484 165.742 87.6111 164.362 89.4563C164.151 89.7287 164.186 89.9044 164.371 90.1592C165.847 92.1977 167.314 94.2538 168.782 96.301C168.808 96.345 168.852 96.3801 168.87 96.4328C168.931 96.5383 169.081 96.6349 169.019 96.7579C168.958 96.8897 168.791 96.8282 168.676 96.8282C168.237 96.8282 167.798 96.8282 167.358 96.8282" fill="#0B0B0B"/>
<path d="M95.8003 83.0948C97.7948 83.0772 99.4994 83.7538 100.923 85.1509C101.116 85.3442 101.134 85.4584 100.923 85.6517C100.404 86.1613 99.8948 86.6973 99.4028 87.2333C99.2358 87.4178 99.1216 87.4442 98.9283 87.2597C98.0057 86.3898 96.9074 85.9944 95.6421 86.0208C93.6212 86.0559 91.9342 87.6726 91.7848 89.6848C91.6794 91.117 92.0748 92.3471 93.1731 93.3048C93.8057 93.8584 94.5614 94.1483 95.3961 94.2098C96.7668 94.3153 97.9618 93.9375 98.9459 92.9709C99.1041 92.8128 99.2095 92.8304 99.3589 92.9885C99.8861 93.5421 100.413 94.0956 100.949 94.6404C101.134 94.8249 101.099 94.9391 100.932 95.1061C99.7279 96.2835 98.3133 96.9776 96.6262 97.1446C94.5614 97.3467 92.6986 96.8634 91.0819 95.5542C89.6497 94.3944 88.8325 92.8831 88.6129 91.0555C88.3581 88.9291 88.894 87.0312 90.335 85.4321C91.4949 84.1404 92.9622 83.4287 94.6668 83.1651C95.0446 83.1124 95.4137 83.0948 95.7915 83.0948" fill="#0B0B0B"/>
<path d="M103.014 85.0189V78.9298C103.014 78.5168 103.014 78.5168 103.436 78.5168C104.235 78.5168 105.026 78.5168 105.826 78.5168C106.248 78.5168 106.256 78.5168 106.256 78.9562C106.256 80.362 106.265 81.7591 106.256 83.1562C106.256 83.4637 106.353 83.5516 106.652 83.5428C107.355 83.5252 108.058 83.5428 108.752 83.534C109.007 83.534 109.103 83.6219 109.094 83.8767C109.086 84.6323 109.086 85.3792 109.094 86.1348C109.094 86.3808 109.015 86.4687 108.769 86.4599C108.049 86.4511 107.328 86.4599 106.599 86.4599C106.353 86.4599 106.248 86.5214 106.248 86.7938C106.256 88.2963 106.248 89.8076 106.256 91.3101C106.274 92.7599 107.258 93.744 108.717 93.7704C109.138 93.7704 109.147 93.7704 109.147 94.2185C109.147 94.9829 109.147 95.7473 109.147 96.5118C109.147 96.7139 109.094 96.8281 108.866 96.8193C107.856 96.8017 106.863 96.6875 105.923 96.2833C104.367 95.6068 103.541 94.3678 103.207 92.7599C103.067 92.0833 103.014 91.398 103.014 90.7038V85.0277" fill="#0B0B0B"/>
<path d="M71.2506 87.6988V96.3536C71.2506 96.8105 71.2506 96.8105 70.8024 96.8105C69.9941 96.8105 69.1857 96.8105 68.3861 96.8105C68.1225 96.8105 68.0083 96.749 68.0083 96.459C68.0083 90.5808 68.0083 84.7114 68.0083 78.8332C68.0083 78.5696 68.1137 78.4993 68.3598 78.4993C69.1857 78.5081 70.0116 78.5168 70.8376 78.4993C71.1539 78.4993 71.2506 78.5959 71.2506 78.9122C71.2418 81.8382 71.2506 84.7641 71.2506 87.69" fill="#0B0B0B"/>
<path d="M139.68 87.6725V96.3888C139.68 96.8105 139.68 96.8105 139.268 96.8105C138.459 96.8105 137.651 96.8017 136.851 96.8105C136.544 96.8105 136.429 96.6963 136.456 96.4063C136.456 96.336 136.456 96.257 136.456 96.1867V79.0968C136.456 78.9825 136.456 78.8683 136.456 78.7541C136.456 78.5871 136.526 78.5081 136.702 78.5081C137.616 78.5081 138.521 78.5081 139.434 78.5081C139.61 78.5081 139.68 78.5871 139.672 78.7541C139.672 78.8595 139.672 78.965 139.672 79.0704V87.6637" fill="#0B0B0B"/>
<path d="M114.867 85.2563C115.561 84.2019 116.519 83.6132 117.723 83.3847C118.312 83.2705 118.9 83.2441 119.498 83.3408C119.682 83.3671 119.753 83.4462 119.753 83.622C119.753 84.483 119.753 85.3353 119.753 86.1964C119.753 86.4249 119.638 86.4776 119.428 86.4337C118.742 86.3107 118.057 86.3107 117.371 86.46C116.053 86.75 115.087 87.8132 114.92 89.1575C114.876 89.5002 114.867 89.8429 114.867 90.1855C114.867 92.2504 114.867 94.324 114.867 96.3976C114.867 96.8106 114.867 96.8194 114.446 96.8194C113.637 96.8194 112.838 96.8194 112.029 96.8194C111.774 96.8194 111.678 96.7403 111.678 96.4767C111.678 92.2767 111.678 88.068 111.678 83.868C111.678 83.622 111.757 83.5341 112.003 83.5341C112.846 83.5429 113.699 83.5429 114.551 83.5341C114.806 83.5341 114.876 83.6395 114.867 83.8768C114.858 84.3337 114.867 84.7906 114.867 85.2475" fill="#0B0B0B"/>
</svg>
