<svg width="177" height="176" viewBox="0 0 177 176" fill="none" xmlns="http://www.w3.org/2000/svg">
<path d="M168.86 99.5169C168.763 99.5169 168.675 99.5432 168.579 99.5432C166.707 99.5432 164.844 99.5432 162.973 99.5432C162.727 99.5432 162.657 99.4817 162.657 99.2357C162.665 96.3537 162.657 93.4805 162.665 90.5985C162.665 90.3349 162.621 90.247 162.332 90.2558C160.161 90.2734 157.991 90.2646 155.821 90.2558C155.575 90.2558 155.513 90.3261 155.513 90.5633C155.513 93.4541 155.513 96.3361 155.522 99.2269C155.522 99.4554 155.487 99.5432 155.223 99.5432C153.369 99.5345 151.506 99.5345 149.652 99.5432C149.38 99.5432 149.336 99.4554 149.336 99.2094C149.336 91.6002 149.336 83.9822 149.336 76.373C149.336 76.0918 149.415 76.0303 149.679 76.0391C151.524 76.0479 153.369 76.0479 155.214 76.0391C155.46 76.0391 155.522 76.1006 155.522 76.3466C155.513 79.0266 155.522 81.7065 155.513 84.3864C155.513 84.6236 155.566 84.6939 155.821 84.6939C158 84.6851 160.179 84.6851 162.358 84.6939C162.604 84.6939 162.665 84.6324 162.665 84.3864C162.657 81.7153 162.665 79.0441 162.657 76.3818C162.657 76.1094 162.718 76.0391 162.999 76.0391C164.95 76.0567 166.901 76.0567 168.851 76.0567V99.5169H168.86Z" fill="#0B0B0B"/>
<path d="M8.62769 88.3228C8.70676 88.4458 8.73312 88.5688 8.62769 88.7006V88.3228Z" fill="#0B0B0B"/>
<path d="M115.877 75.4153C119.119 75.4329 121.94 76.4872 124.198 78.8684C124.365 79.0441 124.391 79.1408 124.198 79.3253C123.108 80.3885 122.027 81.4605 120.947 82.5412C120.78 82.7169 120.701 82.6906 120.543 82.5324C119.198 81.1881 117.581 80.5203 115.675 80.5642C115.104 80.573 114.568 80.74 114.067 81.0211C112.916 81.6713 112.599 83.4462 114.049 84.2546C114.822 84.6851 115.675 84.8696 116.527 85.0629C117.959 85.3881 119.409 85.6429 120.78 86.1876C122.432 86.8466 123.794 87.8483 124.4 89.5793C125.454 92.6106 124.866 96.4767 121.237 98.5943C119.804 99.429 118.258 99.8859 116.615 99.9826C114.286 100.123 112.02 99.8508 109.884 98.814C108.382 98.0847 107.169 97.0039 106.097 95.7474C106.01 95.642 106.01 95.5893 106.097 95.4926C107.266 94.3416 108.426 93.1905 109.586 92.0395C109.744 91.8813 109.788 92.0044 109.858 92.101C110.719 93.1466 111.756 93.9725 113.03 94.4558C114.357 94.9566 115.719 95.1412 117.098 94.737C117.933 94.491 118.566 93.9989 118.785 93.1027C119.005 92.2064 118.689 91.4596 117.88 91.0115C117.081 90.5634 116.193 90.3788 115.306 90.1855C113.751 89.8429 112.178 89.5529 110.754 88.7972C108.962 87.8483 107.688 86.4688 107.257 84.4479C106.44 80.6257 108.391 77.2429 112.116 75.9952C113.311 75.591 114.471 75.4153 115.868 75.4153H115.877Z" fill="#0B0B0B"/>
<path d="M137.852 100.106C133.23 100.027 129.909 97.8651 128.081 93.6475C126.351 89.6672 126.35 85.5814 128.117 81.6011C129.751 77.9195 132.677 75.9162 136.692 75.5384C138.467 75.3714 140.216 75.5384 141.885 76.1974C143.845 76.9706 145.303 78.3588 146.507 80.0371C146.894 80.5819 146.885 80.5819 146.331 80.9421C145.022 81.812 143.704 82.6818 142.404 83.5517C142.21 83.6835 142.122 83.6923 141.982 83.4639C141.367 82.4446 140.558 81.645 139.381 81.2936C137.017 80.5819 134.645 81.6802 133.494 84.035C132.817 85.4321 132.65 86.9258 132.765 88.4546C132.853 89.6233 133.116 90.7392 133.687 91.7672C134.909 93.9638 137.36 94.9655 139.618 94.1923C140.646 93.8408 141.349 93.1027 141.938 92.2329C142.137 91.9341 142.392 91.8873 142.702 92.0923C144.064 93.0061 145.417 93.9199 146.779 94.8249C146.964 94.9479 146.999 95.027 146.858 95.2203C146.182 96.1429 145.47 97.0479 144.618 97.8211C143.142 99.1567 141.376 99.8157 139.416 100.009C138.898 100.062 138.379 100.088 137.843 100.097L137.852 100.106Z" fill="#0B0B0B"/>
<path d="M43.8795 84.026C41.7443 74.352 32.0615 68.2453 22.4314 70.5034C15.2264 72.1992 9.83145 78.095 8.80342 85.3879C8.7507 85.7394 8.78584 86.1084 8.62769 86.4423V88.3226C8.68041 88.4456 8.68041 88.5687 8.62769 88.7005V89.3243C8.73312 89.3507 8.68919 89.4473 8.69798 89.5088C8.77706 90.3084 8.90007 91.0992 9.0758 91.8812C11.2637 101.485 21.0168 107.513 30.6293 105.202C40.0749 102.935 45.9619 93.5155 43.8707 84.0348L43.8795 84.026ZM26.4293 104.024C17.5109 103.998 10.2971 96.7665 10.3059 87.8657C10.3147 78.921 17.5461 71.716 26.5084 71.7248C35.418 71.7336 42.6406 78.9649 42.6318 87.8745C42.6318 96.8105 35.3653 104.051 26.4293 104.024Z" fill="#0B0B0B"/>
<path d="M79.2806 88.4106C78.6743 87.9273 77.9801 87.5934 77.1718 87.3123C78.0768 86.9344 78.7885 86.4072 79.3508 85.6779C80.291 84.4566 80.5458 83.0771 80.3613 81.5746C80.1065 79.4307 79.0697 77.8227 77.1103 76.865C75.9153 76.2763 74.6412 76.0566 73.3232 76.0479C69.6592 76.0479 66.004 76.0478 62.34 76.0391C62.094 76.0391 62.0588 76.1181 62.0588 76.3378C62.0588 83.9733 62.0588 91.6001 62.0588 99.2357C62.0588 99.4905 62.1116 99.5695 62.3752 99.5695C66.2237 99.5608 70.0722 99.5695 73.9207 99.5695C74.6939 99.5695 75.4584 99.4817 76.2052 99.2796C78.9291 98.5327 81.1433 96.4415 81.3718 93.5683C81.5387 91.5122 80.9236 89.7461 79.263 88.4194L79.2806 88.4106ZM67.7877 84.975C67.8141 83.7185 67.8228 82.4533 67.8316 81.1968C67.8316 80.9771 67.8931 80.9244 68.104 80.9244C69.4923 80.9332 70.8718 80.9244 72.2601 80.9244C73.3584 80.9244 74.281 81.7855 74.3425 82.8487C74.4128 84.0788 73.6044 85.1332 72.4622 85.2562C71.6977 85.3353 70.9245 85.2738 70.2831 85.2913C69.4659 85.2913 68.7894 85.2825 68.1128 85.2913C67.858 85.2913 67.7701 85.2386 67.7789 84.9662L67.7877 84.975ZM75.0103 93.2168C74.65 94.1394 73.868 94.4557 72.9718 94.5788C72.0756 94.7018 71.1793 94.6051 70.4676 94.6403C69.5714 94.6403 68.8509 94.6403 68.1304 94.6403C67.9459 94.6403 67.8843 94.5963 67.8843 94.403C67.8843 93.0147 67.8843 91.6265 67.8843 90.247C67.8843 90.1064 67.8843 90.0097 68.0777 90.0185C69.668 90.0537 71.2672 89.9482 72.8576 90.08C73.1036 90.0976 73.3496 90.1591 73.5868 90.2382C74.9224 90.6687 75.5199 91.9164 75.0191 93.2256L75.0103 93.2168Z" fill="#0B0B0B"/>
<path d="M104.955 87.4793C104.92 86.2668 104.797 85.1157 104.516 83.9735C103.971 81.7329 102.996 79.7032 101.274 78.1392C98.3212 75.4593 94.8417 74.9145 91.0987 75.881C88.0761 76.663 85.9673 78.64 84.6844 81.4429C83.0501 85.0015 82.9359 88.6919 84.0342 92.4174C84.702 94.7019 85.9409 96.6437 87.874 98.0847C90.1849 99.7981 92.812 100.317 95.6237 99.9738C99.1911 99.5345 101.783 97.6454 103.435 94.4822C104.586 92.2856 104.973 89.9044 104.955 87.4793ZM98.2421 91.9693C96.6254 95.0094 93.0932 94.9216 91.3886 93.5508C90.3694 92.7337 89.7807 91.6442 89.4819 90.4052C88.9635 88.2877 88.9899 86.1877 89.807 84.1492C90.3957 82.6906 91.3886 81.645 92.9702 81.2496C95.0175 80.74 96.9857 81.5396 98.084 83.3496C98.9099 84.7115 99.1472 86.2228 99.1823 87.7429C99.156 89.2454 98.9363 90.6688 98.2421 91.978V91.9693Z" fill="#0B0B0B"/>
<path d="M39.7059 86.1876C39.3105 82.5763 37.5356 79.6592 34.7063 77.3746C34.1528 76.9265 33.5904 76.6541 32.8699 76.742C32.6503 76.7684 32.6064 76.8211 32.6064 77.0232C32.6064 78.8596 32.6063 80.696 32.6151 82.5324C32.6151 82.7872 32.5624 82.8575 32.2988 82.8575C28.4327 82.8487 24.5578 82.8487 20.6917 82.8575C20.4369 82.8575 20.3579 82.8048 20.3579 82.5324C20.3666 80.8014 20.3579 79.0705 20.3579 77.3395C20.3579 76.7508 20.3579 76.742 19.7516 76.7508C19.4353 76.7508 19.1277 76.6981 18.829 76.9265C14.6729 80.0106 12.7223 84.114 13.1968 89.2717C13.5395 93.0323 15.3319 96.0637 18.2842 98.4273C18.8202 98.8578 19.3562 99.0863 20.0503 99.016C20.2876 98.9896 20.3666 98.9545 20.3579 98.6997C20.3491 96.8721 20.3579 95.0533 20.3491 93.2256C20.3491 92.9708 20.4106 92.8918 20.6742 92.9005C22.6072 92.9093 24.5315 92.9005 26.4645 92.9005C28.3976 92.9005 30.3482 92.9005 32.2812 92.9005C32.5361 92.9005 32.6151 92.9533 32.6064 93.2169C32.5888 94.9478 32.6064 96.6788 32.6064 98.4097C32.6064 99.016 32.6064 99.0248 33.2038 99.0072C33.4762 99.0072 33.7574 99.0775 34.0122 98.8842C38.3352 95.7298 40.2858 91.4859 39.7059 86.1788V86.1876ZM18.6357 96.5382C13.5922 92.1713 13.311 83.9119 18.6357 79.1847V96.5382ZM32.6151 90.9148C32.6151 91.1432 32.5712 91.2047 32.334 91.2047C30.3833 91.1959 28.4327 91.2047 26.4909 91.2047C24.5491 91.2047 22.616 91.2047 20.6742 91.2047C20.4369 91.2047 20.3579 91.1608 20.3579 90.906C20.3666 88.8763 20.3666 86.8378 20.3579 84.8081C20.3579 84.5621 20.4194 84.5006 20.6654 84.5006C24.5491 84.5006 28.4415 84.5006 32.3252 84.5006C32.5536 84.5006 32.6151 84.5533 32.6151 84.7905C32.6063 86.829 32.6063 88.8763 32.6151 90.9148ZM34.3285 96.4855C34.267 96.2482 34.2494 79.8525 34.3022 79.1847C39.4335 83.7889 39.4423 91.8989 34.3285 96.4855Z" fill="#0B0B0B"/>
</svg>
