<svg width="177" height="176" viewBox="0 0 177 176" fill="none" xmlns="http://www.w3.org/2000/svg">
<path d="M88.3783 126.553C109.73 126.553 127.066 109.173 127.066 87.8658C127.066 66.5583 109.73 49.1785 88.3783 49.1785C67.0269 49.1785 49.6909 66.5583 49.6909 87.8658C49.6909 109.173 67.0269 126.553 88.3783 126.553ZM58.0118 102.654C57.5286 97.8474 57.5022 92.8917 57.5022 87.8658C57.5022 82.8399 57.5286 77.8842 58.0118 73.078C58.2754 70.4596 59.5758 69.8621 62.0009 69.6073C70.3921 68.7286 79.6795 68.5177 88.3783 68.5441C97.077 68.5177 106.364 68.7198 114.756 69.6073C117.181 69.8621 118.49 70.4596 118.745 73.078C119.228 77.8842 119.254 82.8399 119.254 87.8658C119.254 92.8917 119.228 97.8474 118.745 102.654C118.481 105.272 117.181 105.87 114.756 106.124C106.364 107.003 97.077 107.214 88.3783 107.188C79.6795 107.214 70.3921 107.012 62.0009 106.124C59.5758 105.87 58.2666 105.272 58.0118 102.654Z" fill="#0B0B0B"/>
<path d="M88.3784 103.444C97.042 103.444 104.019 96.4414 104.019 87.8657C104.019 79.29 97.042 72.2871 88.3784 72.2871C79.7148 72.2871 72.7383 79.29 72.7383 87.8657C72.7383 96.4414 79.7148 103.444 88.3784 103.444Z" fill="#0B0B0B"/>
</svg>
