<svg width="177" height="176" viewBox="0 0 177 176" fill="none" xmlns="http://www.w3.org/2000/svg">
<path d="M90.1869 77.858C89.9409 77.735 89.7213 77.7878 89.5104 77.7878C85.7673 77.7878 82.0242 77.7878 78.2811 77.7878C77.3322 77.7878 77.3234 77.779 77.3234 76.8212C77.3234 75.3275 77.3234 73.8426 77.3234 72.3489C77.3234 72.2258 77.3234 72.1116 77.3234 71.9886C77.3585 71.5141 77.4288 71.4438 77.8945 71.4175C78.0351 71.4175 78.1757 71.4175 78.3163 71.4175C85.3016 71.4175 92.2957 71.4175 99.2811 71.4175C99.9547 71.4175 100.292 71.7572 100.292 72.4367C100.292 73.8689 100.283 75.3012 100.292 76.7246C100.292 77.1375 100.151 77.4187 99.8346 77.6911C97.0053 80.1689 94.2024 82.6643 91.3819 85.1509C90.8372 85.6342 90.8372 85.6342 91.3204 86.2053C93.315 88.5513 95.3183 90.8973 97.3129 93.2434C97.9455 93.9902 98.543 94.7546 99.1053 95.5454C100.423 97.417 101.038 99.517 101.258 101.775C101.451 103.778 101.205 105.703 100.52 107.574C99.7555 109.639 98.4727 111.344 96.7681 112.706C94.7384 114.322 92.41 115.21 89.8267 115.473C86.7514 115.781 83.9133 115.078 81.3652 113.382C78.4129 111.423 76.6908 108.637 76.0757 105.149C75.6891 102.97 75.9439 100.861 76.7523 98.8404C77.7715 96.2835 79.5376 94.3241 81.9715 93.0061C83.4037 92.2241 84.9589 91.8024 86.5581 91.5651C86.848 91.5212 87.138 91.4773 87.4807 91.4245C87.3313 91.0906 87.1116 90.8886 86.9271 90.6689C85.4246 88.9204 83.9133 87.1806 82.402 85.4321C82.0506 85.0191 82.0594 85.0015 82.4811 84.6325C85.0116 82.4271 87.551 80.2216 90.0815 78.0162C90.1079 77.9898 90.1254 77.9547 90.1782 77.8668L90.1869 77.858ZM94.3957 103.172C94.3957 103.04 94.3957 102.944 94.3957 102.838C94.3781 100.527 93.2886 98.858 91.2765 97.7948C89.6685 96.9513 87.9727 97.004 86.2945 97.5576C85.1171 97.9442 84.2209 98.7086 83.5706 99.763C82.6041 101.336 82.402 103.032 82.815 104.807C83.184 106.397 84.0715 107.609 85.4949 108.435C86.2769 108.883 87.1116 109.103 87.9903 109.165C90.2397 109.323 92.0936 108.585 93.4116 106.687C94.1497 105.624 94.4396 104.42 94.3869 103.163L94.3957 103.172Z" fill="#0B0B0B"/>
<path d="M57.4923 95.5717C57.2638 95.5453 57.1672 95.721 57.0442 95.8353C55.1814 97.5135 52.9672 98.3834 50.4982 98.5415C47.5019 98.7348 44.7078 98.0143 42.2651 96.2658C39.8576 94.5436 38.2497 92.2152 37.4325 89.3683C36.8965 87.4968 36.6769 85.5901 36.7999 83.6483C36.9317 81.6889 37.4413 79.8173 38.4078 78.0864C39.4974 76.127 40.9296 74.4663 42.7835 73.201C45.0593 71.637 47.6074 70.8901 50.3664 70.8286C52.8002 70.7759 55.1287 71.2504 57.2726 72.419C61.086 74.4926 63.3266 77.7173 64.0822 81.97C64.2492 82.9102 64.2755 83.8679 64.2843 84.8169C64.3019 89.0081 64.2931 93.1993 64.2931 97.3905C64.2931 98.2516 64.2667 98.2779 63.3793 98.2779C61.7274 98.2779 60.0755 98.2779 58.4237 98.2779C58.2831 98.2779 58.1425 98.2779 58.0019 98.2691C57.7119 98.2604 57.5714 98.111 57.5714 97.821C57.5714 97.2675 57.5714 96.7051 57.5714 96.1516C57.5714 95.9583 57.6241 95.7562 57.5011 95.5804L57.4923 95.5717ZM57.3517 84.5972C57.3517 84.0612 57.3341 83.4637 57.2023 82.875C56.7366 80.7135 55.612 79.0441 53.591 78.0512C52.4488 77.4889 51.2274 77.3571 49.9798 77.4274C47.2471 77.5855 45.3668 79.0002 44.2597 81.4516C43.5128 83.1035 43.4601 84.852 43.8291 86.5918C44.3036 88.8324 45.5601 90.4842 47.6952 91.4156C48.8024 91.8989 49.971 92.0043 51.1484 91.9164C53.0902 91.7671 54.6981 90.9851 55.8931 89.4035C56.9739 87.9888 57.3781 86.3985 57.3429 84.606L57.3517 84.5972Z" fill="#0B0B0B"/>
<path d="M117.812 87.0575C114.825 87.0575 111.837 87.0575 108.85 87.0575C108.006 87.0575 107.936 87.1453 108.2 87.9449C109.017 90.4579 111.038 92.0043 113.691 92.18C114.447 92.2328 115.194 92.2503 115.949 92.1976C117.443 92.0922 118.629 91.4507 119.499 90.2733C119.789 89.8779 120.097 89.7637 120.553 89.7725C122.407 89.7901 124.261 89.7725 126.107 89.7725C126.203 89.7725 126.309 89.7725 126.405 89.7725C126.836 89.7989 126.915 89.878 126.766 90.2821C125.615 93.3926 123.664 95.8089 120.597 97.2323C117.944 98.4624 115.15 98.8578 112.268 98.4097C109.465 97.9704 106.961 96.8457 104.957 94.7809C103.015 92.7775 101.777 90.3964 101.241 87.6374C100.669 84.7027 100.898 81.847 102.014 79.0968C103.182 76.2148 105.115 73.9215 107.883 72.419C109.711 71.4261 111.697 70.9253 113.77 70.8198C115.888 70.7144 117.926 71.0922 119.903 71.8742C122.082 72.7353 123.796 74.15 125.158 76.0303C126.625 78.0512 127.293 80.3533 127.644 82.7784C127.794 83.8064 127.767 84.8345 127.758 85.8713C127.758 86.0734 127.75 86.2667 127.723 86.4688C127.653 86.9432 127.565 87.0223 127.064 87.0487C126.906 87.0575 126.748 87.0487 126.59 87.0487C123.664 87.0487 120.738 87.0487 117.812 87.0487V87.0575ZM114.376 81.5483C116.23 81.5483 118.084 81.5483 119.93 81.5483C120.07 81.5483 120.211 81.5483 120.351 81.5483C120.729 81.5307 120.764 81.4868 120.65 81.1089C120.466 80.4939 120.176 79.9315 119.851 79.3868C119.35 78.5345 118.638 77.9194 117.751 77.5064C116.257 76.8035 114.684 76.7069 113.076 76.9705C111.697 77.1901 110.502 77.77 109.561 78.8244C109.017 79.4395 108.542 80.0985 108.261 80.8717C108.024 81.5131 108.041 81.5483 108.7 81.5571C108.823 81.5571 108.938 81.5571 109.061 81.5571C110.836 81.5571 112.602 81.5571 114.376 81.5571V81.5483Z" fill="#0B0B0B"/>
<path d="M137.459 73.7809C137.81 73.4997 138.048 73.324 138.276 73.1395C140.192 71.6018 142.38 70.8374 144.84 70.8198C146.703 70.8022 148.495 71.101 150.173 71.9094C152.44 73.0077 153.995 74.7914 154.944 77.1022C155.524 78.5344 155.841 80.0282 155.841 81.5746C155.841 86.8993 155.841 92.2239 155.841 97.5486C155.841 98.19 155.77 98.2691 155.12 98.2691C153.328 98.2691 151.535 98.2691 149.743 98.2691C149.075 98.2691 149.013 98.1988 149.005 97.4959C149.005 95.5453 149.005 93.6034 149.005 91.6528C149.005 88.9905 149.005 86.3281 149.005 83.6658C149.005 82.629 148.89 81.6097 148.565 80.6169C148.038 78.9913 146.966 77.9545 145.305 77.524C144.857 77.4098 144.4 77.4098 143.944 77.401C143.126 77.401 142.309 77.401 141.518 77.6294C139.954 78.0775 138.909 79.1144 138.259 80.5641C137.881 81.4077 137.696 82.3039 137.679 83.2265C137.608 87.8922 137.661 92.5666 137.652 97.2323C137.652 98.2779 137.652 98.2779 136.589 98.2779C134.955 98.2779 133.321 98.2779 131.695 98.2779C131.519 98.2779 131.335 98.2779 131.159 98.2691C130.904 98.2603 130.755 98.1285 130.737 97.8649C130.729 97.6892 130.72 97.5047 130.72 97.3289C130.72 89.0256 130.72 80.7223 130.72 72.419C130.72 71.7629 131.054 71.4349 131.721 71.4349C133.391 71.4349 135.069 71.4349 136.739 71.4349C137.398 71.4349 137.441 71.4876 137.45 72.1554C137.45 72.6474 137.45 73.1483 137.45 73.7985L137.459 73.7809Z" fill="#0B0B0B"/>
<path d="M27.9429 73.8074C28.1977 73.7371 28.3295 73.5789 28.4789 73.4471C29.8935 72.1643 31.5806 71.4614 33.4609 71.189C34.3132 71.066 35.1655 71.0572 36.0178 71.066C36.5713 71.0747 36.668 71.145 36.668 71.6722C36.6768 73.4559 36.6768 75.2484 36.668 77.0321C36.668 77.5329 36.5626 77.6208 36.0705 77.6295C35.2182 77.6471 34.3571 77.6208 33.5048 77.6647C32.4416 77.7174 31.4136 77.9722 30.5174 78.5697C29.2433 79.422 28.5404 80.6521 28.2329 82.1371C28.1011 82.7873 28.0835 83.4375 28.0835 84.0965C28.0835 88.481 28.0835 92.8743 28.0835 97.2588C28.0835 98.2517 28.0835 98.2517 27.0906 98.2517C25.4387 98.2517 23.7869 98.2517 22.135 98.2517C21.9768 98.2517 21.8187 98.2517 21.6605 98.2517C21.2651 98.2165 21.1948 98.1374 21.1597 97.7332C21.1509 97.5751 21.1597 97.4169 21.1597 97.2588C21.1597 88.9994 21.1597 80.74 21.1597 72.4806C21.1597 71.7718 21.5082 71.4174 22.2053 71.4174C23.7341 71.4174 25.2718 71.4174 26.8007 71.4174C26.9237 71.4174 27.0379 71.4174 27.1609 71.4174C27.8375 71.435 27.8814 71.4614 27.8814 72.1204C27.8814 72.5333 27.8814 72.9551 27.8814 73.368C27.8814 73.4998 27.8638 73.6404 27.9517 73.7986L27.9429 73.8074Z" fill="#0B0B0B"/>
<path d="M74.4678 84.3249C74.4678 88.6567 74.4678 92.9797 74.4678 97.3115C74.4678 98.2692 74.459 98.278 73.5012 98.278C71.7879 98.278 70.0745 98.278 68.3699 98.278C67.5264 98.278 67.4912 98.2517 67.4912 97.4082C67.4912 89.2454 67.4912 81.0915 67.4912 72.9287C67.4912 72.8496 67.4912 72.7706 67.4912 72.6915C67.5176 72.2346 67.5703 72.1555 68.0272 72.0413C69.187 71.7601 70.3469 71.4877 71.5067 71.1978C72.2799 71.0045 73.0443 70.8024 73.8176 70.6091C74.3711 70.4773 74.4502 70.53 74.459 71.1011C74.4678 72.586 74.459 74.0798 74.459 75.5647C74.459 78.4818 74.459 81.399 74.459 84.3161L74.4678 84.3249Z" fill="#0B0B0B"/>
<path d="M76.8665 63.1843C76.8665 64.0015 76.8665 64.8098 76.8665 65.627C76.8665 66.1805 76.8313 66.2157 76.2953 66.3738C74.169 67.0328 72.0426 67.6918 69.9075 68.3596C69.2397 68.5705 68.5807 68.7989 67.9129 68.9922C67.4648 69.124 67.3594 69.0538 67.3506 68.6056C67.3418 67.3316 67.3506 66.0663 67.3506 64.7923C67.3506 64.3969 67.5702 64.2387 67.8866 64.0981C69.064 63.5621 70.2326 63.0086 71.41 62.4726C72.9476 61.7697 74.4941 61.0755 76.0317 60.3814C76.8049 60.0387 76.8665 60.0739 76.8665 60.9174C76.8665 61.673 76.8665 62.4287 76.8665 63.1843Z" fill="#0B0B0B"/>
</svg>
