<svg width="177" height="176" viewBox="0 0 177 176" fill="none" xmlns="http://www.w3.org/2000/svg">
<path d="M24.3381 75.8546C35.3301 74.1325 36.7447 93.2872 28.7489 96.8018C27.018 97.5663 24.1535 97.9177 22.405 97.1182C21.5 96.7052 19.8569 94.7458 20.059 97.4872C20.1908 99.2972 22.5368 98.9721 22.8971 101.116C23.2397 103.119 22.7389 104.973 20.4983 105.281C18.2577 105.588 12.9243 105.316 11.3603 103.488C10.4289 102.408 10.6046 100.264 11.2197 99.06C11.7732 97.9792 13.0034 97.7684 13.2142 96.2043C13.4954 94.1659 13.4954 87.1278 13.2142 85.0893C12.977 83.3847 11.8962 84.1316 10.7188 83.6307C9.54144 83.1299 9.55023 82.1897 9.62931 81.109C9.88412 77.9019 14.7519 74.8793 17.6075 76.5575C19.154 77.4713 18.5038 78.8596 18.8816 79.4132C19.5318 80.3709 20.8586 77.7877 21.333 77.3483C21.9745 76.7596 23.477 75.9864 24.3293 75.8546H24.3381ZM22.3699 83.0333C19.6197 83.4111 20.1556 88.5952 21.254 90.1768C22.3347 91.7408 25.3309 91.1784 25.6385 89.1839C25.946 87.1893 25.1464 82.6466 22.3699 83.0333Z" fill="#0B0B0B"/>
<path d="M105.579 95.5191C100.764 100.281 89.9827 98.9458 87.7597 91.8111C84.8777 82.5676 90.4484 74.0359 100.623 76.0744C109.155 77.7877 111.027 90.1417 105.588 95.5279L105.579 95.5191ZM96.968 82.4973C93.6994 82.9718 94.868 89.1224 96.5551 90.7304C97.671 91.7936 99.9818 91.6178 100.65 90.1329C101.546 88.1296 99.8676 82.0668 96.968 82.4886V82.4973Z" fill="#0B0B0B"/>
<path d="M139.451 88.9555C138.713 90.0011 141.059 90.8446 141.762 91.0115C144.205 91.5739 145.681 91.073 147.974 90.9149C150.513 90.7391 151.946 91.5212 150.733 94.2098C149.09 97.8826 143.827 98.6119 140.286 98.0496C128.046 96.1165 129.25 76.7948 141.323 75.8107C146.331 75.4066 150.891 77.5944 151.937 82.8049C152.42 85.2124 152.728 88.4283 149.591 88.7446C146.454 89.0609 142.825 88.4458 140.04 88.8061C139.899 88.8237 139.513 88.8676 139.46 88.9467L139.451 88.9555ZM141.727 80.3446C139.811 80.6697 139.117 82.5852 139.434 84.3425C139.6 85.23 141.99 85.0279 142.755 84.9664C143.73 84.8961 145.76 84.7555 145.909 83.6308C146.217 81.3111 143.818 79.9844 141.718 80.3446H141.727Z" fill="#0B0B0B"/>
<path d="M43.1766 89.1135C42.7549 89.2453 42.8955 89.9482 43.1064 90.2645C43.8356 91.3804 47.6754 91.7055 48.9231 91.6265C50.4607 91.5298 54.8277 90.08 54.7486 92.962C54.6871 95.2817 51.9193 97.3729 49.8984 98.0055C39.539 101.274 32.2022 91.688 36.3407 82.1106C39.8992 73.8688 53.5448 73.8775 55.3988 82.9892C55.6712 84.3336 56.0051 87.4704 54.9331 88.4721C54.6607 88.7269 53.3867 89.1135 53.0528 89.1135H43.1679H43.1766ZM45.9268 80.529C44.4331 80.6256 43.2118 81.4164 42.9482 82.9541C42.6143 84.9135 43.0273 85.4231 44.9779 85.344C45.5842 85.3177 46.7176 85.2298 47.2888 85.142C49.09 84.852 50.0302 84.3775 49.1515 82.4181C48.6155 81.2319 47.2009 80.4411 45.9268 80.529Z" fill="#0B0B0B"/>
<path d="M121.298 90.5281C121.412 90.5984 121.904 90.6248 122.01 90.4403C122.379 88.6478 124.233 84.852 123.706 83.165C123.486 82.462 122.537 82.0139 122.361 80.7311C121.887 77.3131 123.46 76.5223 126.561 76.3378C129.839 76.1445 131.895 76.4257 131.508 80.2039C131.332 81.9524 130.296 82.462 129.628 83.8943C127.897 87.5758 127.08 92.303 125.252 95.8792C125.015 96.3536 124.734 96.9423 124.268 97.2323C123.108 97.9704 118.144 97.8649 116.755 97.4695C115.763 97.1884 115.323 96.6787 114.822 95.8089C112.898 92.4787 112.476 87.1716 110.737 83.8943C110.315 83.0947 109.577 82.8047 109.252 81.9524C108.812 80.8189 109.05 78.0512 110.016 77.2428C111.448 76.039 117.116 76.1181 118.882 76.6453C120.85 77.234 121.131 78.8683 120.876 80.7311C120.692 82.0666 119.576 82.2687 119.629 83.6131C119.655 84.2106 120.973 90.326 121.272 90.5193L121.298 90.5281Z" fill="#0B0B0B"/>
<path d="M67.3484 89.3859C67.4538 89.8779 68.2358 90.4491 68.7454 90.5193C70.5818 90.7742 72.6642 88.9202 73.0157 91.8198C73.9822 99.9474 59.2295 100.694 59.168 90.8269C59.1593 89.1926 59.9588 85.634 59.5898 84.3775C59.335 83.4901 57.8588 84.2369 57.1911 83.5428C56.6199 82.9541 56.6375 80.1951 56.8308 79.3867C56.9714 78.8068 57.4019 78.4202 57.8501 78.0688C58.6584 77.4273 64.7651 74.3257 65.6701 74.2027C66.4521 74.0972 67.7789 74.0972 68.0425 75.0286C68.2446 75.7315 67.858 76.7068 68.6048 77.3483C69.9755 78.5169 72.8751 76.619 73.1211 79.2989C73.2002 80.1248 73.0157 83.288 72.7082 83.9382C72.1019 85.2298 69.9316 85.0102 68.7015 84.975C68.4203 84.975 67.3571 84.606 67.3571 85.0541C67.3571 86.1436 67.1638 88.4721 67.3571 89.3683L67.3484 89.3859Z" fill="#0B0B0B"/>
<path d="M76.4777 77.2956C76.0735 76.8387 74.3162 77.2517 73.666 76.2412C72.1635 73.8776 76.0735 71.8128 77.8572 71.1362C80.8358 70.0115 84.825 69.5195 84.9567 73.7458C85.0446 76.4697 84.3944 79.7822 84.2362 82.55C84.1396 84.3161 83.876 88.2437 84.3505 89.7989C84.5877 90.5809 85.6245 91.073 85.9848 91.9428C86.6262 93.5068 86.468 96.2658 84.7722 97.1093C83.0764 97.9529 77.4442 98.0583 75.8363 97.2324C74.325 96.4591 74.325 94.1043 74.571 92.6545C74.7819 91.3805 75.7308 91.196 76.1789 90.3085C76.9258 88.8587 76.8467 80.4236 76.6886 78.4027C76.671 78.1479 76.5919 77.4362 76.4601 77.2868L76.4777 77.2956Z" fill="#0B0B0B"/>
<path d="M162.235 73.4383C162.279 73.4119 162.604 72.8232 162.903 72.5772C163.579 72.0149 164.625 71.391 165.53 71.4174C168.464 71.514 168.034 74.7738 167.489 76.8036C166.637 79.9843 162.305 85.8977 158.492 84.896C156.77 84.4391 156.436 82.1106 155.777 80.7839C154.362 77.9634 150.839 73.6667 154.555 71.0659C156.286 69.8534 158.211 70.3542 159.757 71.5931C160.293 72.0236 161.567 73.8425 162.244 73.4471L162.235 73.4383Z" fill="#0B0B0B"/>
</svg>
