<svg width="176" height="176" viewBox="0 0 176 176" fill="none" xmlns="http://www.w3.org/2000/svg">
<path d="M125.925 81.1618C125.925 90.0714 125.934 98.981 125.925 107.891C125.925 111.651 124.273 114.577 121.172 116.686C120.1 117.415 118.913 117.907 117.648 118.224C105.892 121.15 94.1264 124.084 82.37 127.01C76.2545 128.53 70.1478 130.068 64.0324 131.588C60.6583 132.423 57.5215 131.896 54.7186 129.822C52.3198 128.056 50.9052 125.666 50.4922 122.705C50.3956 121.984 50.378 121.264 50.378 120.543C50.378 103.093 50.4219 85.6517 50.3516 68.2016C50.3341 63.7292 53.1985 58.7912 58.7692 57.438C61.8445 56.6912 64.911 55.9267 67.9863 55.1623C82.3436 51.5862 96.7097 48.0012 111.067 44.4075C112.526 44.0385 113.984 43.7309 115.504 43.7485C121.163 43.8276 125.916 48.5372 125.925 54.1782C125.951 63.1669 125.925 72.1643 125.925 81.153V81.1618ZM104.714 80.7488C103.546 80.7313 102.509 80.7928 101.481 81.0036C98.0716 81.7241 95.3477 83.4727 93.3532 86.3283C91.6662 88.7358 90.6645 91.4333 90.0231 94.2714C89.4783 96.6701 89.1532 99.104 88.995 101.573C88.8457 103.866 88.7842 106.168 88.7842 108.462C88.7842 109.797 88.8457 111.133 88.8545 112.468C88.8545 113.461 88.9072 114.445 89.0214 115.429C89.1532 116.501 89.4959 116.8 90.5678 116.598C92.7996 116.185 94.6448 115.017 96.2879 113.514C96.613 113.224 96.7009 112.855 96.6657 112.424C96.3846 109.015 96.2528 105.597 96.0946 102.179C96.0331 100.791 96.1297 99.4028 96.1913 98.0145C96.2791 96.1605 96.49 94.3417 96.8854 92.5316C97.2896 90.6601 97.9046 88.8764 99.0381 87.2948C99.8025 86.2317 100.787 85.5024 102.078 85.1948C103.818 84.7819 105.022 85.4409 105.593 87.1279C106.041 88.4635 105.997 89.8166 105.69 91.1697C105.066 93.8936 103.449 95.9233 101.2 97.4961C100.251 98.1551 99.2402 98.7086 98.2122 99.227C97.6498 99.5082 97.6586 99.8069 98.2122 100.123C98.6164 100.36 99.0557 100.431 99.5214 100.475C101.903 100.668 104.108 100.141 106.146 98.9195C110.557 96.2659 112.991 92.4789 112.824 87.2245C112.736 84.6061 111.515 82.7082 109.151 81.5484C107.719 80.8455 106.19 80.6522 104.732 80.74L104.714 80.7488ZM63.1449 90.2208C63.101 91.1609 63.224 92.0923 63.2855 93.0237C63.3821 94.3329 64.006 95.2203 65.2713 95.6597C66.4135 96.0551 67.5909 96.3099 68.7683 96.5735C69.4273 96.7228 70.0424 96.6174 70.6047 96.2132C70.9123 95.9936 71.2374 95.809 71.5625 95.6245C76.606 92.7249 81.711 89.9484 87.0796 87.6902C87.6858 87.4354 87.7386 87.1894 87.2202 86.794C86.0955 85.9329 84.8126 85.5024 83.3892 85.6342C82.7214 85.6957 82.0624 85.8275 81.4122 85.9681C78.5829 86.5655 75.78 87.286 73.0386 88.2438C72.2566 88.5162 71.4834 88.8237 70.7014 89.0961C70.3236 89.2279 70.183 89.14 70.1918 88.7534C70.1918 88.2965 70.262 87.8484 70.2884 87.3915C70.4641 84.404 70.8507 81.443 71.3867 78.4907C72.0633 74.7476 72.9683 71.066 74.0842 67.4372C74.4884 66.1367 74.9014 64.8363 75.2968 63.5271C75.4988 62.8593 75.3758 62.7188 74.6641 62.7803C74.6114 62.7803 74.5587 62.7803 74.506 62.7978C72.4323 63.246 70.3938 63.8259 68.5135 64.8275C66.9407 65.6623 65.8951 66.9187 65.447 68.6585C65.3152 69.1769 65.1658 69.6953 65.0604 70.2137C64.3399 73.7284 63.9093 77.2781 63.5667 80.8455C63.2679 83.9647 63.3734 87.1015 63.1449 90.212V90.2208ZM68.2323 107.337C68.1708 108.69 68.329 110.553 68.9441 112.345C69.7085 114.577 71.1583 116.132 73.4779 116.721C74.752 117.046 76.1051 117.011 77.3968 116.721C81.3946 115.825 83.7934 113.294 84.6545 109.34C85.1377 107.117 85.3925 104.859 85.6825 102.601C86.0428 99.7279 86.0164 96.8371 86.2273 93.9551C86.28 93.1906 86.0955 93.0588 85.3135 93.2258C84.1009 93.4718 82.9323 93.8672 81.834 94.4559C81.2013 94.7986 80.5599 95.15 80.0679 95.6948C79.734 96.0551 79.4616 96.4505 79.4001 96.9513C79.3034 97.7509 79.1892 98.5505 79.2683 99.35C79.5407 102.294 79.3122 105.228 79.0398 108.163C78.952 109.094 78.7323 110.008 78.3457 110.878C78.1963 111.221 78.0206 111.555 77.757 111.827C76.9662 112.653 75.8942 112.609 75.1913 111.713C74.8047 111.212 74.6026 110.632 74.4972 110.017C74.3215 109.015 74.2424 108.005 74.1896 106.986C74.0754 104.789 74.339 102.601 74.4269 100.413C74.462 99.517 74.506 99.2446 73.311 99.4115C73.2055 99.4291 73.1001 99.4555 73.0035 99.4906C71.9491 99.8333 70.9562 100.29 70.0512 100.94C69.1374 101.591 68.5838 102.452 68.4081 103.585C68.2411 104.648 68.2587 105.72 68.2411 107.319L68.2323 107.337ZM86.1306 69.4053C86.1482 69.7217 86.157 70.0468 86.1921 70.3631C86.5172 73.6581 86.8072 76.9618 86.8072 80.2831C86.8072 82.3216 87.2377 82.8664 89.1971 83.543C90.1285 83.8681 90.8578 83.7714 91.5432 82.963C93.5641 80.5995 95.8222 78.4731 98.1682 76.4258C101.296 73.6844 104.609 71.1978 108.141 69.0012C109.6 68.0961 111.093 67.2526 112.613 66.4618C113.237 66.1367 113.264 65.9171 112.754 65.4514C111.867 64.6342 110.97 63.8347 109.925 63.2108C108.132 62.1388 106.296 62.0334 104.407 62.956C102.43 63.9137 100.734 65.2581 99.1523 66.7518C96.736 69.0363 94.4867 71.4702 92.5624 74.194C92.4745 74.3258 92.3955 74.5016 92.2109 74.4752C92.0001 74.4401 92.044 74.238 92.0176 74.0886C91.7365 72.5949 91.4465 71.0924 91.0687 69.6162C90.9632 69.2296 90.8578 68.843 90.6645 68.4828C90.234 67.7008 89.6277 67.3756 88.7402 67.4899C88.2921 67.5514 87.844 67.6656 87.4047 67.771C86.5202 67.9819 86.0955 68.5267 86.1306 69.4053ZM75.5164 80.7576C75.5164 81.1354 75.5076 81.5045 75.5164 81.8823C75.5516 83.0333 76.0963 83.5781 77.2562 83.6396C78.1524 83.6836 79.0047 83.499 79.8746 83.2882C80.6214 83.1036 80.9553 82.6731 81.1398 81.935C81.8516 79.1409 82.37 76.3028 82.985 73.4823C83.1695 72.6476 83.3541 71.8129 83.4771 70.9694C83.5825 70.2752 83.3892 70.1171 82.739 70.2489C81.4034 70.53 80.103 70.9342 78.8465 71.4878C77.5286 72.0677 76.6675 73.0166 76.3687 74.4313C75.9206 76.5225 75.5691 78.6225 75.5252 80.7752L75.5164 80.7576ZM84.8038 63.4568C84.8214 62.2531 84.2327 61.4096 83.1783 61.225C82.5457 61.1108 81.9043 61.1196 81.2716 61.3129C79.321 61.9104 78.1436 63.7029 78.2227 65.961C78.2754 67.4811 79.2507 68.2982 80.7708 68.0874C83.108 67.771 84.7775 65.8468 84.8038 63.448V63.4568Z" fill="#0B0B0B"/>
</svg>
