<svg width="176" height="176" viewBox="0 0 176 176" fill="none" xmlns="http://www.w3.org/2000/svg">
<path d="M74.317 82.875C74.317 83.0332 74.317 83.2001 74.317 83.3671C74.4136 85.3353 75.222 86.8993 76.9705 87.901C77.9634 88.4721 79.0442 88.6742 80.1864 88.6478C81.9262 88.6039 83.4023 88.0152 84.5534 86.6884C85.0103 86.1612 85.3617 85.5637 85.5726 84.8959C86.0207 83.4637 86.0207 82.0227 85.5902 80.5993C85.0542 78.8244 83.8416 77.6997 82.0668 77.2516C81.0475 76.988 80.0019 76.9177 78.9475 77.0935C76.9442 77.4273 75.5295 78.4905 74.7387 80.3709C74.4049 81.1704 74.2467 82.0052 74.317 82.8838M85.8977 91.275C85.7483 91.2926 85.6868 91.4068 85.6077 91.4947C84.281 92.839 82.673 93.7089 80.8366 94.1131C79.4044 94.4294 77.9546 94.4821 76.4873 94.2712C74.3697 93.9725 72.5333 93.0763 70.9693 91.644C70.1434 90.8884 69.5019 89.9658 68.9747 88.9729C68.1576 87.4353 67.7446 85.7834 67.5689 84.0612C67.3844 82.3215 67.5865 80.6081 68.0785 78.9386C68.6233 77.0495 69.5722 75.3801 71.0132 74.0181C72.2609 72.8407 73.7195 72.0324 75.3802 71.5579C76.6718 71.1889 77.9722 71.0307 79.299 71.101C81.768 71.2328 83.9559 72.05 85.7747 73.7633C85.8362 73.8161 85.8889 73.8776 85.9504 73.9303C86.0207 73.9918 86.0822 74.0972 86.1877 74.0445C86.2843 74.0006 86.2843 73.8863 86.3019 73.7985C86.337 73.5525 86.3546 73.3064 86.4073 73.0692C86.6182 72.1642 87.2245 71.6721 88.1559 71.6633C89.096 71.6633 90.0362 71.6633 90.9764 71.6633C91.196 71.6633 91.4157 71.6633 91.6178 71.76C92.1098 71.9709 92.4613 72.296 92.5667 72.8407C92.6107 73.078 92.6458 73.324 92.6458 73.57C92.6458 80.1073 92.6809 86.6533 92.6282 93.1905C92.6019 96.0813 91.6353 98.6821 89.6056 100.817C88.4195 102.065 87.0136 102.97 85.4232 103.603C84.2634 104.068 83.0684 104.367 81.8383 104.534C80.6433 104.692 79.4484 104.666 78.2446 104.631C76.9442 104.595 75.6701 104.349 74.4136 104.059C73.0341 103.734 71.6898 103.269 70.4597 102.548C69.6513 102.074 69.4404 101.397 69.8183 100.536C69.9852 100.149 70.1961 99.7804 70.3806 99.4026C70.5739 99.0248 70.7584 98.6469 70.9517 98.2691C71.022 98.1373 71.1011 98.0055 71.189 97.8913C71.5756 97.3553 72.0852 97.162 72.7266 97.329C72.9726 97.3993 73.2187 97.4871 73.4559 97.5926C74.4049 98.0055 75.4065 98.2691 76.4258 98.4712C76.7421 98.5327 77.076 98.5503 77.4011 98.5767C78.5961 98.6821 79.8086 98.6997 80.986 98.4888C82.9981 98.1373 84.5621 97.1181 85.4057 95.1938C85.722 94.4645 85.845 93.6825 85.8977 92.8917C85.9329 92.3558 85.8977 91.8198 85.8977 91.275Z" fill="#0B0B0B"/>
<path d="M16.9757 82.2601C16.9054 82.8751 16.8703 83.4726 16.8264 84.0701C16.7121 85.6517 16.6155 87.242 16.5452 88.8324C16.4749 90.2734 16.3431 91.7056 16.2376 93.1378C16.1586 94.1483 15.605 94.7282 14.6033 94.7634C13.4699 94.7985 12.3452 94.7722 11.2117 94.7634C11.1063 94.7634 10.9921 94.737 10.8866 94.7194C10.0695 94.5613 9.63014 93.9726 9.70043 93.1203C9.8498 91.2136 10.0783 89.3069 10.2101 87.4002C10.2891 86.2316 10.3858 85.0718 10.4824 83.9031C10.5703 82.8224 10.6757 81.7416 10.7812 80.6521C10.8251 80.1337 10.8251 79.6241 10.8778 79.1057C11.0536 77.3484 11.2029 75.591 11.3611 73.8249C11.3787 73.6228 11.3787 73.4208 11.3875 73.2187C11.4402 72.4015 12.0464 71.6371 13.0481 71.6547C14.0674 71.6722 15.0954 71.6547 16.1146 71.6547C16.8351 71.6547 17.4063 71.9798 17.7929 72.5772C18.3728 73.4647 18.8473 74.4136 19.3745 75.3362C20.2268 76.8387 21.0615 78.35 21.9138 79.8525C22.5464 80.9772 23.1791 82.1019 23.8117 83.2354C23.8468 83.3057 23.8644 83.3935 23.9611 83.4287C24.0753 83.4287 24.1104 83.3232 24.1544 83.2442C25.5866 80.8718 27.01 78.4906 28.451 76.1094C29.1364 74.976 29.8217 73.8513 30.5071 72.7266C30.9552 71.9973 31.6054 71.6283 32.4753 71.6459C33.3627 71.6634 34.2502 71.6634 35.1376 71.6459C35.9284 71.6283 36.5962 72.1115 36.7719 73.0078C36.8598 73.4647 36.9037 73.9216 36.9213 74.3873C37.0179 76.2325 37.22 78.0689 37.3606 79.914C37.4924 81.6186 37.6242 83.3232 37.7648 85.0278C37.9142 86.7764 38.0811 88.5161 38.1778 90.2734C38.2305 91.196 38.3359 92.1098 38.415 93.0324C38.5116 94.201 37.879 94.7546 36.7631 94.7722C35.6736 94.7897 34.584 94.7722 33.4945 94.7722C33.2045 94.7722 32.9234 94.7282 32.6598 94.614C32.1238 94.3943 31.8163 93.9989 31.746 93.4102C31.6493 92.5843 31.6581 91.7584 31.6054 90.9324C31.5439 89.9835 31.5351 89.0345 31.4912 88.0856C31.4209 86.6006 31.3242 85.1245 31.2715 83.6483C31.2451 83.0421 31.1573 82.4358 31.2188 81.768C31.0343 81.8998 30.9815 82.058 30.9025 82.1898C29.5669 84.4303 28.2226 86.6709 26.8958 88.9291C26.4389 89.7111 25.7799 90.0889 24.8837 90.0713C24.1807 90.0625 23.469 90.0625 22.7573 90.0713C21.8347 90.0889 21.1581 89.6935 20.71 88.8939C20.3058 88.1734 19.8929 87.4529 19.4887 86.7236C18.7506 85.4232 18.0125 84.1228 17.2833 82.8136C17.1778 82.6291 17.0724 82.4358 16.9669 82.2513" fill="#0B0B0B"/>
<path d="M113.312 83.0772V82.4533C113.312 81.2847 112.916 80.2391 112.293 79.2726C112.047 78.886 111.73 78.5433 111.361 78.2533C110.597 77.6471 109.753 77.278 108.778 77.1199C107.662 76.9441 106.564 76.9705 105.509 77.322C103.717 77.9195 102.575 79.1935 102.047 81.0035C101.757 82.0052 101.678 83.0245 101.784 84.0701C101.88 85.0014 102.083 85.8977 102.548 86.7148C103.295 88.0416 104.429 88.8851 105.914 89.219C106.854 89.4299 107.803 89.4475 108.76 89.2893C110.72 88.9554 112.055 87.8395 112.837 86.0295C113.233 85.1069 113.356 84.1491 113.321 83.0948M113.698 74.0973C113.734 73.8425 113.778 73.5789 113.804 73.3153C113.857 72.8584 113.988 72.4454 114.349 72.1203C114.665 71.8391 115.025 71.6634 115.456 71.6634C116.475 71.6634 117.503 71.6458 118.522 71.6634C119.304 71.681 119.893 72.1818 120.042 72.955C120.086 73.1923 120.104 73.4383 120.104 73.6843C120.104 80.037 120.104 86.3897 120.104 92.7336C120.104 93.0236 120.086 93.3048 120.007 93.5859C119.823 94.2186 119.41 94.6052 118.76 94.7282C118.557 94.7721 118.355 94.7809 118.153 94.7809C117.389 94.7809 116.624 94.7809 115.86 94.7809C114.806 94.7809 114.173 94.2713 113.953 93.2433C113.883 92.9269 113.848 92.6018 113.804 92.2767C113.795 92.2152 113.804 92.1274 113.734 92.101C113.637 92.0571 113.584 92.1361 113.523 92.1889C113.206 92.514 112.881 92.8127 112.521 93.0939C111.133 94.1658 109.56 94.7985 107.838 95.1148C106.107 95.4223 104.402 95.3784 102.706 94.8688C100.185 94.1131 98.2868 92.5755 96.8985 90.37C96.011 88.9642 95.4751 87.4353 95.1939 85.8098C94.9127 84.2107 94.8864 82.5939 95.1236 80.9772C95.5278 78.2973 96.591 75.9513 98.5504 74.0446C99.9826 72.6475 101.705 71.7864 103.647 71.3471C105.474 70.9341 107.293 70.9956 109.103 71.4789C110.781 71.927 112.205 72.7793 113.444 73.9743C113.496 74.027 113.54 74.1061 113.69 74.0885" fill="#0B0B0B"/>
<path d="M58.422 83.1298C58.422 82.831 58.422 82.5323 58.422 82.2335C58.4044 81.2407 58.0705 80.3269 57.5609 79.5009C56.7262 78.1654 55.5136 77.3658 53.932 77.1198C52.8161 76.944 51.7178 76.9616 50.6546 77.3043C48.8534 77.893 47.7111 79.1758 47.1751 80.9683C46.727 82.4708 46.727 84.0084 47.1751 85.5197C47.5881 86.9344 48.4228 88.0327 49.7584 88.7356C50.435 89.0959 51.1555 89.2628 51.9111 89.3419C53.0534 89.4561 54.1781 89.3507 55.2324 88.885C56.9985 88.0942 57.9387 86.6356 58.3429 84.7904C58.4659 84.2457 58.4308 83.6833 58.422 83.121M58.8613 92.0921C58.7383 92.0657 58.6856 92.1448 58.6329 92.1975C57.5257 93.3574 56.1902 94.1569 54.6877 94.6666C52.9391 95.2641 51.1203 95.4837 49.2839 95.1938C46.7446 94.7896 44.6007 93.6385 42.9488 91.6352C41.4111 89.7812 40.5764 87.6285 40.2425 85.2649C40.1283 84.4653 40.0756 83.6658 40.0932 82.8662C40.1459 80.4938 40.6906 78.262 41.9296 76.2235C43.2388 74.062 45.1015 72.5507 47.4915 71.716C49.9868 70.8461 52.491 70.8549 54.9864 71.716C56.2956 72.1641 57.4291 72.9022 58.4395 73.8424C58.5362 73.9302 58.6153 74.0532 58.7734 74.106C58.8613 73.9478 58.8525 73.7721 58.8789 73.6051C58.914 73.4206 58.9316 73.2273 58.9667 73.0428C59.0985 72.2783 59.74 71.6809 60.5132 71.6633C61.5851 71.6369 62.6659 71.6369 63.7466 71.6633C64.4408 71.6809 65.0031 72.1993 65.1437 72.8846C65.1876 73.1131 65.2052 73.3415 65.2052 73.57C65.2052 80.0018 65.2052 86.4335 65.2052 92.8653C65.2052 93.0586 65.2052 93.2431 65.1613 93.4364C65.0207 94.1042 64.6253 94.5172 63.9751 94.7017C63.7642 94.7632 63.5445 94.7808 63.3249 94.772C62.5341 94.772 61.7433 94.772 60.9525 94.772C59.8893 94.772 59.2479 94.2272 59.0458 93.1816C59.0107 92.9971 58.9931 92.8038 58.9667 92.6193C58.9404 92.4348 58.9316 92.2415 58.8525 92.0921" fill="#0B0B0B"/>
<path d="M166.022 83.2265C166.022 86.5039 165.996 89.7813 166.04 93.0587C166.049 94.0604 165.293 94.7721 164.371 94.7721C163.536 94.7721 162.71 94.7721 161.875 94.7721C161.585 94.7721 161.304 94.7194 161.04 94.6051C160.61 94.4118 160.294 94.1131 160.127 93.665C159.977 93.2784 159.907 92.883 159.802 92.4876C159.775 92.3821 159.81 92.2064 159.661 92.18C159.52 92.1537 159.459 92.3031 159.38 92.3909C159.116 92.6545 158.861 92.9181 158.58 93.1554C157.297 94.2361 155.795 94.8336 154.152 95.1323C152.289 95.4662 150.453 95.3871 148.669 94.7457C146.85 94.0867 145.427 92.9269 144.434 91.2662C143.362 89.4738 142.87 87.5144 142.738 85.4495C142.633 83.8152 142.703 82.1897 142.685 80.5554C142.668 78.2445 142.685 75.9336 142.685 73.614C142.685 73.4119 142.685 73.2098 142.72 73.0077C142.87 72.2081 143.432 71.6985 144.249 71.6809C144.847 71.6634 145.444 71.6722 146.051 71.6722C146.666 71.6722 147.281 71.6985 147.887 71.6722C148.81 71.637 149.592 72.3399 149.592 73.3943C149.574 76.8211 149.592 80.2479 149.592 83.6746C149.592 84.3776 149.6 85.0893 149.767 85.7834C149.934 86.5127 150.189 87.2156 150.655 87.8219C151.243 88.5863 151.999 89.0784 152.948 89.2717C153.897 89.465 154.846 89.4562 155.786 89.2102C156.674 88.9729 157.394 88.4633 157.948 87.7428C158.694 86.7763 159.116 85.678 159.125 84.4566C159.151 80.9508 159.143 77.4362 159.143 73.9303C159.143 73.6316 159.16 73.3328 159.204 73.0341C159.318 72.2521 159.916 71.6897 160.707 71.6809C161.972 71.6634 163.246 71.6546 164.511 71.6809C165.425 71.6985 166.031 72.3311 166.04 73.245C166.04 76.5751 166.04 79.9052 166.04 83.2441" fill="#0B0B0B"/>
<path d="M123.039 80.0194V73.6579C123.039 73.4646 123.039 73.2713 123.056 73.0868C123.135 72.2696 123.759 71.6721 124.576 71.6633C125.894 71.6458 127.221 71.6458 128.539 71.6633C129.216 71.6633 129.725 72.0851 129.927 72.7353C130.033 73.078 130.033 73.4294 130.033 73.7809V85.0804C130.033 85.2825 130.033 85.4846 130.033 85.6955C130.033 86.2227 130.182 86.7235 130.411 87.1892C130.824 88.0152 131.57 88.3842 132.431 88.5599C132.774 88.6302 133.134 88.6478 133.486 88.6478C135.568 88.6478 137.659 88.6742 139.742 88.6302C140.691 88.6127 141.367 89.2453 141.385 90.2118C141.411 91.2047 141.411 92.1976 141.385 93.1905C141.367 94.0515 140.849 94.5963 139.997 94.7457C139.795 94.7808 139.593 94.7808 139.382 94.7808H131.57C130.762 94.7808 129.971 94.6666 129.189 94.4645C128.144 94.1921 127.142 93.8143 126.254 93.1729C124.822 92.1449 123.917 90.7654 123.443 89.0871C123.118 87.9361 123.003 86.7675 123.021 85.5813C123.047 83.7361 123.021 81.8821 123.021 80.0369" fill="#0B0B0B"/>
</svg>
