<svg width="176" height="176" viewBox="0 0 176 176" fill="none" xmlns="http://www.w3.org/2000/svg">
<path d="M137.563 115.35C137.616 115.842 137.616 116.888 137.563 117.38C136.913 123.495 127.318 123.821 126.386 117.485C125.745 113.127 128.557 110.14 132.932 110.685C135.393 110.992 137.308 112.837 137.563 115.35ZM130.367 112.881C128.583 114.647 128.82 120.429 131.948 120.464C135.129 120.499 135.419 114.34 133.328 112.697C132.432 111.994 131.175 112.082 130.367 112.881Z" fill="#0B0B0B"/>
<path d="M55.5577 124.234L54.8635 123.021C55.1095 122.845 55.4171 122.845 55.6895 122.687C56.6208 122.142 56.5066 120.833 56.6472 119.902V110.816H59.4413V120.367C59.4413 121.879 58.343 123.513 56.902 123.979L56.0234 124.234H55.5577Z" fill="#0B0B0B"/>
<path d="M97.4871 72.5421C98.559 72.1555 99.6134 71.7161 100.65 71.2329C102.522 70.3542 104.762 68.8341 106.783 68.5002C107.75 68.3421 111.387 68.2718 112.249 68.5266C112.758 68.676 113.268 69.1329 113.505 69.6073C113.54 69.6776 113.725 70.1345 113.725 70.1697V86.5039C117.134 84.0437 120.763 81.2584 122.555 77.3395C120.113 75.3274 119.99 71.6458 122.459 69.581C125.525 67.0153 130.226 69.0714 130.577 72.9726C131.28 80.8893 122.459 87.0487 116.668 90.8182C115.719 91.4332 114.735 91.9868 113.795 92.6106C113.637 93.3311 113.663 94.1219 113.558 94.8688C112.987 98.7085 110.597 102.399 106.66 103.304C103.98 103.919 100.123 103.251 98.313 101.002C96.3712 98.5855 98.682 96.8721 100.501 95.5541C102.205 94.324 103.972 93.173 105.729 92.0307V75.345C103.102 76.7421 100.36 77.9107 97.5046 78.7893V88.0152C97.364 89.1399 96.6435 89.8956 95.5101 90.001C94.4469 90.0977 92.136 90.1152 91.0904 90.001C90.4402 89.9219 89.8164 89.5265 89.5001 88.9466C89.4561 88.8675 89.254 88.3667 89.254 88.3403V80.1952L85.6427 80.1161C82.2775 79.8964 78.9474 79.3692 75.7139 78.4115C72.8495 81.7416 69.8181 85.4583 66.1014 87.8747C60.9349 91.2311 52.8688 91.7759 48.9939 86.1964C45.119 80.6169 48.4579 73.7458 53.8617 70.6002C59.5114 67.314 66.0399 68.1839 71.9884 70.1345L72.1641 70.1082L87.0486 52.6053C87.6021 52.1308 88.1381 51.6476 88.9026 51.5773C91.0904 51.3752 93.5858 51.7266 95.8088 51.5861C96.5996 51.6827 97.4871 52.6229 97.4871 53.4137V72.5596V72.5421ZM89.254 73.8601V62.3233L80.4762 72.8145C83.3407 73.5086 86.2929 73.8952 89.254 73.8688V73.8601ZM67.516 75.5031C63.1667 74.0534 57.9738 73.6931 54.7403 77.5328C51.7353 81.1002 54.0374 86.7324 58.9491 83.9383C59.8102 83.4462 60.5131 82.7521 61.2688 82.137L67.516 75.5119V75.5031Z" fill="#0B0B0B"/>
<path d="M109.121 52.5965C113.883 52.1308 117.292 57.1568 115.052 61.4358C112.864 65.6094 106.854 65.6973 104.543 61.594C102.417 57.8245 104.833 53.0183 109.121 52.5965Z" fill="#0B0B0B"/>
<path d="M54.0813 110.825V121.896H51.4014C50.6985 120.605 49.9692 119.287 48.8445 118.311C48.7743 118.25 48.3964 117.934 48.3613 117.934C48.2295 117.907 46.8236 119.577 46.5512 119.84C45.0751 121.229 43.2387 122.309 41.1563 122.38C38.4588 122.459 37.4044 120.842 38.6697 118.399C40.2513 115.342 44.2579 114.234 47.3596 115.508L51.3311 110.843H54.0901L54.0813 110.825ZM51.3575 118.232V114.331L49.4157 116.554L51.3575 118.232ZM46.2349 116.747C44.337 116.08 41.7713 117.152 40.7872 118.874C40.5149 119.357 40.2337 120.025 40.5324 120.561C41.1475 121.668 42.9224 120.271 43.5199 119.752C43.7659 119.533 46.3579 116.914 46.2349 116.747Z" fill="#0B0B0B"/>
<path d="M91.196 121.896L92.8391 110.834H94.6843L97.8738 117.45L101.248 110.816C101.538 110.887 102.75 110.685 102.829 110.948L104.393 121.896H101.283L100.817 115.658L97.8563 121.773C97.6893 121.984 96.9952 121.984 96.8634 121.694L94.0165 115.579L93.4366 121.896H91.1873H91.196Z" fill="#0B0B0B"/>
<path d="M75.1252 117.222V110.825H77.1461V121.896H75.5558C73.4645 119.577 71.3382 117.283 69.3085 114.92C69.0976 114.841 69.3085 115.069 69.3085 115.078V121.782C69.3085 121.782 69.2031 121.896 69.1943 121.896H67.3315C67.3315 121.896 67.2173 121.791 67.2173 121.782V110.825H69.2733L75.134 117.222H75.1252Z" fill="#0B0B0B"/>
<path d="M84.4304 110.614C88.358 110.553 90.3965 113.338 90.1153 117.108C89.6408 123.539 79.9229 123.891 78.9476 117.477C78.3764 113.663 80.4852 110.685 84.4304 110.614ZM82.9191 112.881C81.1354 114.647 81.3727 120.429 84.5007 120.464C88.0417 120.499 88.1208 112.609 84.7906 112.24C84.1053 112.161 83.4111 112.398 82.9279 112.881H82.9191Z" fill="#0B0B0B"/>
<path d="M110.983 110.614C115.289 110.474 117.538 113.839 116.712 117.925C115.588 123.487 106.898 123.504 105.755 117.925C104.973 114.103 106.889 110.746 110.983 110.614ZM110.825 112.249C107.671 112.749 107.68 120.508 111.256 120.464C114.999 120.42 114.806 111.616 110.825 112.249Z" fill="#0B0B0B"/>
<path d="M126.07 112.925L123.039 112.688V121.773C123.039 121.773 122.933 121.888 122.924 121.888H120.28C120.28 121.888 120.165 121.782 120.165 121.773V112.688L117.134 112.925V110.939C117.134 110.939 117.239 110.825 117.248 110.825H125.947C125.947 110.825 126.061 110.931 126.061 110.939V112.925H126.07Z" fill="#0B0B0B"/>
<path d="M64.6342 110.825H61.9192V121.896H64.6342V110.825Z" fill="#0B0B0B"/>
</svg>
