<svg width="177" height="176" viewBox="0 0 177 176" fill="none" xmlns="http://www.w3.org/2000/svg">
<path d="M134.667 102.346C134.544 102.267 134.403 102.276 134.263 102.258C132.883 102.091 131.521 101.819 130.203 101.388C128.868 100.949 127.664 100.264 126.645 99.2884C125.133 97.8562 124.22 96.0901 123.824 94.0516C123.666 93.2081 123.569 92.3645 123.525 91.5035C123.394 88.6478 123.473 85.7834 123.455 82.9277C123.438 79.624 123.446 76.329 123.438 73.0253C123.438 72.8144 123.438 72.5947 123.446 72.3838C123.49 71.9357 123.684 71.7512 124.123 71.7249C124.211 71.7249 124.299 71.7249 124.386 71.7249C127.268 71.7249 130.142 71.7249 133.024 71.7249C133.129 71.7249 133.226 71.7249 133.331 71.7336C133.648 71.7776 133.797 71.927 133.832 72.2521C133.85 72.3926 133.841 72.5244 133.841 72.665C133.841 75.6261 133.832 78.5872 133.832 81.5483C133.832 84.7641 133.832 87.9713 133.85 91.1871C133.85 92.3382 134.052 93.4717 134.465 94.5524C135.036 96.0461 136.108 96.9775 137.681 97.2938C138.928 97.5398 140.185 97.5574 141.441 97.3026C143.172 96.9511 144.279 95.9055 144.824 94.2449C145.061 93.5244 145.184 92.7775 145.263 92.0307C145.342 91.3365 145.334 90.6512 145.334 89.957C145.334 84.2282 145.334 78.4905 145.334 72.7617C145.334 72.6474 145.334 72.5332 145.334 72.419C145.36 71.9709 145.58 71.7512 146.019 71.7249C146.098 71.7249 146.168 71.7249 146.247 71.7249C147.381 71.76 148.523 71.7424 149.657 71.7249C149.762 71.7249 149.859 71.7249 149.964 71.7249C150.272 71.76 150.412 71.9094 150.439 72.2081C150.439 72.3223 150.439 72.4366 150.439 72.5508C150.439 78.9035 150.439 85.2474 150.412 91.6001C150.404 93.6386 149.947 95.598 149.006 97.4256C148.11 99.1566 146.722 100.352 144.965 101.134C143.849 101.634 142.663 101.872 141.459 102.065C140.809 102.17 140.167 102.258 139.517 102.346H134.667Z" fill="#0B0B0B"/>
<path d="M79.1705 81.2759C79.0563 81.3286 79.0475 81.3901 79.03 81.4516C78.5643 82.752 78.0898 84.0612 77.6241 85.3616C77.0706 86.9169 76.517 88.4721 75.9547 90.0185C75.7613 90.5457 75.7701 90.5633 76.3325 90.5633H82.2019C82.6676 90.5633 82.6676 90.5633 82.5007 90.1328C81.5517 87.611 80.6028 85.0893 79.6538 82.5675C79.4956 82.1457 79.3375 81.724 79.1705 81.2847M92.2977 101.986H87.8693C87.7462 101.986 87.6144 101.986 87.4914 101.986C87.1136 101.986 86.8764 101.81 86.7446 101.459C86.5249 100.844 86.2965 100.229 86.068 99.6135C85.6638 98.5239 85.2596 97.4432 84.8467 96.3537C84.8027 96.2394 84.7588 96.1164 84.6973 96.011C84.5831 95.7737 84.3898 95.6507 84.1262 95.6419C84.012 95.6419 83.8977 95.6419 83.7835 95.6419H74.7333C73.9513 95.6419 73.8986 95.6859 73.6438 96.4064C73.0727 98.0231 72.4927 99.6311 71.904 101.239C71.6756 101.863 71.4735 101.995 70.7969 101.995C69.4702 101.995 68.1434 101.986 66.8166 101.986C66.7639 101.986 66.72 101.986 66.6672 101.986C66.2982 101.968 66.2631 101.924 66.3861 101.582C66.7727 100.475 67.1681 99.3762 67.5635 98.2691C68.5827 95.4223 69.6107 92.5842 70.6388 89.7374C71.904 86.2315 73.1781 82.7257 74.4434 79.2198C75.2166 77.0759 75.981 74.932 76.7542 72.7792C76.8245 72.5859 76.8948 72.4014 76.9739 72.2169C77.0969 71.9182 77.3341 71.7776 77.6505 71.7424C77.791 71.7249 77.9316 71.7336 78.0634 71.7336H85.6023C85.6814 71.7336 85.7517 71.7336 85.8308 71.7336C86.2789 71.7161 86.5776 71.9269 86.727 72.3399C86.9027 72.7968 87.0697 73.2625 87.2454 73.7194C88.6601 77.5064 90.0747 81.2934 91.4893 85.0805C92.9831 89.0959 94.4768 93.1114 95.9793 97.1181C96.4801 98.4536 96.981 99.7804 97.4818 101.116C97.5345 101.248 97.5784 101.371 97.6224 101.503C97.719 101.801 97.6487 101.916 97.3324 101.968C97.183 101.995 97.0337 101.986 96.8843 101.986C95.3554 101.986 93.8266 101.986 92.2977 101.986Z" fill="#0B0B0B"/>
<path d="M59.4624 97.7332C60.9649 97.6893 62.6344 97.6102 64.2862 97.3641C64.3477 97.3554 64.4093 97.3466 64.4708 97.3466C64.7783 97.3378 64.9189 97.4432 64.9364 97.7595C64.954 98.0495 64.9364 98.3395 64.9277 98.6294C64.8925 99.183 64.8837 99.7365 64.9277 100.29C64.9452 100.457 64.9452 100.615 64.9452 100.782C64.9452 101.265 64.7871 101.476 64.3126 101.573C63.9348 101.652 63.5394 101.705 63.1528 101.766C61.3515 102.047 59.5503 102.179 57.7227 102.249C55.9741 102.311 54.2432 102.249 52.5122 102.003C50.4649 101.713 48.488 101.178 46.6428 100.211C44.5252 99.0951 42.9173 97.4784 41.7926 95.3696C41.0633 93.9901 40.6679 92.514 40.3867 91.0027C40.1231 89.6232 40.0001 88.2349 39.9562 86.8378C39.9386 86.3897 39.9825 85.9328 40.0089 85.4759C40.1231 83.9295 40.3955 82.4094 40.8348 80.9157C41.4675 78.7542 42.4955 76.8299 44.165 75.2922C45.3951 74.1588 46.8273 73.3504 48.4089 72.7793C49.9553 72.2169 51.5633 71.8918 53.1976 71.6722C54.4277 71.514 55.6666 71.4349 56.8967 71.4613C58.4256 71.4964 59.9457 71.5931 61.4657 71.7864C62.4059 71.9094 63.3285 72.1115 64.2775 72.2082C64.3653 72.2169 64.4532 72.2345 64.5411 72.2609C64.8662 72.3399 64.9804 72.4981 64.954 72.832C64.8662 73.8249 64.8574 74.8178 64.954 75.8107C64.998 76.2763 64.831 76.4433 64.3741 76.3818C62.9067 76.1973 61.4394 76.0655 59.9632 76.0391C58.9001 76.0215 57.8457 76.0303 56.8001 76.2236C55.8863 76.3994 55.0252 76.7157 54.252 77.2517C53.0043 78.1215 52.1344 79.2901 51.5808 80.696C51.0449 82.0491 50.7549 83.4638 50.5792 84.9136C50.4825 85.7395 50.4122 86.5654 50.4474 87.4002C50.5352 89.5177 50.8955 91.5914 51.8093 93.5156C52.9603 95.9495 54.8934 97.3378 57.5821 97.6805C58.162 97.7508 58.7419 97.742 59.48 97.7595" fill="#0B0B0B"/>
<path d="M107.727 71.7161H120.151C120.977 71.7161 121.171 71.9094 121.092 72.7265C120.995 73.7721 120.995 74.8177 121.092 75.8545C121.162 76.6453 120.977 76.8826 120.169 76.8562C118.921 76.8123 117.674 76.8211 116.417 76.8123C115.468 76.8123 114.519 76.8123 113.579 76.8123C113.456 76.8123 113.324 76.8123 113.201 76.8211C112.938 76.8562 112.823 76.9529 112.762 77.2165C112.709 77.4273 112.709 77.6382 112.709 77.8579C112.771 83.0859 112.753 88.3139 112.762 93.5419C112.762 96.0022 112.762 98.4536 112.762 100.914C112.762 101.116 112.762 101.318 112.718 101.511C112.656 101.74 112.525 101.88 112.287 101.942C112.129 101.986 111.962 101.986 111.795 101.986C109.019 101.968 106.242 101.959 103.457 101.986C103.395 101.986 103.334 101.986 103.264 101.986C102.798 101.959 102.64 101.81 102.596 101.336C102.587 101.239 102.587 101.134 102.587 101.037C102.587 99.6398 102.578 98.2428 102.596 96.8457C102.701 90.4578 102.622 84.07 102.649 77.6822C102.649 77.6294 102.649 77.5855 102.649 77.5328C102.631 77.0144 102.455 76.8211 101.937 76.8211C100.584 76.8211 99.2305 76.8211 97.8862 76.8211C96.8933 76.8211 95.8916 76.8035 94.8987 76.865C94.8109 76.865 94.723 76.865 94.6351 76.865C94.31 76.8562 94.2573 76.8123 94.2573 76.496C94.2573 75.134 94.2573 73.7721 94.2661 72.4102C94.2661 71.9182 94.4594 71.7336 94.9515 71.7073C95.0481 71.7073 95.1536 71.7073 95.2502 71.7073H107.718L107.727 71.7161Z" fill="#0B0B0B"/>
<path d="M36.2659 86.8114C36.2659 91.398 36.2659 95.9846 36.2659 100.562C36.2659 100.773 36.2746 100.993 36.2922 101.204C36.3274 101.775 36.1604 101.977 35.5893 101.977C34.6579 101.977 33.7177 101.977 32.7864 101.977C30.9148 101.977 29.0521 101.977 27.1805 101.986C27.0575 101.986 26.9257 101.986 26.8027 101.986C26.3458 101.968 26.1613 101.819 26.1086 101.353C26.0558 100.852 26.0822 100.343 26.1086 99.8419C26.1086 99.6135 26.1437 99.3938 26.1437 99.1654C26.1437 90.9411 26.1437 82.7169 26.1437 74.4926C26.1437 73.9303 26.091 73.3592 26.0998 72.7968C26.0998 72.6826 26.0998 72.5684 26.0998 72.4541C26.1437 71.9094 26.3458 71.7161 26.8994 71.7161C29.7901 71.7161 32.6809 71.7161 35.5717 71.7161C35.6859 71.7161 35.8002 71.7248 35.9056 71.76C36.1341 71.8215 36.2659 71.9797 36.2659 72.2257C36.2659 72.3487 36.2659 72.4805 36.2659 72.6035V86.8114Z" fill="#0B0B0B"/>
<path d="M113.465 64.019C113.438 67.2788 110.838 69.7742 107.648 69.7654C104.555 69.7654 101.902 67.3579 101.875 64.0014C101.849 60.5922 104.625 58.1847 107.718 58.2022C110.996 58.2198 113.5 60.9173 113.465 64.019Z" fill="#0B0B0B"/>
</svg>
