<svg width="176" height="176" viewBox="0 0 176 176" fill="none" xmlns="http://www.w3.org/2000/svg">
<path d="M28.9476 87.8834V82.6379C28.9476 82.4797 28.9476 82.3215 28.9388 82.1722C28.886 81.5659 28.4643 81.109 27.9107 81.0299C27.2166 80.9245 26.6718 81.232 26.4346 81.8383C26.3467 82.0579 26.3379 82.2776 26.3379 82.5061C26.3379 83.455 26.3379 84.4127 26.3379 85.3617C26.3379 85.4847 26.3379 85.6165 26.3379 85.7483C26.294 86.2316 26.0304 86.504 25.5559 86.5567C25.4681 86.5567 25.389 86.5567 25.3011 86.5567C24.317 86.5567 23.3329 86.5567 22.3488 86.5567C22.261 86.5567 22.1731 86.5567 22.094 86.5567C21.602 86.5127 21.3472 86.2755 21.2857 85.7835C21.2681 85.6165 21.2681 85.4408 21.2681 85.2738C21.2681 84.0261 21.2681 82.7697 21.2593 81.522C21.2417 80.7312 20.7145 80.2391 19.9501 80.2479C19.1769 80.2479 18.6848 80.74 18.6497 81.5307C18.6497 81.6625 18.6497 81.7856 18.6497 81.9174V85.4144C18.6497 85.5286 18.6497 85.6429 18.6497 85.7571C18.6233 86.214 18.3685 86.4952 17.9116 86.5567C17.7974 86.5742 17.6832 86.5742 17.5689 86.5742C16.6112 86.5742 15.6622 86.5742 14.7045 86.5742C14.5727 86.5742 14.4497 86.5742 14.3179 86.5567C13.9137 86.4952 13.7204 86.3019 13.6237 85.9065C13.5798 85.7132 13.5798 85.5111 13.5798 85.309C13.5798 84.2897 13.5798 83.2617 13.571 82.2425C13.571 81.6889 13.2635 81.2847 12.7539 81.109C12.2706 80.942 11.7083 80.9948 11.3041 81.4517C11.0141 81.7768 10.9438 82.1634 10.9702 82.5588C10.9966 82.9542 10.9966 83.3584 10.9966 83.7538C10.9966 86.7939 10.9966 89.8429 10.9966 92.883C10.9966 93.0939 11.0053 93.3048 10.9966 93.5244C10.979 94.078 11.4095 94.5964 11.8752 94.7106C12.4991 94.86 12.9823 94.7282 13.3601 94.2274C13.5359 93.9989 13.5622 93.7265 13.5622 93.4629C13.5622 92.514 13.5622 91.5562 13.5622 90.6073C13.5622 90.3788 13.5622 90.1504 13.6062 89.9307C13.694 89.4562 13.9401 89.2366 14.4145 89.2102C14.5024 89.2102 14.5815 89.2102 14.6694 89.2102C15.6095 89.2102 16.5497 89.2366 17.4898 89.2102C18.2543 89.1839 18.6848 89.4914 18.6233 90.3613C18.6233 90.414 18.6233 90.4755 18.6233 90.5282C18.6233 91.6265 18.6233 92.7161 18.6233 93.8144C18.6233 94.0692 18.6409 94.324 18.7024 94.5788C18.8342 95.1324 19.2472 95.4926 19.8095 95.5366C20.4421 95.5805 20.9342 95.3081 21.1626 94.7809C21.2593 94.5525 21.2505 94.3064 21.2505 94.0692C21.2505 92.8567 21.2505 91.6529 21.2505 90.4403C21.2505 90.2734 21.2505 90.0977 21.2769 89.9307C21.3472 89.4914 21.6108 89.2278 22.0501 89.219C23.2011 89.2014 24.361 89.2014 25.512 89.219C25.9601 89.219 26.2413 89.5178 26.3028 89.9659C26.3204 90.0889 26.3116 90.2207 26.3116 90.3525C26.3116 91.2926 26.3116 92.2328 26.3116 93.1642C26.3116 93.3223 26.3116 93.4805 26.3291 93.6299C26.4258 94.3679 26.9706 94.7985 27.735 94.7633C28.4291 94.737 28.8948 94.2449 28.9212 93.5069C28.9212 93.3663 28.9212 93.2257 28.9212 93.0851V87.9274M36.1789 87.8834C36.1701 96.7227 29.1409 104.007 19.9413 104.024C10.8384 104.042 3.70369 96.6964 3.73005 87.8044C3.75641 79.009 10.8208 71.6722 20.0204 71.6986C29.3254 71.7249 36.2316 79.3077 36.1789 87.8834Z" fill="#0B0B0B"/>
<path d="M108.87 89.9745C108.87 88.8059 108.879 87.6373 108.87 86.4775C108.852 85.5549 108.264 84.7904 107.42 84.5181C105.891 84.026 104.688 85.2122 104.626 86.495C104.626 86.6356 104.626 86.7762 104.626 86.9256V93.1553C104.626 93.3222 104.626 93.4979 104.626 93.6649C104.609 94.3415 104.336 94.6314 103.66 94.6402C103.088 94.649 102.517 94.649 101.946 94.6402C101.261 94.6226 100.988 94.3502 100.988 93.6649C100.988 91.3013 100.988 88.9465 100.988 86.5829C100.988 85.8185 100.69 85.2034 100.048 84.7641C98.8182 83.9294 97.096 84.6059 96.7533 86.0469C96.6918 86.3105 96.6655 86.5741 96.6655 86.8465C96.6655 89.0783 96.6655 91.3101 96.6743 93.5419C96.6743 93.6297 96.6743 93.7088 96.6743 93.7967C96.6567 94.2975 96.3843 94.6051 95.8835 94.6226C95.2245 94.649 94.5743 94.6402 93.9153 94.6226C93.4408 94.6051 93.1596 94.3327 93.0806 93.867C93.063 93.744 93.0542 93.6122 93.0542 93.4804C93.0542 91.2222 93.019 88.9553 93.0542 86.6971C93.1069 83.8591 94.9872 81.513 97.6232 80.9155C99.2927 80.5377 100.813 80.9419 102.21 81.8821C102.306 81.9436 102.394 82.0139 102.482 82.0842C102.79 82.339 102.781 82.3302 103.124 82.0754C105.013 80.6344 107.086 80.3268 109.222 81.3725C111.26 82.3741 112.341 84.1139 112.49 86.3808C112.631 88.472 112.525 90.5632 112.543 92.6544C112.543 93.0498 112.516 93.454 112.499 93.8494C112.473 94.2536 112.262 94.4996 111.866 94.5963C111.752 94.6226 111.638 94.6314 111.524 94.6314C110.979 94.6314 110.443 94.6402 109.898 94.6314C109.222 94.6138 108.932 94.3502 108.896 93.6737C108.87 93.2168 108.888 92.7599 108.888 92.3117C108.888 91.5297 108.888 90.7477 108.888 89.9657L108.87 89.9745Z" fill="#0B0B0B"/>
<path d="M60.6405 85.4232C60.6405 86.5567 60.6669 87.699 60.6405 88.8324C60.5614 91.8023 58.5142 93.9902 55.9748 94.5174C54.3581 94.8513 52.8995 94.4822 51.5552 93.5684C51.441 93.4893 51.3267 93.4015 51.2125 93.3048C50.9138 93.05 50.9489 93.0236 50.615 93.296C49.7364 94.0253 48.7259 94.4471 47.5924 94.5877C46.3359 94.7546 45.1673 94.4822 44.1129 93.8408C42.1799 92.6722 41.2222 90.8973 41.1958 88.6567C41.1607 86.3986 41.1958 84.1316 41.1958 81.8735C41.1958 81.7592 41.1958 81.645 41.2046 81.5308C41.2573 81.1178 41.5033 80.8366 41.9163 80.8015C42.6456 80.7488 43.3749 80.7488 44.0954 80.8015C44.4732 80.8279 44.7104 81.0827 44.7719 81.4605C44.8071 81.6714 44.8071 81.8823 44.8071 82.0931C44.8071 84.3161 44.8071 86.5304 44.8071 88.7446C44.8071 89.2103 44.9037 89.6496 45.1673 90.0362C45.6506 90.7743 46.5995 91.1609 47.4343 90.9588C48.2778 90.7567 48.9543 89.9923 49.051 89.1224C49.0686 88.9203 49.0686 88.727 49.0686 88.5249C49.0686 86.3371 49.0686 84.1492 49.0686 81.9525C49.0686 81.0036 49.3058 80.7664 50.2636 80.7664C50.7468 80.7664 51.2301 80.7664 51.7133 80.7664C52.4338 80.7839 52.7238 81.0651 52.7414 81.7856C52.7589 82.4534 52.7414 83.1212 52.7414 83.7889C52.7414 85.4496 52.7414 87.1191 52.7414 88.7797C52.7414 89.3333 52.8995 89.8078 53.251 90.2383C53.8045 90.9149 54.6832 91.1785 55.5179 90.9149C56.379 90.6337 56.9941 89.8605 57.0029 88.9818C57.0204 87.655 57.0029 86.3371 57.0029 85.0103C57.0029 83.9471 57.0029 82.8751 57.0029 81.812C57.0029 81.0563 57.284 80.7751 58.0309 80.7664C58.5844 80.7664 59.1468 80.7576 59.7003 80.7664C60.3505 80.7839 60.6317 81.0739 60.6317 81.7153C60.6317 82.9366 60.6317 84.158 60.6317 85.3881L60.6405 85.4232Z" fill="#0B0B0B"/>
<path d="M88.1601 87.9009C88.1865 86.4072 87.6768 85.3704 86.5609 84.6674C85.7086 84.1315 84.7685 84.0436 83.8019 84.2281C82.9936 84.3775 82.361 84.808 81.8601 85.4494C81.2363 86.2666 81.0605 87.1804 81.1484 88.1821C81.3681 90.7653 84.294 92.0657 86.4555 90.8181C87.6329 90.1327 88.1513 89.0607 88.1601 87.9009ZM77.5635 82.339C77.5635 80.7223 77.5635 79.0967 77.5635 77.48C77.5635 77.2076 77.5723 76.944 77.6162 76.6717C77.6865 76.1796 77.9325 75.9424 78.4246 75.8896C78.7057 75.8633 78.9957 75.8809 79.2769 75.8721C79.602 75.8721 79.9359 75.8633 80.261 75.8721C80.7969 75.8984 81.0693 76.1532 81.1308 76.6804C81.1484 76.8386 81.1484 76.988 81.1484 77.1461C81.1484 78.4553 81.1484 79.7645 81.1484 81.0737C81.1484 81.557 81.1484 81.5482 81.5789 81.3725C84.0831 80.3181 86.5258 80.4147 88.7664 82.0051C90.6116 83.3143 91.5957 85.1595 91.6835 87.4352C91.745 88.9729 91.376 90.4139 90.4885 91.6704C89.2321 93.454 87.4923 94.4557 85.3045 94.6754C83.4681 94.8599 81.781 94.4118 80.3225 93.2871C78.899 92.1888 77.9852 90.739 77.7041 88.9377C77.5986 88.2963 77.5459 87.6461 77.5459 86.9871C77.5459 85.4407 77.5459 83.8854 77.5459 82.339" fill="#0B0B0B"/>
<path d="M69.0936 85.9153C70.0074 85.9153 70.9124 85.9153 71.8263 85.9153C72.125 85.9153 72.1601 85.845 72.002 85.599C71.9756 85.5551 71.9317 85.5112 71.8965 85.4672C70.974 84.2722 69.2869 83.8593 67.8371 84.3513C67.143 84.5798 66.5807 85.0103 66.1677 85.6166C66.0095 85.8451 66.0447 85.9066 66.3171 85.9241C66.4049 85.9241 66.484 85.9241 66.5719 85.9241H69.0936V85.9153ZM70.7631 88.6919H66.7915C66.6597 88.6919 66.5367 88.6919 66.4049 88.6919C65.9392 88.7271 65.7723 89.0082 65.9656 89.4212C66.3698 90.2559 67.0376 90.8358 67.9162 91.0994C69.2342 91.5036 70.4468 91.2927 71.5099 90.3701C72.002 89.9396 72.2041 89.9132 72.7752 90.2208C73.2233 90.458 73.6802 90.6952 74.1283 90.9501C74.8225 91.3367 74.9016 91.7496 74.3744 92.3559C73.4693 93.3927 72.3447 94.1044 71.0179 94.4383C68.4083 95.0973 66.0798 94.5789 64.1116 92.6986C61.625 90.3174 61.4844 86.3898 63.1539 83.8769C64.2874 82.1723 65.8602 81.1354 67.8811 80.8103C70.2095 80.4325 72.2919 80.9949 73.9965 82.6292C75.3848 83.9647 76.1229 85.6342 76.1493 87.5848C76.1493 88.3141 75.7802 88.6919 75.0509 88.7007C73.6275 88.7007 72.2041 88.7007 70.7806 88.7007" fill="#0B0B0B"/>
<path d="M124.528 87.7253C124.528 86.5303 124.203 85.801 123.403 85.0278C122.217 83.8768 120.135 83.9471 119.071 84.6764C117.525 85.7395 117.138 87.5056 117.736 89.096C118.412 90.8973 120.319 91.6177 122.059 91.1521C123.412 90.7918 124.589 89.5265 124.537 87.7253M128.051 87.6989C128.051 91.6353 125.099 94.6931 121.022 94.7106C116.69 94.7282 113.966 91.4772 113.94 87.6989C113.914 83.7186 117.165 80.6521 121.084 80.696C125.046 80.74 128.113 84.0261 128.043 87.6989" fill="#0B0B0B"/>
<path d="M147.971 87.8395C147.971 86.8466 147.769 86.1349 147.391 85.5901C146.345 84.0876 144.386 83.8328 142.91 84.4654C142.593 84.606 142.312 84.7993 142.066 85.0365C141.302 85.7834 140.968 86.6796 140.95 87.7516C140.915 89.4474 142.215 91.0905 144.025 91.2662C145.159 91.3717 146.169 91.1081 147.004 90.2821C147.716 89.5792 148.015 88.7181 147.979 87.8395M144.465 80.7048C148.507 80.6784 151.529 83.8591 151.529 87.6022C151.529 91.9867 148.261 94.6842 144.5 94.7194C140.317 94.7545 137.488 91.5298 137.418 87.7955C137.339 83.9031 140.599 80.6081 144.465 80.7135" fill="#0B0B0B"/>
<path d="M167.187 80.7048C168.786 80.7048 170.21 81.1793 171.369 82.3304C171.44 82.4006 171.51 82.4709 171.572 82.55C171.914 82.9893 171.853 83.4463 171.396 83.7626C171.202 83.8856 171 83.991 170.798 84.0965C170.508 84.2546 170.21 84.3952 169.928 84.5621C169.507 84.817 169.111 84.7818 168.76 84.4391C168.382 84.0701 167.916 83.9207 167.415 83.8504C167.011 83.7889 166.616 83.8504 166.256 84.035C165.553 84.3952 165.518 85.1421 166.185 85.555C166.537 85.7747 166.932 85.9065 167.328 86.0207C168.356 86.3019 169.392 86.5655 170.368 87.0224C171.352 87.4881 172.081 88.191 172.389 89.263C172.608 90.0362 172.6 90.8094 172.389 91.5826C172.134 92.5579 171.563 93.2872 170.71 93.8056C169.867 94.3153 168.944 94.5701 167.96 94.6755C166.765 94.8073 165.605 94.6755 164.472 94.2537C163.593 93.9286 162.873 93.3839 162.284 92.6722C162.187 92.5492 162.091 92.4174 162.021 92.2856C161.81 91.8902 161.88 91.5826 162.24 91.319C162.398 91.2048 162.583 91.1082 162.75 91.0115C163.154 90.7918 163.549 90.5722 163.954 90.3701C164.384 90.1504 164.665 90.2119 164.982 90.5546C165.808 91.4508 167.064 91.7671 168.215 91.363C168.391 91.3015 168.549 91.2136 168.681 91.073C168.979 90.7567 168.988 90.2734 168.69 89.9571C168.461 89.7111 168.162 89.5705 167.855 89.4651C167.31 89.2893 166.765 89.1224 166.22 88.9554C165.676 88.7973 165.131 88.6215 164.604 88.4019C163.848 88.0856 163.154 87.6726 162.697 86.9521C161.643 85.3002 162.038 83.0684 163.576 81.8471C164.63 81.0124 165.851 80.7136 167.178 80.7048" fill="#0B0B0B"/>
<path d="M129.826 84.1491V78.2621C129.826 78.1215 129.826 77.9721 129.826 77.8315C129.861 77.2692 130.16 76.9792 130.731 76.9617C131.302 76.9529 131.873 76.9529 132.445 76.9617C133.06 76.9792 133.358 77.278 133.358 77.8931C133.358 78.6926 133.358 79.4834 133.358 80.283C133.358 80.7838 133.358 80.7926 133.85 80.7926C134.316 80.7926 134.791 80.7926 135.256 80.7926C135.397 80.7926 135.546 80.7926 135.678 80.819C136.109 80.8981 136.328 81.1441 136.337 81.5834C136.355 82.1985 136.355 82.8048 136.337 83.4198C136.328 83.8767 136.109 84.1227 135.634 84.1842C135.028 84.2721 134.413 84.2194 133.798 84.2106C133.71 84.2106 133.631 84.193 133.543 84.193C133.429 84.193 133.358 84.2545 133.35 84.3775C133.35 84.4918 133.35 84.606 133.35 84.7202C133.35 86.3809 133.35 88.0503 133.35 89.711C133.35 89.9658 133.367 90.2206 133.429 90.4754C133.508 90.8621 133.736 91.0993 134.114 91.2223C134.316 91.2926 134.527 91.3102 134.747 91.319C135.045 91.3365 135.344 91.3541 135.643 91.3892C136.073 91.4332 136.328 91.6792 136.346 92.1097C136.372 92.6897 136.372 93.2784 136.346 93.8583C136.337 94.2712 136.1 94.5261 135.696 94.5788C134.422 94.7457 133.156 94.6842 131.953 94.2097C131.127 93.8846 130.555 93.2871 130.239 92.4612C129.958 91.7056 129.826 90.9236 129.826 90.124C129.826 88.1294 129.826 86.1437 129.826 84.1579" fill="#0B0B0B"/>
<path d="M153.251 90.4228C153.251 89.4387 153.234 88.4634 153.251 87.4793C153.287 86.0295 153.717 84.7115 154.613 83.5605C155.993 81.7856 157.82 80.8806 160.061 80.8015C160.131 80.8015 160.202 80.8015 160.272 80.8015C160.79 80.8279 161.089 81.0739 161.115 81.5747C161.151 82.2689 161.151 82.9718 161.133 83.6659C161.115 84.1053 160.834 84.3601 160.395 84.404C160.272 84.4216 160.14 84.4128 160.008 84.4128C158.119 84.4128 156.836 86.1525 156.863 87.5935C156.898 89.509 156.872 91.4333 156.872 93.3488C156.872 93.463 156.872 93.5772 156.872 93.6914C156.845 94.3329 156.573 94.614 155.914 94.6316C155.343 94.6404 154.772 94.6404 154.2 94.6316C153.515 94.614 153.251 94.3329 153.251 93.6563C153.251 93.1203 153.251 92.5755 153.251 92.0396C153.251 91.4948 153.251 90.9588 153.251 90.414V90.4228Z" fill="#0B0B0B"/>
</svg>
